<svg id="arrastrar" xmlns="http://www.w3.org/2000/svg" width="121.655" height="121.655" viewBox="0 0 121.655 121.655">
  <path id="Trazado_142737" data-name="Trazado 142737" d="M255.362,192H224.949a2.5,2.5,0,0,0-1.921.887L192.614,228.37a2.5,2.5,0,0,0-.614,1.647v25.345a12.687,12.687,0,0,0,12.672,12.672h50.69a12.687,12.687,0,0,0,12.672-12.672v-50.69A12.687,12.687,0,0,0,255.362,192Zm0,0" transform="translate(-146.379 -146.379)" fill="#ddffa7"/>
  <path id="Trazado_142738" data-name="Trazado 142738" d="M186.158,208.974H175.767a10.167,10.167,0,0,1-10.138-10.137V188.7l-2.991-2.99a5.333,5.333,0,0,1-1.571-3.8,5.248,5.248,0,0,1,1.571-3.8,5.324,5.324,0,0,1,7.6,0l-.963-.963a5.262,5.262,0,0,1-1.419-3.65,5.012,5.012,0,0,1,.152-1.217,14.158,14.158,0,0,1,1.419-2.585,5.39,5.39,0,0,1,7.3-.253l1.571,1.52a5.456,5.456,0,0,1-1.571-3.8,4.332,4.332,0,0,1,.151-1.166,13.636,13.636,0,0,1,1.42-2.636,5.424,5.424,0,0,1,7.451-.151l2.686,2.686a5.46,5.46,0,0,1-1.571-3.8l.152-1.217a5.237,5.237,0,0,1,1.419-2.585,5.416,5.416,0,0,1,7.6,0l7.857,7.857a25.09,25.09,0,0,1-17.741,42.833Zm0,0" transform="translate(-122.796 -119.486)" fill="#ffcc80"/>
  <path id="Trazado_142739" data-name="Trazado 142739" d="M255.362,268.034h-50.69A12.69,12.69,0,0,1,192,255.362V235.086a2.534,2.534,0,0,1,5.069,0v20.276a7.613,7.613,0,0,0,7.6,7.6h50.69a7.613,7.613,0,0,0,7.6-7.6v-50.69a7.613,7.613,0,0,0-7.6-7.6H230.017a2.534,2.534,0,1,1,0-5.069h25.345a12.69,12.69,0,0,1,12.672,12.672v50.69A12.69,12.69,0,0,1,255.362,268.034Zm0,0" transform="translate(-146.379 -146.379)"/>
  <path id="Trazado_142740" data-name="Trazado 142740" d="M143.737,303.737H141.2a2.534,2.534,0,0,1,0-5.069h2.535a2.534,2.534,0,1,1,0,5.069Zm0,0" transform="translate(-105.719 -227.702)"/>
  <path id="Trazado_142741" data-name="Trazado 142741" d="M25.238,76.034H20.114a2.534,2.534,0,1,1,0-5.069h5.124a2.534,2.534,0,1,1,0,5.069ZM9.9,75.649a2.551,2.551,0,0,1-.694-.1,12.65,12.65,0,0,1-5.464-3.2,2.534,2.534,0,1,1,3.573-3.594,7.627,7.627,0,0,0,3.275,1.92,2.535,2.535,0,0,1-.69,4.973Zm-7.37-12A2.535,2.535,0,0,1,0,61.116V55.992a2.534,2.534,0,1,1,5.069,0v5.124A2.535,2.535,0,0,1,2.535,63.651Zm0-15.374A2.536,2.536,0,0,1,0,45.742V40.618a2.534,2.534,0,1,1,5.069,0v5.124A2.536,2.536,0,0,1,2.535,48.277Zm0-15.369A2.535,2.535,0,0,1,0,30.373V25.249a2.534,2.534,0,1,1,5.069,0v5.124A2.535,2.535,0,0,1,2.535,32.908ZM73.5,27.681a2.535,2.535,0,0,1-2.534-2.534V20.022a2.534,2.534,0,0,1,5.069,0v5.125A2.535,2.535,0,0,1,73.5,27.681ZM2.535,17.534A2.536,2.536,0,0,1,0,15V12.672A12.787,12.787,0,0,1,.476,9.226,2.534,2.534,0,1,1,5.353,10.6a7.658,7.658,0,0,0-.284,2.068V15A2.536,2.536,0,0,1,2.535,17.534Zm70.555-5.186a2.538,2.538,0,0,1-2.433-1.825,7.669,7.669,0,0,0-1.947-3.26,2.534,2.534,0,0,1,3.564-3.6A12.682,12.682,0,0,1,75.522,9.1,2.534,2.534,0,0,1,73.8,12.241,2.322,2.322,0,0,1,73.089,12.348ZM9.824,5.474A2.534,2.534,0,0,1,9.114.507,12.756,12.756,0,0,1,12.672,0h2.236a2.534,2.534,0,0,1,0,5.069H12.672a7.558,7.558,0,0,0-2.134.3A2.5,2.5,0,0,1,9.824,5.474Zm51.2-.406H55.9A2.534,2.534,0,1,1,55.9,0h5.124a2.534,2.534,0,1,1,0,5.069Zm-15.374,0h-5.12a2.534,2.534,0,1,1,0-5.069h5.124a2.534,2.534,0,1,1,0,5.069Zm-15.369,0H25.158a2.534,2.534,0,1,1,0-5.069h5.124a2.534,2.534,0,1,1,0,5.069Zm0,0" transform="translate(0 0)"/>
  <path id="Trazado_142742" data-name="Trazado 142742" d="M301.2,146.271a2.536,2.536,0,0,1-2.534-2.535V141.2a2.534,2.534,0,0,1,5.069,0v2.535A2.536,2.536,0,0,1,301.2,146.271Zm0,0" transform="translate(-227.702 -105.719)"/>
  <path id="Trazado_142743" data-name="Trazado 142743" d="M179.011,200.05H168.619a12.69,12.69,0,0,1-12.672-12.672v-9.089l-2.271-2.27A7.915,7.915,0,0,1,158.2,162.58a7.91,7.91,0,0,1,9-8.384,7.88,7.88,0,0,1,2.17-4.1,8.075,8.075,0,0,1,8.2-1.88,7.908,7.908,0,0,1,13.129-3.188l7.857,7.857a27.628,27.628,0,0,1-19.536,47.161Zm-18-16.692v4.02a7.613,7.613,0,0,0,7.6,7.6h10.392a22.557,22.557,0,0,0,15.952-38.5l-7.858-7.857a2.841,2.841,0,0,0-4.019,0,2.835,2.835,0,0,0-.006,4.015,2.534,2.534,0,1,1-3.579,3.588l-2.534-2.534a2.909,2.909,0,0,0-4.02,0,2.841,2.841,0,0,0,0,4.019l2.535,2.535a2.534,2.534,0,0,1-3.585,3.584l-3.8-3.8a2.909,2.909,0,0,0-4.019,0,2.842,2.842,0,0,0,0,4.02l6.336,6.337a2.534,2.534,0,1,1-3.584,3.584l-5.55-5.55a2.909,2.909,0,0,0-4.02,0,2.838,2.838,0,0,0,0,4.014l13.154,13.154a2.536,2.536,0,0,1-3.584,3.589Zm0,0" transform="translate(-115.395 -108.808)"/>
</svg>
