<svg xmlns="http://www.w3.org/2000/svg" xmlns:xlink="http://www.w3.org/1999/xlink" width="607.163" height="506.835" viewBox="0 0 607.163 506.835">
  <defs>
    <linearGradient id="linear-gradient" x1="0.5" x2="0.5" y2="1" gradientUnits="objectBoundingBox">
      <stop offset="0" stop-color="#064a93"/>
      <stop offset="1" stop-color="#053467"/>
    </linearGradient>
    <linearGradient id="linear-gradient-2" x1="14.318" y1="0.166" x2="16.305" y2="0.917" gradientUnits="objectBoundingBox">
      <stop offset="0" stop-color="#577de3"/>
      <stop offset="0.405" stop-color="#577de3"/>
      <stop offset="1" stop-color="#5951b3"/>
    </linearGradient>
    <clipPath id="clip-path">
      <path id="Rectangle_652-2" data-name="Rectangle 652-2" d="M-944.526-1492.417h588.04c5.28,0,9.561,8.4,9.561,18.772v469.291c0,10.367-4.281,18.772-9.561,18.772h-588.04c-5.28,0-9.561-8.4-9.561-18.772v-469.291C-954.087-1484.017-949.806-1492.417-944.526-1492.417Z" transform="translate(712.837)" fill="url(#linear-gradient)"/>
    </clipPath>
    <linearGradient id="linear-gradient-3" x1="-0.142" y1="1.139" x2="0.362" y2="0.676" xlink:href="#linear-gradient"/>
    <filter id="Rectángulo_6212" x="-59.707" y="-489.026" width="1004.514" height="1004.514" filterUnits="userSpaceOnUse">
      <feOffset dy="8" input="SourceAlpha"/>
      <feGaussianBlur stdDeviation="4" result="blur"/>
      <feFlood flood-color="#050529" flood-opacity="0.161"/>
      <feComposite operator="in" in2="blur"/>
      <feComposite in="SourceGraphic"/>
    </filter>
    <linearGradient id="linear-gradient-4" x1="-0.044" y1="1.118" x2="0.207" y2="0.811" xlink:href="#linear-gradient"/>
    <filter id="Rectángulo_6212-2" x="139.993" y="-697.597" width="1004.514" height="1004.514" filterUnits="userSpaceOnUse">
      <feOffset dy="8" input="SourceAlpha"/>
      <feGaussianBlur stdDeviation="4" result="blur-2"/>
      <feFlood flood-color="#050529" flood-opacity="0.58"/>
      <feComposite operator="in" in2="blur-2"/>
      <feComposite in="SourceGraphic"/>
    </filter>
    <linearGradient id="linear-gradient-5" x1="0.5" x2="0.5" y2="1" gradientUnits="objectBoundingBox">
      <stop offset="0" stop-color="#c1e1ea"/>
      <stop offset="1" stop-color="#fafeff"/>
    </linearGradient>
    <filter id="Rectángulo_33297" x="128.307" y="378.225" width="301.525" height="17.897" filterUnits="userSpaceOnUse">
      <feOffset dy="3" input="SourceAlpha"/>
      <feGaussianBlur stdDeviation="1.5" result="blur-3"/>
      <feFlood flood-opacity="0.333"/>
      <feComposite operator="in" in2="blur-3"/>
      <feComposite in="SourceGraphic"/>
    </filter>
    <linearGradient id="linear-gradient-7" y1="0.026" y2="1.024" xlink:href="#linear-gradient-5"/>
    <filter id="Trazado_149224" x="107.429" y="102.725" width="341.116" height="234.572" filterUnits="userSpaceOnUse">
      <feOffset dy="3" input="SourceAlpha"/>
      <feGaussianBlur stdDeviation="2.5" result="blur-4"/>
      <feFlood flood-opacity="0.431"/>
      <feComposite operator="in" in2="blur-4"/>
      <feComposite in="SourceGraphic"/>
    </filter>
    <filter id="Trazado_149059">
      <feOffset dy="3" input="SourceAlpha"/>
      <feGaussianBlur stdDeviation="3" result="blur-5"/>
      <feFlood flood-opacity="0.537" result="color"/>
      <feComposite operator="out" in="SourceGraphic" in2="blur-5"/>
      <feComposite operator="in" in="color"/>
      <feComposite operator="in" in2="SourceGraphic"/>
    </filter>
    <linearGradient id="linear-gradient-29" y1="1.19" y2="0.095" xlink:href="#linear-gradient-5"/>
    <linearGradient id="linear-gradient-30" y1="-0.016" y2="1.045" xlink:href="#linear-gradient-5"/>
    <linearGradient id="linear-gradient-31" y1="-0.034" y2="1.033" xlink:href="#linear-gradient-5"/>
    <filter id="Trazado_149223" x="154.623" y="136.329" width="273.689" height="162.344" filterUnits="userSpaceOnUse">
      <feOffset dy="3" input="SourceAlpha"/>
      <feGaussianBlur stdDeviation="3" result="blur-6"/>
      <feFlood flood-opacity="0.314"/>
      <feComposite operator="in" in2="blur-6"/>
      <feComposite in="SourceGraphic"/>
    </filter>
    <filter id="Rectángulo_33376" x="166.845" y="147.299" width="64.934" height="46.04" filterUnits="userSpaceOnUse">
      <feOffset dx="2" dy="2" input="SourceAlpha"/>
      <feGaussianBlur stdDeviation="1" result="blur-7"/>
      <feFlood flood-opacity="0.353"/>
      <feComposite operator="in" in2="blur-7"/>
      <feComposite in="SourceGraphic"/>
    </filter>
    <filter id="Rectángulo_33377" x="166.845" y="193.239" width="64.934" height="46.04" filterUnits="userSpaceOnUse">
      <feOffset dx="2" dy="2" input="SourceAlpha"/>
      <feGaussianBlur stdDeviation="1" result="blur-8"/>
      <feFlood flood-opacity="0.373"/>
      <feComposite operator="in" in2="blur-8"/>
      <feComposite in="SourceGraphic"/>
    </filter>
    <filter id="Rectángulo_33378" x="166.845" y="239.18" width="64.934" height="46.04" filterUnits="userSpaceOnUse">
      <feOffset dx="2" dy="2" input="SourceAlpha"/>
      <feGaussianBlur stdDeviation="1" result="blur-9"/>
      <feFlood flood-opacity="0.325"/>
      <feComposite operator="in" in2="blur-9"/>
      <feComposite in="SourceGraphic"/>
    </filter>
    <clipPath id="clip-path-2">
      <path id="Trazado_149169" data-name="Trazado 149169" d="M4885.509,1912.061a43.13,43.13,0,1,1,76.2,40.3C4917.073,1948.822,4893.038,1922.1,4885.509,1912.061Z" transform="translate(-4885.509 -1887.649)" fill="#064a93"/>
    </clipPath>
    <linearGradient id="linear-gradient-35" x1="0.588" y1="0.855" x2="0.391" y2="0.082" gradientUnits="objectBoundingBox">
      <stop offset="0" stop-color="#c1e1ea"/>
      <stop offset="0.848" stop-color="#f6fcfe"/>
      <stop offset="1" stop-color="#fafeff"/>
    </linearGradient>
    <filter id="Trazado_149178" x="468.89" y="420.042" width="90.382" height="10.097" filterUnits="userSpaceOnUse">
      <feOffset dy="3" input="SourceAlpha"/>
      <feGaussianBlur stdDeviation="1" result="blur-10"/>
      <feFlood flood-opacity="0.365"/>
      <feComposite operator="in" in2="blur-10"/>
      <feComposite in="SourceGraphic"/>
    </filter>
    <filter id="Trazado_149158" x="163.301" y="412.43" width="198.499" height="46.719" filterUnits="userSpaceOnUse">
      <feOffset dy="3" input="SourceAlpha"/>
      <feGaussianBlur stdDeviation="2" result="blur-11"/>
      <feFlood flood-opacity="0.341"/>
      <feComposite operator="in" in2="blur-11"/>
      <feComposite in="SourceGraphic"/>
    </filter>
    <linearGradient id="linear-gradient-36" y1="-0.034" y2="1.034" xlink:href="#linear-gradient"/>
    <filter id="Trazado_149162" x="135.289" y="392.462" width="69.2" height="23.933" filterUnits="userSpaceOnUse">
      <feOffset dy="3" input="SourceAlpha"/>
      <feGaussianBlur stdDeviation="2" result="blur-12"/>
      <feFlood flood-opacity="0.412"/>
      <feComposite operator="in" in2="blur-12"/>
      <feComposite in="SourceGraphic"/>
    </filter>
    <filter id="Trazado_149163" x="192.489" y="392.462" width="69.199" height="23.933" filterUnits="userSpaceOnUse">
      <feOffset dy="3" input="SourceAlpha"/>
      <feGaussianBlur stdDeviation="2" result="blur-13"/>
      <feFlood flood-opacity="0.412"/>
      <feComposite operator="in" in2="blur-13"/>
      <feComposite in="SourceGraphic"/>
    </filter>
    <linearGradient id="linear-gradient-37" x1="13.634" y1="-0.07" x2="14.571" y2="0.84" xlink:href="#linear-gradient-5"/>
    <filter id="Trazado_149180" x="48.388" y="371.068" width="90.238" height="77.625" filterUnits="userSpaceOnUse">
      <feOffset dy="3" input="SourceAlpha"/>
      <feGaussianBlur stdDeviation="3" result="blur-14"/>
      <feFlood flood-opacity="0.294"/>
      <feComposite operator="in" in2="blur-14"/>
      <feComposite in="SourceGraphic"/>
    </filter>
    <linearGradient id="linear-gradient-38" x1="13.596" y1="7.029" x2="14.596" y2="7.029" gradientUnits="objectBoundingBox">
      <stop offset="0" stop-color="#fdfdfc"/>
      <stop offset="0.277" stop-color="#fafaf9"/>
      <stop offset="0.473" stop-color="#f4f0f1"/>
      <stop offset="0.643" stop-color="#e9e1e4"/>
      <stop offset="0.798" stop-color="#dacbd2"/>
      <stop offset="0.943" stop-color="#c6afbb"/>
      <stop offset="1" stop-color="#bda2b0"/>
    </linearGradient>
    <clipPath id="clip-path-3">
      <path id="Trazado_149191" data-name="Trazado 149191" d="M3582.5,3727.8c19.119,0,33.405-3.533,33.405-6.692s-15.043-11.958-34.162-11.958-32.644,8.8-32.644,11.958S3563.388,3727.8,3582.5,3727.8Z" transform="translate(-3549.104 -3709.146)" fill="url(#linear-gradient-2)"/>
    </clipPath>
    <filter id="Trazado_149226" x="155.758" y="306.396" width="68.608" height="55.013" filterUnits="userSpaceOnUse">
      <feOffset dx="2" dy="2" input="SourceAlpha"/>
      <feGaussianBlur stdDeviation="1" result="blur-15"/>
      <feFlood flood-opacity="0.557"/>
      <feComposite operator="in" in2="blur-15"/>
      <feComposite in="SourceGraphic"/>
    </filter>
    <linearGradient id="linear-gradient-39" x1="0.376" y1="1.122" x2="0.378" y2="0.554" gradientUnits="objectBoundingBox">
      <stop offset="0" stop-color="#c1e1ea"/>
      <stop offset="0.161" stop-color="#c3e2eb"/>
      <stop offset="1" stop-color="#fafeff"/>
    </linearGradient>
    <filter id="Rectángulo_33097" x="343.071" y="304.24" width="76.176" height="58.663" filterUnits="userSpaceOnUse">
      <feOffset dy="3" input="SourceAlpha"/>
      <feGaussianBlur stdDeviation="3" result="blur-16"/>
      <feFlood flood-opacity="0.345"/>
      <feComposite operator="in" in2="blur-16"/>
      <feComposite in="SourceGraphic"/>
    </filter>
  </defs>
  <g id="Grupo_86926" data-name="Grupo 86926" transform="translate(-852.838 -69.001)">
    <g id="Grupo_58526" data-name="Grupo 58526" transform="translate(1094.088 1561.418)" clip-path="url(#clip-path)">
      <g id="Grupo_58525" data-name="Grupo 58525">
        <g transform="matrix(1, 0, 0, 1, -241.25, -1492.42)" filter="url(#Rectángulo_6212)">
          <rect id="Rectángulo_6212-3" data-name="Rectángulo 6212" width="846.212" height="846.212" rx="70.018" transform="translate(-47.71 -337.82) rotate(-10.02)" fill="url(#linear-gradient-3)"/>
        </g>
        <g transform="matrix(1, 0, 0, 1, -241.25, -1492.42)" filter="url(#Rectángulo_6212-2)">
          <rect id="Rectángulo_6212-4" data-name="Rectángulo 6212" width="846.212" height="846.212" rx="70.018" transform="translate(151.99 -546.39) rotate(-10.02)" fill="url(#linear-gradient-4)"/>
        </g>
      </g>
      <g id="Grupo_86883" data-name="Grupo 86883" transform="translate(-1082.088 -1562.418)">
        <rect id="Rectángulo_33273" data-name="Rectángulo 33273" width="846" height="846" rx="70" transform="matrix(0.174, 0.985, -0.985, 0.174, 1626.44, -415.026)" fill="#fdcf57"/>
      </g>
    </g>
    <ellipse id="Elipse_4449" data-name="Elipse 4449" cx="9.5" cy="9" rx="9.5" ry="9" transform="translate(1409 167)" fill="#064a93"/>
    <ellipse id="Elipse_4451" data-name="Elipse 4451" cx="9" cy="9.5" rx="9" ry="9.5" transform="translate(892 158)" fill="#064a93"/>
    <circle id="Elipse_4450" data-name="Elipse 4450" cx="5.5" cy="5.5" r="5.5" transform="translate(1438 369)" fill="#064a93"/>
    <g id="Grupo_86848" data-name="Grupo 86848" transform="translate(967.768 176.227)">
      <path id="Trazado_149060" data-name="Trazado 149060" d="M0,0H117.159V56.165H0Z" transform="translate(103.969 219.338)" fill="url(#linear-gradient-5)"/>
      <g transform="matrix(1, 0, 0, 1, -114.93, -107.23)" filter="url(#Rectángulo_33297)">
        <rect id="Rectángulo_33297-2" data-name="Rectángulo 33297" width="292.525" height="8.897" rx="3.267" transform="translate(132.81 379.73)" fill="url(#linear-gradient-5)"/>
      </g>
      <g id="Grupo_86846" data-name="Grupo 86846" transform="translate(18.704 269.61)">
        <path id="Rectángulo_33298" data-name="Rectángulo 33298" d="M1.888,0H17.976a1.888,1.888,0,0,1,1.888,1.888V5.779a0,0,0,0,1,0,0H0a0,0,0,0,1,0,0V1.888A1.888,1.888,0,0,1,1.888,0Z" transform="translate(91.479)" fill="url(#linear-gradient-7)"/>
        <path id="Rectángulo_33299" data-name="Rectángulo 33299" d="M1.888,0H17.976a1.888,1.888,0,0,1,1.888,1.888V5.779a0,0,0,0,1,0,0H0a0,0,0,0,1,0,0V1.888A1.888,1.888,0,0,1,1.888,0Z" transform="translate(112.132)" fill="url(#linear-gradient-7)"/>
        <path id="Rectángulo_33300" data-name="Rectángulo 33300" d="M1.888,0H17.976a1.888,1.888,0,0,1,1.888,1.888V5.779a0,0,0,0,1,0,0H0a0,0,0,0,1,0,0V1.888A1.888,1.888,0,0,1,1.888,0Z" transform="translate(132.988)" fill="url(#linear-gradient-7)"/>
        <path id="Rectángulo_33301" data-name="Rectángulo 33301" d="M1.888,0H17.976a1.888,1.888,0,0,1,1.888,1.888V5.779a0,0,0,0,1,0,0H0a0,0,0,0,1,0,0V1.888A1.888,1.888,0,0,1,1.888,0Z" transform="translate(154.111)" fill="url(#linear-gradient-7)"/>
        <path id="Rectángulo_33302" data-name="Rectángulo 33302" d="M1.925,0h16.8a1.925,1.925,0,0,1,1.925,1.925V5.779a0,0,0,0,1,0,0H0a0,0,0,0,1,0,0V1.925A1.925,1.925,0,0,1,1.925,0Z" transform="translate(0)" fill="url(#linear-gradient-7)"/>
        <path id="Rectángulo_33303" data-name="Rectángulo 33303" d="M2.2,0H24.675a2.2,2.2,0,0,1,2.2,2.2V5.779a0,0,0,0,1,0,0H0a0,0,0,0,1,0,0V2.2A2.2,2.2,0,0,1,2.2,0Z" transform="translate(21.705)" fill="url(#linear-gradient-7)"/>
        <path id="Rectángulo_33304" data-name="Rectángulo 33304" d="M1.888,0H17.976a1.888,1.888,0,0,1,1.888,1.888V5.779a0,0,0,0,1,0,0H0a0,0,0,0,1,0,0V1.888A1.888,1.888,0,0,1,1.888,0Z" transform="translate(49.566)" fill="url(#linear-gradient-7)"/>
        <path id="Rectángulo_33305" data-name="Rectángulo 33305" d="M1.888,0H17.976a1.888,1.888,0,0,1,1.888,1.888V5.779a0,0,0,0,1,0,0H0a0,0,0,0,1,0,0V1.888A1.888,1.888,0,0,1,1.888,0Z" transform="translate(70.691)" fill="url(#linear-gradient-7)"/>
        <path id="Rectángulo_33306" data-name="Rectángulo 33306" d="M1.888,0H17.976a1.888,1.888,0,0,1,1.888,1.888V5.779a0,0,0,0,1,0,0H0a0,0,0,0,1,0,0V1.888A1.888,1.888,0,0,1,1.888,0Z" transform="translate(208.375)" fill="url(#linear-gradient-7)"/>
        <path id="Rectángulo_33307" data-name="Rectángulo 33307" d="M1.888,0H17.976a1.888,1.888,0,0,1,1.888,1.888V5.779a0,0,0,0,1,0,0H0a0,0,0,0,1,0,0V1.888A1.888,1.888,0,0,1,1.888,0Z" transform="translate(229.029)" fill="url(#linear-gradient-7)"/>
        <path id="Rectángulo_33308" data-name="Rectángulo 33308" d="M1.888,0H17.976a1.888,1.888,0,0,1,1.888,1.888V5.779a0,0,0,0,1,0,0H0a0,0,0,0,1,0,0V1.888A1.888,1.888,0,0,1,1.888,0Z" transform="translate(249.883)" fill="url(#linear-gradient-7)"/>
        <path id="Rectángulo_33309" data-name="Rectángulo 33309" d="M1.888,0H17.976a1.888,1.888,0,0,1,1.888,1.888V5.779a0,0,0,0,1,0,0H0a0,0,0,0,1,0,0V1.888A1.888,1.888,0,0,1,1.888,0Z" transform="translate(271.008)" fill="url(#linear-gradient-7)"/>
        <path id="Rectángulo_33310" data-name="Rectángulo 33310" d="M2.313,0H27.5A2.313,2.313,0,0,1,29.81,2.313V5.779a0,0,0,0,1,0,0H0a0,0,0,0,1,0,0V2.313A2.313,2.313,0,0,1,2.313,0Z" transform="translate(177.642)" fill="url(#linear-gradient-7)"/>
      </g>
      <g id="Grupo_86847" data-name="Grupo 86847" transform="translate(19.53 273.793)">
        <path id="Rectángulo_33311" data-name="Rectángulo 33311" d="M2.419,0H119.976a2.419,2.419,0,0,1,2.419,2.419v3.36a0,0,0,0,1,0,0H0a0,0,0,0,1,0,0V2.419A2.419,2.419,0,0,1,2.419,0Z" transform="translate(83.421 0)" fill="url(#linear-gradient-7)"/>
        <path id="Rectángulo_33312" data-name="Rectángulo 33312" d="M1.888,0H17.976a1.888,1.888,0,0,1,1.888,1.888V5.779a0,0,0,0,1,0,0H0a0,0,0,0,1,0,0V1.888A1.888,1.888,0,0,1,1.888,0Z" transform="translate(206.472 0)" fill="url(#linear-gradient-7)"/>
        <path id="Rectángulo_33313" data-name="Rectángulo 33313" d="M1.888,0H17.976a1.888,1.888,0,0,1,1.888,1.888V5.779a0,0,0,0,1,0,0H0a0,0,0,0,1,0,0V1.888A1.888,1.888,0,0,1,1.888,0Z" transform="translate(227.125 0)" fill="url(#linear-gradient-7)"/>
        <path id="Rectángulo_33314" data-name="Rectángulo 33314" d="M1.888,0H17.976a1.888,1.888,0,0,1,1.888,1.888V5.779a0,0,0,0,1,0,0H0a0,0,0,0,1,0,0V1.888A1.888,1.888,0,0,1,1.888,0Z" transform="translate(247.98 0)" fill="url(#linear-gradient-7)"/>
        <path id="Rectángulo_33315" data-name="Rectángulo 33315" d="M1.888,0H17.976a1.888,1.888,0,0,1,1.888,1.888V5.779a0,0,0,0,1,0,0H0a0,0,0,0,1,0,0V1.888A1.888,1.888,0,0,1,1.888,0Z" transform="translate(269.104 0)" fill="url(#linear-gradient-7)"/>
        <path id="Rectángulo_33316" data-name="Rectángulo 33316" d="M1.888,0H17.976a1.888,1.888,0,0,1,1.888,1.888V5.779a0,0,0,0,1,0,0H0a0,0,0,0,1,0,0V1.888A1.888,1.888,0,0,1,1.888,0Z" transform="translate(0 0)" fill="url(#linear-gradient-7)"/>
        <path id="Rectángulo_33317" data-name="Rectángulo 33317" d="M1.888,0H17.976a1.888,1.888,0,0,1,1.888,1.888V5.779a0,0,0,0,1,0,0H0a0,0,0,0,1,0,0V1.888A1.888,1.888,0,0,1,1.888,0Z" transform="translate(20.653 0)" fill="url(#linear-gradient-7)"/>
        <path id="Rectángulo_33318" data-name="Rectángulo 33318" d="M1.888,0H17.976a1.888,1.888,0,0,1,1.888,1.888V5.779a0,0,0,0,1,0,0H0a0,0,0,0,1,0,0V1.888A1.888,1.888,0,0,1,1.888,0Z" transform="translate(41.508 0)" fill="url(#linear-gradient-7)"/>
        <path id="Rectángulo_33319" data-name="Rectángulo 33319" d="M1.888,0H17.976a1.888,1.888,0,0,1,1.888,1.888V5.779a0,0,0,0,1,0,0H0a0,0,0,0,1,0,0V1.888A1.888,1.888,0,0,1,1.888,0Z" transform="translate(62.632 0)" fill="url(#linear-gradient-7)"/>
      </g>
      <g transform="matrix(1, 0, 0, 1, -114.93, -107.23)" filter="url(#Trazado_149224)">
        <path id="Trazado_149224-2" data-name="Trazado 149224" d="M29.662,0H296.453a29.662,29.662,0,0,1,29.662,29.662V189.91a29.662,29.662,0,0,1-29.662,29.662H29.662A29.662,29.662,0,0,1,0,189.91V29.662A29.662,29.662,0,0,1,29.662,0Z" transform="translate(114.93 107.22)" fill="#baedfc"/>
      </g>
      <g data-type="innerShadowGroup">
        <path id="Trazado_149059-2" data-name="Trazado 149059" d="M27.477,0H279.664a27.477,27.477,0,0,1,27.477,27.477V172.568a27.477,27.477,0,0,1-27.477,27.477H27.477A27.477,27.477,0,0,1,0,172.568V27.477A27.477,27.477,0,0,1,27.477,0Z" transform="translate(8.977 8.465)" fill="#064a93"/>
        <g transform="matrix(1, 0, 0, 1, -114.93, -107.23)" filter="url(#Trazado_149059)">
          <path id="Trazado_149059-3" data-name="Trazado 149059" d="M27.477,0H279.664a27.477,27.477,0,0,1,27.477,27.477V172.568a27.477,27.477,0,0,1-27.477,27.477H27.477A27.477,27.477,0,0,1,0,172.568V27.477A27.477,27.477,0,0,1,27.477,0Z" transform="translate(123.91 115.69)" fill="#fff"/>
        </g>
      </g>
    </g>
    <g id="Grupo_86882" data-name="Grupo 86882" transform="translate(986.855 211.33)">
      <rect id="Rectángulo_33321" data-name="Rectángulo 33321" width="20.806" height="17.677" rx="2.709" transform="translate(0.001 6.566)" fill="url(#linear-gradient-29)"/>
      <path id="Trazado_149061" data-name="Trazado 149061" d="M4320.215,1882.784l1.864,8.289a.525.525,0,0,0,.841.293l1.165-3.1a1.789,1.789,0,0,1,1.413-1.141l3.272-.487a.525.525,0,0,0-.109-.885l-7.713-3.565A.525.525,0,0,0,4320.215,1882.784Z" transform="translate(-4313.244 -1870.889)" fill="#fa575d"/>
      <rect id="Rectángulo_33322" data-name="Rectángulo 33322" width="20.803" height="17.574" rx="2.699" transform="translate(0.025 30.359)" fill="url(#linear-gradient-30)"/>
      <g id="Grupo_86850" data-name="Grupo 86850" transform="translate(6.15 34.162)">
        <path id="Rectángulo_33323" data-name="Rectángulo 33323" d="M.556,0H3.015a.556.556,0,0,1,.556.556V1.723a0,0,0,0,1,0,0H0a0,0,0,0,1,0,0V.556A.556.556,0,0,1,.556,0Z" transform="matrix(0.767, 0.642, -0.642, 0.767, 6.242, 0)" fill="#fa575d"/>
        <path id="Trazado_149062" data-name="Trazado 149062" d="M4327.058,1912.433l-1.37-1.146-1.368-1.146-3.02,1.875a1.1,1.1,0,0,0-.483.644l-1.524,5.463a.567.567,0,0,0,.182.587h0a.567.567,0,0,0,.61.077l5.108-2.462a1.1,1.1,0,0,0,.55-.589Z" transform="translate(-4319.272 -1908.714)" fill="#fa575d"/>
        <rect id="Rectángulo_33324" data-name="Rectángulo 33324" width="0.159" height="6.471" transform="matrix(0.767, 0.642, -0.642, 0.767, 4.295, 4.983)" fill="#fff"/>
      </g>
      <path id="Trazado_149150" data-name="Trazado 149150" d="M2.756,0H18.05a2.756,2.756,0,0,1,2.756,2.756V14.921a2.756,2.756,0,0,1-2.756,2.756H2.756A2.756,2.756,0,0,1,0,14.921V2.756A2.756,2.756,0,0,1,2.756,0Z" transform="translate(0.001 53.012)" fill="url(#linear-gradient-31)"/>
      <g id="Grupo_86854" data-name="Grupo 86854" transform="translate(4.717 55.97)">
        <path id="Trazado_149149" data-name="Trazado 149149" d="M.973,0H7.223A.973.973,0,0,1,8.2.973V6.358a.973.973,0,0,1-.973.973H.973A.973.973,0,0,1,0,6.358V.973A.973.973,0,0,1,.973,0Z" transform="matrix(0.788, 0.615, -0.615, 0.788, 5.678, 0)" fill="#fa575d"/>
        <g id="Grupo_86853" data-name="Grupo 86853" transform="translate(0 3.014)">
          <path id="Trazado_149063" data-name="Trazado 149063" d="M4322.66,1946.688a.906.906,0,0,1-.56-.192l-4.125-3.219a.912.912,0,0,1-.157-1.279l3.583-4.589a.912.912,0,0,1,1.279-.158l4.124,3.219a.912.912,0,0,1,.158,1.279l-3.583,4.589A.912.912,0,0,1,4322.66,1946.688Zm-.367-.44a.6.6,0,0,0,.839-.1l3.583-4.59a.6.6,0,0,0-.1-.838l-4.125-3.219a.6.6,0,0,0-.837.1l-3.583,4.59a.6.6,0,0,0,.1.838Z" transform="translate(-4317.625 -1937.058)" fill="#fa575d"/>
        </g>
      </g>
      <rect id="Rectángulo_33371" data-name="Rectángulo 33371" width="20.806" height="17.677" rx="2.709" transform="translate(0.001 76.234)" fill="url(#linear-gradient-31)"/>
      <g id="Grupo_86856" data-name="Grupo 86856" transform="translate(7.192 81.779)">
        <path id="Trazado_149064" data-name="Trazado 149064" d="M4320.971,1963.866l.525-.583-.373,2.075h-.652l.092-2.075h6.364l.093,2.075h-.653l-.372-2.075.525.583Zm2.891,6.585,1.632.175v.467H4322v-.467l1.632-.175Zm-.641-3.555c0-1.2,0-2.412-.035-3.613h1.119c-.035,1.178-.035,2.389-.035,3.613v.583c0,1.2,0,2.413.035,3.613h-1.119c.035-1.177.035-2.389.035-3.613Z" transform="translate(-4320.471 -1963.283)" fill="#fa575d"/>
      </g>
      <rect id="Rectángulo_33372" data-name="Rectángulo 33372" width="20.806" height="17.677" rx="2.709" transform="translate(0.001 99.456)" fill="url(#linear-gradient-31)"/>
      <rect id="Rectángulo_33373" data-name="Rectángulo 33373" width="11.161" height="9.622" rx="1.119" transform="translate(4.462 103.733)" fill="#fa575d"/>
      <g transform="matrix(1, 0, 0, 1, -134.02, -142.33)" filter="url(#Trazado_149223)">
        <path id="Trazado_149223-2" data-name="Trazado 149223" d="M0,0H255.689V144.345H0Z" transform="translate(163.62 142.33)" fill="#86c3e0"/>
      </g>
      <g transform="matrix(1, 0, 0, 1, -134.02, -142.33)" filter="url(#Rectángulo_33376)">
        <rect id="Rectángulo_33376-2" data-name="Rectángulo 33376" width="58.934" height="40.04" transform="translate(167.84 148.3)" fill="#f0fcff"/>
      </g>
      <g transform="matrix(1, 0, 0, 1, -134.02, -142.33)" filter="url(#Rectángulo_33377)">
        <rect id="Rectángulo_33377-2" data-name="Rectángulo 33377" width="58.934" height="40.04" transform="translate(167.84 194.24)" fill="#f0fcff"/>
      </g>
      <g transform="matrix(1, 0, 0, 1, -134.02, -142.33)" filter="url(#Rectángulo_33378)">
        <rect id="Rectángulo_33378-2" data-name="Rectángulo 33378" width="58.934" height="40.04" transform="translate(167.84 240.18)" fill="#f0fcff"/>
      </g>
      <g id="Grupo_86869" data-name="Grupo 86869" transform="translate(53.084 9.928)">
        <g id="Grupo_86866" data-name="Grupo 86866">
          <path id="Trazado_149086" data-name="Trazado 149086" d="M4379.841,1895.564" transform="translate(-4374.13 -1882.572)" fill="#98b6d8"/>
          <path id="Trazado_149087" data-name="Trazado 149087" d="M4377.945,1900.858l-.057.247a6.758,6.758,0,0,0,.1,3.446l.972,3.284-5.195,5.874.526.614,6.225-4.459a1.92,1.92,0,0,0,.8-1.593l-.09-5.524h0l.021,1.477,3.1,10.833.806-.063-.514-13.9" transform="translate(-4373.336 -1883.265)" fill="url(#linear-gradient)"/>
          <path id="Trazado_149088" data-name="Trazado 149088" d="M4380.551,1902.37l-.907,1.994.907,3.809-3.988,4.155" transform="translate(-4373.701 -1883.463)" fill="none" stroke="#f9fbfc" stroke-miterlimit="10" stroke-width="0.05"/>
          <ellipse id="Elipse_4475" data-name="Elipse 4475" cx="0.181" cy="0.181" rx="0.181" ry="0.181" transform="translate(6.657 18.799)" fill="#f9fbfc"/>
          <ellipse id="Elipse_4476" data-name="Elipse 4476" cx="0.181" cy="0.181" rx="0.181" ry="0.181" transform="translate(5.796 20.674)" fill="#f9fbfc"/>
          <ellipse id="Elipse_4477" data-name="Elipse 4477" cx="0.181" cy="0.181" rx="0.181" ry="0.181" transform="translate(6.666 24.534)" fill="#f9fbfc"/>
          <ellipse id="Elipse_4478" data-name="Elipse 4478" cx="0.181" cy="0.181" rx="0.181" ry="0.181" transform="translate(2.677 28.693)" fill="#f9fbfc"/>
          <path id="Trazado_149089" data-name="Trazado 149089" d="M4391.374,1900.145l.3.215s.272-.256.435-.185-.25.215-.118.257.685.058.662.235a.63.63,0,0,1-.485.509.888.888,0,0,1-.635-.221,1.458,1.458,0,0,0-.45-.17" transform="translate(-4375.601 -1883.172)" fill="#d8a7b5"/>
          <path id="Trazado_149090" data-name="Trazado 149090" d="M4380.615,1902.9l.116.35s.372-.047.459.106-.328.026-.246.138.519.451.4.581a.631.631,0,0,1-.693.125.884.884,0,0,1-.383-.553,1.439,1.439,0,0,0-.263-.4" transform="translate(-4374.151 -1883.532)" fill="#d8a7b5"/>
          <path id="Trazado_149091" data-name="Trazado 149091" d="M4386.911,1896.885l-.988-2.62a1.5,1.5,0,0,0-1.137-.944l-.229-.042-4.136-.106-.8.171a2.057,2.057,0,0,0-1.6,1.692l-.36,2.306a2.273,2.273,0,0,0,.257,1.455l.531.96,0,.095.051.005,1.21,2.189.68-.275-.543-1.778.49.05,4.813.042v-3.074l.476.716a2.505,2.505,0,0,0,1.009.876l2.836,1.355.334-.6Z" transform="translate(-4373.841 -1882.26)" fill="#fdcf57"/>
          <g id="Grupo_86864" data-name="Grupo 86864" transform="translate(6.58 9.175)">
            <path id="Trazado_149092" data-name="Trazado 149092" d="M4380.841,1892.911l1.484,1.023a1.408,1.408,0,0,0,.8.25h0a1.411,1.411,0,0,0,.936-.355l.915-.811v-1l-4.136-.848Z" transform="translate(-4380.841 -1891.173)" fill="#e8c0c1"/>
          </g>
          <path id="Trazado_149093" data-name="Trazado 149093" d="M4378.779,1884.814l.415,4.424,2.736,2.745a1.626,1.626,0,0,0,1.152.478h0a1.629,1.629,0,0,0,1.16-.485h0a5.38,5.38,0,0,0,1.546-3.777v-3.245Z" transform="translate(-4373.991 -1881.166)" fill="#fdd8d9"/>
          <path id="Trazado_149094" data-name="Trazado 149094" d="M4378.062,1886.876s-1.082-2.985.007-4.4c.964-1.253,1.67-.874,1.67-.874a2.6,2.6,0,0,1,1.926-.985,3.357,3.357,0,0,1,1.5.435,5.821,5.821,0,0,1,2.463-.076,1.083,1.083,0,0,0-.29.9s1.476-.361,1.815.085c0,0-.538.366-.358,2.318a14.358,14.358,0,0,1-1.247,4.346l-.005-3.425a.749.749,0,0,0-.742-.749l-3.88-.032a1.067,1.067,0,0,0-1.064.914l-.28,2.953-.35-.018-.212-1.194S4378.295,1886.547,4378.062,1886.876Z" transform="translate(-4373.834 -1880.617)" fill="#011224"/>
          <ellipse id="Elipse_4479" data-name="Elipse 4479" cx="0.318" cy="0.62" rx="0.318" ry="0.62" transform="translate(7.663 6.1)" fill="#011224"/>
          <ellipse id="Elipse_4480" data-name="Elipse 4480" cx="0.318" cy="0.62" rx="0.318" ry="0.62" transform="translate(10.334 6.1)" fill="#011224"/>
          <path id="Trazado_149095" data-name="Trazado 149095" d="M4386.206,1886.872l-1.646-.453.056-.224,1.678.359Z" transform="translate(-4374.748 -1881.347)" fill="#011224"/>
          <path id="Trazado_149096" data-name="Trazado 149096" d="M4381.255,1886.895l1.6-.546-.037-.224-1.646.452Z" transform="translate(-4374.303 -1881.338)" fill="#011224"/>
          <rect id="Rectángulo_33379" data-name="Rectángulo 33379" width="0.875" height="0.286" transform="translate(8.898 7.998)" fill="#e8c0c1"/>
          <path id="Trazado_149097" data-name="Trazado 149097" d="M4382.392,1890.873l.53.275h1.478l.463-.289.154.04-.8,1.108h-.981l-.987-.933Z" transform="translate(-4374.445 -1881.957)" fill="#fa575d"/>
          <path id="Trazado_149098" data-name="Trazado 149098" d="M4382.413,1890.873l.685.645h1.047l.739-.658-.463.289h-1.478Z" transform="translate(-4374.466 -1881.957)" fill="#fefcfd"/>
          <path id="Trazado_149099" data-name="Trazado 149099" d="M4379.089,1887.98s-.726-.47-.924-.279c-.151.145.015.937.251,1.214s.723.724.723.724" transform="translate(-4373.903 -1881.538)" fill="#fdd8d9"/>
          <g id="Grupo_86865" data-name="Grupo 86865" transform="translate(5.275 12.992)">
            <path id="Trazado_149100" data-name="Trazado 149100" d="M4380.614,1902.085l-.091-.275-.236-.727c-.095-.3-.206-.653-.325-1.029l-.366-1.182-.254-.839,0-.008v-.007l.061-.355.186-1.063.136-.751.053-.285-.04.287-.11.755c-.048.312-.1.678-.164,1.067l-.056.356v-.015l.258.838.357,1.185.305,1.035.209.734Z" transform="translate(-4379.339 -1895.564)" fill="#d09d19"/>
          </g>
          <path id="Trazado_149101" data-name="Trazado 149101" d="M4385.946,1917.125l.037.562s1.187.008,1.849-.035c.165-.01.3-.193.354-.276a.456.456,0,0,0-.463-.689c-.351.053-.3.48-.634.515-.267.027-.337-.141-.337-.141" transform="translate(-4374.929 -1885.335)" fill="#060b2f"/>
          <path id="Trazado_149102" data-name="Trazado 149102" d="M4373.7,1915.642l-.433.361s.693.963,1.118,1.472a.56.56,0,0,0,.433.124.456.456,0,0,0,.282-.781c-.249-.251-.564.041-.789-.208-.18-.2-.085-.355-.085-.355" transform="translate(-4373.27 -1885.199)" fill="#060b2f"/>
        </g>
        <g id="Grupo_86867" data-name="Grupo 86867" transform="translate(8.508 18.844)">
          <path id="Trazado_149103" data-name="Trazado 149103" d="M4383.285,1902.517l1.547,3.861,1.009,7.53" transform="translate(-4383.088 -1902.326)" fill="none" stroke="#f9fbfc" stroke-miterlimit="10" stroke-width="0.05"/>
          <ellipse id="Elipse_4481" data-name="Elipse 4481" cx="0.181" cy="0.181" rx="0.181" ry="0.181" fill="#f9fbfc"/>
          <ellipse id="Elipse_4482" data-name="Elipse 4482" cx="0.181" cy="0.181" rx="0.181" ry="0.181" transform="translate(1.572 3.912)" fill="#f9fbfc"/>
          <ellipse id="Elipse_4483" data-name="Elipse 4483" cx="0.181" cy="0.181" rx="0.181" ry="0.181" transform="translate(2.575 11.449)" fill="#f9fbfc"/>
        </g>
        <g id="Grupo_86868" data-name="Grupo 86868" transform="translate(4.3 4.812)">
          <path id="Trazado_149104" data-name="Trazado 149104" d="M4383.516,1886.255l.613,2.659.082,2.182-.653,2.378" transform="translate(-4378.912 -1886.167)" fill="none" stroke="#f9fbfc" stroke-miterlimit="10" stroke-width="0.05"/>
          <path id="Trazado_149105" data-name="Trazado 149105" d="M4385.094,1894.928l1.24.243.819,2.352,2.76,1.93" transform="translate(-4379.118 -1887.301)" fill="none" stroke="#f9fbfc" stroke-miterlimit="10" stroke-width="0.05"/>
          <path id="Trazado_149106" data-name="Trazado 149106" d="M4380.1,1894.34l-1.125.55-.576,3.145,1.535,3.631" transform="translate(-4378.242 -1887.225)" fill="none" stroke="#f9fbfc" stroke-miterlimit="10" stroke-width="0.05"/>
          <line id="Línea_229" data-name="Línea 229" y2="4.231" transform="translate(3.969 8.215)" fill="none" stroke="#f9fbfc" stroke-miterlimit="10" stroke-width="0.05"/>
          <ellipse id="Elipse_4484" data-name="Elipse 4484" cx="0.181" cy="0.181" rx="0.181" ry="0.181" transform="translate(4.424)" fill="#f9fbfc"/>
          <ellipse id="Elipse_4485" data-name="Elipse 4485" cx="0.181" cy="0.181" rx="0.181" ry="0.181" transform="translate(5.037 2.566)" fill="#f9fbfc"/>
          <ellipse id="Elipse_4486" data-name="Elipse 4486" cx="0.181" cy="0.181" rx="0.181" ry="0.181" transform="translate(5.118 4.748)" fill="#f9fbfc"/>
          <ellipse id="Elipse_4487" data-name="Elipse 4487" cx="0.181" cy="0.181" rx="0.181" ry="0.181" transform="translate(4.491 7.075)" fill="#f9fbfc"/>
          <ellipse id="Elipse_4488" data-name="Elipse 4488" cx="0.181" cy="0.181" rx="0.181" ry="0.181" transform="translate(0.554 7.484)" fill="#f9fbfc"/>
          <ellipse id="Elipse_4489" data-name="Elipse 4489" cx="0.181" cy="0.181" rx="0.181" ry="0.181" transform="translate(0 10.646)" fill="#f9fbfc"/>
          <ellipse id="Elipse_4490" data-name="Elipse 4490" cx="0.181" cy="0.181" rx="0.181" ry="0.181" transform="translate(1.534 14.289)" fill="#f9fbfc"/>
          <ellipse id="Elipse_4491" data-name="Elipse 4491" cx="0.181" cy="0.181" rx="0.181" ry="0.181" transform="translate(1.773 6.896)" fill="#f9fbfc"/>
          <ellipse id="Elipse_4492" data-name="Elipse 4492" cx="0.181" cy="0.181" rx="0.181" ry="0.181" transform="translate(3.788 12.252)" fill="#f9fbfc"/>
          <ellipse id="Elipse_4493" data-name="Elipse 4493" cx="0.181" cy="0.181" rx="0.181" ry="0.181" transform="translate(3.788 7.923)" fill="#f9fbfc"/>
          <ellipse id="Elipse_4494" data-name="Elipse 4494" cx="0.181" cy="0.181" rx="0.181" ry="0.181" transform="translate(5.651 7.426)" fill="#f9fbfc"/>
          <ellipse id="Elipse_4495" data-name="Elipse 4495" cx="0.181" cy="0.181" rx="0.181" ry="0.181" transform="translate(6.984 7.676)" fill="#f9fbfc"/>
          <ellipse id="Elipse_4496" data-name="Elipse 4496" cx="0.181" cy="0.181" rx="0.181" ry="0.181" transform="translate(7.866 10.047)" fill="#f9fbfc"/>
          <ellipse id="Elipse_4497" data-name="Elipse 4497" cx="0.181" cy="0.181" rx="0.181" ry="0.181" transform="translate(10.647 11.996)" fill="#f9fbfc"/>
        </g>
      </g>
      <g id="Grupo_86875" data-name="Grupo 86875" transform="translate(51.718 55.006)">
        <g id="Grupo_86872" data-name="Grupo 86872">
          <path id="Trazado_149107" data-name="Trazado 149107" d="M4379.841,1947.427" transform="translate(-4372.763 -1934.435)" fill="#98b6d8"/>
          <path id="Trazado_149108" data-name="Trazado 149108" d="M4377.791,1952.721l-.459,1.984,1.477,4.992-6.129.054-.084.8,6.828,1.152a1.508,1.508,0,0,0,1.758-1.515l-.1-5.583h0l.021,1.477,3.1,10.833.806-.063-.514-13.9" transform="translate(-4371.815 -1935.128)" fill="#19385f"/>
          <path id="Trazado_149109" data-name="Trazado 149109" d="M4380.381,1954.233l-.908,1.994.988,4.456-5.2-.039" transform="translate(-4372.164 -1935.326)" fill="none" stroke="#f9fbfc" stroke-miterlimit="10" stroke-width="0.05"/>
          <ellipse id="Elipse_4498" data-name="Elipse 4498" cx="0.181" cy="0.181" rx="0.181" ry="0.181" transform="translate(8.023 18.799)" fill="#f9fbfc"/>
          <ellipse id="Elipse_4499" data-name="Elipse 4499" cx="0.181" cy="0.181" rx="0.181" ry="0.181" transform="translate(7.162 20.674)" fill="#f9fbfc"/>
          <ellipse id="Elipse_4500" data-name="Elipse 4500" cx="0.181" cy="0.181" rx="0.181" ry="0.181" transform="translate(8.09 25.16)" fill="#f9fbfc"/>
          <ellipse id="Elipse_4501" data-name="Elipse 4501" cx="0.181" cy="0.181" rx="0.181" ry="0.181" transform="translate(2.911 25.137)" fill="#f9fbfc"/>
          <path id="Trazado_149110" data-name="Trazado 149110" d="M4391.374,1952.008l.3.215s.272-.257.435-.185-.25.215-.118.257.685.059.662.235a.628.628,0,0,1-.485.509.879.879,0,0,1-.635-.221,1.47,1.47,0,0,0-.45-.169" transform="translate(-4374.234 -1935.035)" fill="#fdd8d9"/>
          <path id="Trazado_149111" data-name="Trazado 149111" d="M4380.615,1954.764l.116.35s.372-.047.459.106-.328.026-.246.138.519.451.4.58a.63.63,0,0,1-.693.126.884.884,0,0,1-.383-.553,1.437,1.437,0,0,0-.263-.4" transform="translate(-4372.785 -1935.395)" fill="#fdd8d9"/>
          <path id="Trazado_149112" data-name="Trazado 149112" d="M4386.911,1948.747l-.988-2.619a1.5,1.5,0,0,0-1.137-.945l-.229-.041-4.136-.106-.8.171a2.057,2.057,0,0,0-1.6,1.692l-.36,2.306a2.272,2.272,0,0,0,.257,1.455l.531.96,0,.095.051.005,1.21,2.189.68-.276-.543-1.778.49.051,4.813.042v-3.074l.476.716a2.513,2.513,0,0,0,1.009.876l2.836,1.355.334-.6Z" transform="translate(-4372.475 -1934.122)" fill="#fdcf57"/>
          <g id="Grupo_86870" data-name="Grupo 86870" transform="translate(7.947 9.175)">
            <path id="Trazado_149113" data-name="Trazado 149113" d="M4380.841,1944.775l1.484,1.023a1.409,1.409,0,0,0,.8.25h0a1.41,1.41,0,0,0,.936-.355l.915-.811v-1l-4.136-.848Z" transform="translate(-4380.841 -1943.036)" fill="#eac7c8"/>
          </g>
          <path id="Trazado_149114" data-name="Trazado 149114" d="M4378.779,1936.677l.415,4.424,2.736,2.745a1.626,1.626,0,0,0,1.152.478h0a1.629,1.629,0,0,0,1.16-.485h0a5.38,5.38,0,0,0,1.546-3.777v-3.245Z" transform="translate(-4372.625 -1933.029)" fill="#fdd8d9"/>
          <path id="Trazado_149115" data-name="Trazado 149115" d="M4378.062,1938.739s-1.082-2.985.007-4.4c.964-1.254,1.67-.875,1.67-.875a2.6,2.6,0,0,1,1.926-.985,3.355,3.355,0,0,1,1.5.435,5.822,5.822,0,0,1,2.463-.077,1.08,1.08,0,0,0-.29.894s1.476-.36,1.815.085c0,0-.538.367-.358,2.318a14.359,14.359,0,0,1-1.247,4.347l-.005-3.425a.749.749,0,0,0-.742-.748l-3.88-.032a1.067,1.067,0,0,0-1.064.914l-.28,2.953-.35-.018-.212-1.194S4378.295,1938.41,4378.062,1938.739Z" transform="translate(-4372.468 -1932.48)" fill="#011224"/>
          <ellipse id="Elipse_4502" data-name="Elipse 4502" cx="0.318" cy="0.62" rx="0.318" ry="0.62" transform="translate(9.029 6.1)" fill="#011224"/>
          <ellipse id="Elipse_4503" data-name="Elipse 4503" cx="0.318" cy="0.62" rx="0.318" ry="0.62" transform="translate(11.7 6.1)" fill="#011224"/>
          <path id="Trazado_149116" data-name="Trazado 149116" d="M4386.206,1938.735l-1.646-.452.056-.224,1.678.359Z" transform="translate(-4373.381 -1933.21)" fill="#011224"/>
          <path id="Trazado_149117" data-name="Trazado 149117" d="M4381.255,1938.758l1.6-.546-.037-.223-1.646.452Z" transform="translate(-4372.937 -1933.2)" fill="#011224"/>
          <rect id="Rectángulo_33380" data-name="Rectángulo 33380" width="0.875" height="0.286" transform="translate(10.264 7.998)" fill="#eac7c8"/>
          <path id="Trazado_149118" data-name="Trazado 149118" d="M4382.392,1942.736l.53.275h1.478l.463-.289.154.04-.8,1.108h-.981l-.987-.934Z" transform="translate(-4373.079 -1933.82)" fill="#fa575d"/>
          <path id="Trazado_149119" data-name="Trazado 149119" d="M4382.413,1942.736l.685.645h1.047l.739-.658-.463.289h-1.478Z" transform="translate(-4373.1 -1933.82)" fill="#fefcfd"/>
          <path id="Trazado_149120" data-name="Trazado 149120" d="M4379.089,1939.843s-.726-.47-.924-.279c-.151.145.015.937.251,1.214s.723.724.723.724" transform="translate(-4372.537 -1933.401)" fill="#fdd8d9"/>
          <g id="Grupo_86871" data-name="Grupo 86871" transform="translate(6.641 12.992)">
            <path id="Trazado_149121" data-name="Trazado 149121" d="M4380.614,1953.948l-.091-.275-.236-.726c-.095-.3-.206-.654-.325-1.029l-.366-1.182-.254-.839,0-.008v-.007l.061-.355.186-1.063.136-.752.053-.284-.04.287-.11.755c-.048.312-.1.678-.164,1.066l-.056.356v-.015l.258.838.357,1.184.305,1.036.209.734Z" transform="translate(-4379.339 -1947.427)" fill="#d09d19"/>
          </g>
          <path id="Trazado_149122" data-name="Trazado 149122" d="M4385.946,1968.987l.037.563s1.187.008,1.849-.035c.165-.01.3-.193.354-.276a.456.456,0,0,0-.463-.689c-.351.053-.3.48-.634.515-.267.027-.337-.141-.337-.141" transform="translate(-4373.563 -1937.198)" fill="#060b2f"/>
          <path id="Trazado_149123" data-name="Trazado 149123" d="M4372.563,1960.8l-.56-.066s-.224,1.165-.3,1.823a.547.547,0,0,0,.205.4.456.456,0,0,0,.763-.33c.011-.354-.417-.381-.39-.716.021-.268.2-.306.2-.306" transform="translate(-4371.699 -1936.176)" fill="#060b2f"/>
        </g>
        <g id="Grupo_86873" data-name="Grupo 86873" transform="translate(9.874 18.844)">
          <path id="Trazado_149124" data-name="Trazado 149124" d="M4383.285,1954.38l1.547,3.861,1.009,7.53" transform="translate(-4383.088 -1954.188)" fill="none" stroke="#f9fbfc" stroke-miterlimit="10" stroke-width="0.05"/>
          <ellipse id="Elipse_4504" data-name="Elipse 4504" cx="0.181" cy="0.181" rx="0.181" ry="0.181" fill="#f9fbfc"/>
          <ellipse id="Elipse_4505" data-name="Elipse 4505" cx="0.181" cy="0.181" rx="0.181" ry="0.181" transform="translate(1.572 3.912)" fill="#f9fbfc"/>
          <ellipse id="Elipse_4506" data-name="Elipse 4506" cx="0.181" cy="0.181" rx="0.181" ry="0.181" transform="translate(2.575 11.449)" fill="#f9fbfc"/>
        </g>
        <g id="Grupo_86874" data-name="Grupo 86874" transform="translate(5.667 4.812)">
          <path id="Trazado_149125" data-name="Trazado 149125" d="M4383.516,1938.118l.613,2.659.082,2.182-.653,2.378" transform="translate(-4378.912 -1938.03)" fill="none" stroke="#f9fbfc" stroke-miterlimit="10" stroke-width="0.05"/>
          <path id="Trazado_149126" data-name="Trazado 149126" d="M4385.094,1946.791l1.24.243.819,2.352,2.76,1.93" transform="translate(-4379.118 -1939.164)" fill="none" stroke="#f9fbfc" stroke-miterlimit="10" stroke-width="0.05"/>
          <path id="Trazado_149127" data-name="Trazado 149127" d="M4380.1,1946.2l-1.125.55-.576,3.145,1.535,3.631" transform="translate(-4378.242 -1939.088)" fill="none" stroke="#f9fbfc" stroke-miterlimit="10" stroke-width="0.05"/>
          <line id="Línea_230" data-name="Línea 230" y2="4.231" transform="translate(3.969 8.215)" fill="none" stroke="#f9fbfc" stroke-miterlimit="10" stroke-width="0.05"/>
          <ellipse id="Elipse_4507" data-name="Elipse 4507" cx="0.181" cy="0.181" rx="0.181" ry="0.181" transform="translate(4.424)" fill="#f9fbfc"/>
          <ellipse id="Elipse_4508" data-name="Elipse 4508" cx="0.181" cy="0.181" rx="0.181" ry="0.181" transform="translate(5.037 2.566)" fill="#f9fbfc"/>
          <ellipse id="Elipse_4509" data-name="Elipse 4509" cx="0.181" cy="0.181" rx="0.181" ry="0.181" transform="translate(5.118 4.748)" fill="#f9fbfc"/>
          <ellipse id="Elipse_4510" data-name="Elipse 4510" cx="0.181" cy="0.181" rx="0.181" ry="0.181" transform="translate(4.491 7.075)" fill="#f9fbfc"/>
          <ellipse id="Elipse_4511" data-name="Elipse 4511" cx="0.181" cy="0.181" rx="0.181" ry="0.181" transform="translate(0.554 7.484)" fill="#f9fbfc"/>
          <ellipse id="Elipse_4512" data-name="Elipse 4512" cx="0.181" cy="0.181" rx="0.181" ry="0.181" transform="translate(0 10.646)" fill="#f9fbfc"/>
          <ellipse id="Elipse_4513" data-name="Elipse 4513" cx="0.181" cy="0.181" rx="0.181" ry="0.181" transform="translate(1.534 14.289)" fill="#f9fbfc"/>
          <ellipse id="Elipse_4514" data-name="Elipse 4514" cx="0.181" cy="0.181" rx="0.181" ry="0.181" transform="translate(1.773 6.896)" fill="#f9fbfc"/>
          <ellipse id="Elipse_4515" data-name="Elipse 4515" cx="0.181" cy="0.181" rx="0.181" ry="0.181" transform="translate(3.788 12.252)" fill="#f9fbfc"/>
          <ellipse id="Elipse_4516" data-name="Elipse 4516" cx="0.181" cy="0.181" rx="0.181" ry="0.181" transform="translate(3.788 7.923)" fill="#f9fbfc"/>
          <ellipse id="Elipse_4517" data-name="Elipse 4517" cx="0.181" cy="0.181" rx="0.181" ry="0.181" transform="translate(5.651 7.426)" fill="#f9fbfc"/>
          <ellipse id="Elipse_4518" data-name="Elipse 4518" cx="0.181" cy="0.181" rx="0.181" ry="0.181" transform="translate(6.984 7.676)" fill="#f9fbfc"/>
          <ellipse id="Elipse_4519" data-name="Elipse 4519" cx="0.181" cy="0.181" rx="0.181" ry="0.181" transform="translate(7.866 10.047)" fill="#f9fbfc"/>
          <ellipse id="Elipse_4520" data-name="Elipse 4520" cx="0.181" cy="0.181" rx="0.181" ry="0.181" transform="translate(10.647 11.996)" fill="#f9fbfc"/>
        </g>
      </g>
      <g id="Grupo_86880" data-name="Grupo 86880" transform="translate(53.084 101.759)">
        <path id="Trazado_149128" data-name="Trazado 149128" d="M4379.841,2001.217" transform="translate(-4374.13 -1988.225)" fill="#98b6d8"/>
        <path id="Trazado_149129" data-name="Trazado 149129" d="M4377.945,2006.511h0a4.81,4.81,0,0,0-.729,2.7l.126,3.923-3.574,6.222.526.613,5.3-5.85,1.641-5.725h0l.021,1.477,3.1,10.833.806-.063-.514-13.9" transform="translate(-4373.336 -1988.918)" fill="#20449b"/>
        <path id="Trazado_149130" data-name="Trazado 149130" d="M4380.472,2008.023l-.908,1.994-.513,3.814-3.1,3.76" transform="translate(-4373.621 -1989.116)" fill="none" stroke="#f9fbfc" stroke-miterlimit="10" stroke-width="0.05"/>
        <ellipse id="Elipse_4521" data-name="Elipse 4521" cx="0.181" cy="0.181" rx="0.181" ry="0.181" transform="translate(6.657 18.798)" fill="#f9fbfc"/>
        <ellipse id="Elipse_4522" data-name="Elipse 4522" cx="0.181" cy="0.181" rx="0.181" ry="0.181" transform="translate(5.796 20.673)" fill="#f9fbfc"/>
        <ellipse id="Elipse_4523" data-name="Elipse 4523" cx="0.181" cy="0.181" rx="0.181" ry="0.181" transform="translate(5.249 24.534)" fill="#f9fbfc"/>
        <ellipse id="Elipse_4524" data-name="Elipse 4524" cx="0.181" cy="0.181" rx="0.181" ry="0.181" transform="translate(2.121 28.337)" fill="#f9fbfc"/>
        <path id="Trazado_149131" data-name="Trazado 149131" d="M4391.374,2005.8l.3.215s.272-.257.435-.185-.25.214-.118.256.685.058.662.235a.629.629,0,0,1-.485.51.884.884,0,0,1-.635-.221,1.452,1.452,0,0,0-.45-.17" transform="translate(-4375.601 -1988.825)" fill="#d8a7b5"/>
        <path id="Trazado_149132" data-name="Trazado 149132" d="M4380.615,2008.554l.116.351s.372-.047.459.105-.328.027-.246.139.519.451.4.58a.631.631,0,0,1-.693.126.886.886,0,0,1-.383-.554,1.45,1.45,0,0,0-.263-.4" transform="translate(-4374.151 -1989.185)" fill="#d8a7b5"/>
        <path id="Trazado_149133" data-name="Trazado 149133" d="M4386.911,2002.537l-.988-2.62a1.5,1.5,0,0,0-1.137-.944l-.229-.041-4.136-.106-.8.171a2.056,2.056,0,0,0-1.6,1.692l-.36,2.305a2.271,2.271,0,0,0,.257,1.455l.531.961,0,.094.051.005,1.21,2.189.68-.276-.543-1.778.49.05,4.813.043v-3.074l.476.715a2.505,2.505,0,0,0,1.009.876l2.836,1.356.334-.6Z" transform="translate(-4373.841 -1987.912)" fill="#86c3e0"/>
        <g id="Grupo_86876" data-name="Grupo 86876" transform="translate(6.58 9.174)">
          <path id="Trazado_149134" data-name="Trazado 149134" d="M4380.841,1998.564l1.484,1.022a1.408,1.408,0,0,0,.8.25h0a1.407,1.407,0,0,0,.936-.356l.915-.81v-1l-4.136-.848Z" transform="translate(-4380.841 -1996.825)" fill="#edb890"/>
        </g>
        <path id="Trazado_149135" data-name="Trazado 149135" d="M4378.779,1990.466l.415,4.425,2.736,2.744a1.624,1.624,0,0,0,1.152.479h0a1.627,1.627,0,0,0,1.16-.486h0a5.378,5.378,0,0,0,1.546-3.776v-3.245Z" transform="translate(-4373.991 -1986.819)" fill="#dbf3ff"/>
        <path id="Trazado_149136" data-name="Trazado 149136" d="M4378.062,1992.529s-1.082-2.985.007-4.4c.964-1.253,1.67-.875,1.67-.875a2.6,2.6,0,0,1,1.926-.984,3.349,3.349,0,0,1,1.5.435,5.821,5.821,0,0,1,2.463-.076,1.08,1.08,0,0,0-.29.894s1.476-.36,1.815.085c0,0-.538.366-.358,2.318a14.367,14.367,0,0,1-1.247,4.347l-.005-3.427a.748.748,0,0,0-.742-.747l-3.88-.032a1.065,1.065,0,0,0-1.064.914l-.28,2.952-.35-.017-.212-1.2S4378.295,1992.2,4378.062,1992.529Z" transform="translate(-4373.834 -1986.27)" fill="#011224"/>
        <ellipse id="Elipse_4525" data-name="Elipse 4525" cx="0.318" cy="0.62" rx="0.318" ry="0.62" transform="translate(7.663 6.1)" fill="#011224"/>
        <ellipse id="Elipse_4526" data-name="Elipse 4526" cx="0.318" cy="0.62" rx="0.318" ry="0.62" transform="translate(10.334 6.1)" fill="#011224"/>
        <path id="Trazado_149137" data-name="Trazado 149137" d="M4386.206,1992.525l-1.646-.452.056-.224,1.678.359Z" transform="translate(-4374.748 -1987)" fill="#011224"/>
        <path id="Trazado_149138" data-name="Trazado 149138" d="M4381.255,1992.547l1.6-.545-.037-.224-1.646.452Z" transform="translate(-4374.303 -1986.99)" fill="#011224"/>
        <rect id="Rectángulo_33381" data-name="Rectángulo 33381" width="0.875" height="0.286" transform="translate(8.898 7.998)" fill="#ce9dad"/>
        <path id="Trazado_149139" data-name="Trazado 149139" d="M4382.392,1996.526l.53.275h1.478l.463-.289.154.04-.8,1.108h-.981l-.987-.934Z" transform="translate(-4374.445 -1987.61)" fill="#ac286b"/>
        <path id="Trazado_149140" data-name="Trazado 149140" d="M4382.413,1996.526l.685.645h1.047l.739-.658-.463.289h-1.478Z" transform="translate(-4374.466 -1987.61)" fill="#fefcfd"/>
        <path id="Trazado_149141" data-name="Trazado 149141" d="M4379.089,1993.632s-.726-.469-.924-.279c-.151.146.015.938.251,1.215s.723.723.723.723" transform="translate(-4373.903 -1987.19)" fill="#dbf3ff"/>
        <g id="Grupo_86877" data-name="Grupo 86877" transform="translate(5.275 12.992)">
          <path id="Trazado_149142" data-name="Trazado 149142" d="M4380.614,2007.737l-.091-.275-.236-.726c-.095-.3-.206-.655-.325-1.029l-.366-1.182-.254-.839,0-.008v-.008l.061-.355.186-1.064.136-.751.053-.284-.04.287-.11.755c-.048.312-.1.678-.164,1.066l-.056.356v-.015l.258.837.357,1.185.305,1.035.209.734Z" transform="translate(-4379.339 -2001.217)" fill="#654ed8"/>
        </g>
        <path id="Trazado_149143" data-name="Trazado 149143" d="M4385.946,2022.777l.037.561s1.187.009,1.849-.034c.165-.01.3-.193.354-.276a.456.456,0,0,0-.463-.689c-.351.053-.3.48-.634.514-.267.028-.337-.14-.337-.14" transform="translate(-4374.929 -1990.988)" fill="#060b2f"/>
        <path id="Trazado_149144" data-name="Trazado 149144" d="M4373.7,2021.3l-.433.362s.693.962,1.118,1.47a.553.553,0,0,0,.433.124.455.455,0,0,0,.282-.781c-.249-.251-.564.041-.789-.209a.3.3,0,0,1-.085-.354" transform="translate(-4373.27 -1990.852)" fill="#060b2f"/>
        <g id="Grupo_86878" data-name="Grupo 86878" transform="translate(8.508 18.843)">
          <path id="Trazado_149145" data-name="Trazado 149145" d="M4383.285,2008.17l1.547,3.861,1.009,7.53" transform="translate(-4383.088 -2007.978)" fill="none" stroke="#f9fbfc" stroke-miterlimit="10" stroke-width="0.05"/>
          <ellipse id="Elipse_4527" data-name="Elipse 4527" cx="0.181" cy="0.181" rx="0.181" ry="0.181" fill="#f9fbfc"/>
          <ellipse id="Elipse_4528" data-name="Elipse 4528" cx="0.181" cy="0.181" rx="0.181" ry="0.181" transform="translate(1.572 3.912)" fill="#f9fbfc"/>
          <ellipse id="Elipse_4529" data-name="Elipse 4529" cx="0.181" cy="0.181" rx="0.181" ry="0.181" transform="translate(2.575 11.449)" fill="#f9fbfc"/>
        </g>
        <g id="Grupo_86879" data-name="Grupo 86879" transform="translate(4.3 4.812)">
          <path id="Trazado_149146" data-name="Trazado 149146" d="M4383.516,1991.908l.613,2.659.082,2.182-.653,2.378" transform="translate(-4378.912 -1991.819)" fill="none" stroke="#f9fbfc" stroke-miterlimit="10" stroke-width="0.05"/>
          <path id="Trazado_149147" data-name="Trazado 149147" d="M4385.094,2000.581l1.24.243.819,2.352,2.76,1.93" transform="translate(-4379.118 -1992.954)" fill="none" stroke="#f9fbfc" stroke-miterlimit="10" stroke-width="0.05"/>
          <path id="Trazado_149148" data-name="Trazado 149148" d="M4380.1,1999.992l-1.125.55-.576,3.145,1.535,3.631" transform="translate(-4378.242 -1992.877)" fill="none" stroke="#f9fbfc" stroke-miterlimit="10" stroke-width="0.05"/>
          <line id="Línea_231" data-name="Línea 231" y2="4.231" transform="translate(3.969 8.215)" fill="none" stroke="#f9fbfc" stroke-miterlimit="10" stroke-width="0.05"/>
          <ellipse id="Elipse_4530" data-name="Elipse 4530" cx="0.181" cy="0.181" rx="0.181" ry="0.181" transform="translate(4.424)" fill="#f9fbfc"/>
          <ellipse id="Elipse_4531" data-name="Elipse 4531" cx="0.181" cy="0.181" rx="0.181" ry="0.181" transform="translate(5.037 2.566)" fill="#f9fbfc"/>
          <ellipse id="Elipse_4532" data-name="Elipse 4532" cx="0.181" cy="0.181" rx="0.181" ry="0.181" transform="translate(5.118 4.748)" fill="#f9fbfc"/>
          <ellipse id="Elipse_4533" data-name="Elipse 4533" cx="0.181" cy="0.181" rx="0.181" ry="0.181" transform="translate(4.491 7.075)" fill="#f9fbfc"/>
          <ellipse id="Elipse_4534" data-name="Elipse 4534" cx="0.181" cy="0.181" rx="0.181" ry="0.181" transform="translate(0.554 7.484)" fill="#f9fbfc"/>
          <ellipse id="Elipse_4535" data-name="Elipse 4535" cx="0.181" cy="0.181" rx="0.181" ry="0.181" transform="translate(0 10.646)" fill="#f9fbfc"/>
          <ellipse id="Elipse_4536" data-name="Elipse 4536" cx="0.181" cy="0.181" rx="0.181" ry="0.181" transform="translate(1.534 14.289)" fill="#f9fbfc"/>
          <ellipse id="Elipse_4537" data-name="Elipse 4537" cx="0.181" cy="0.181" rx="0.181" ry="0.181" transform="translate(1.773 6.896)" fill="#f9fbfc"/>
          <ellipse id="Elipse_4538" data-name="Elipse 4538" cx="0.181" cy="0.181" rx="0.181" ry="0.181" transform="translate(3.788 12.252)" fill="#f9fbfc"/>
          <ellipse id="Elipse_4539" data-name="Elipse 4539" cx="0.181" cy="0.181" rx="0.181" ry="0.181" transform="translate(3.788 7.923)" fill="#f9fbfc"/>
          <ellipse id="Elipse_4540" data-name="Elipse 4540" cx="0.181" cy="0.181" rx="0.181" ry="0.181" transform="translate(5.651 7.426)" fill="#f9fbfc"/>
          <ellipse id="Elipse_4541" data-name="Elipse 4541" cx="0.181" cy="0.181" rx="0.181" ry="0.181" transform="translate(6.984 7.676)" fill="#f9fbfc"/>
          <ellipse id="Elipse_4542" data-name="Elipse 4542" cx="0.181" cy="0.181" rx="0.181" ry="0.181" transform="translate(7.866 10.047)" fill="#f9fbfc"/>
          <ellipse id="Elipse_4543" data-name="Elipse 4543" cx="0.181" cy="0.181" rx="0.181" ry="0.181" transform="translate(10.647 11.996)" fill="#f9fbfc"/>
        </g>
      </g>
      <g id="Grupo_86881" data-name="Grupo 86881" transform="translate(111.284 8.843)">
        <path id="Trazado_149151" data-name="Trazado 149151" d="M0,0H148.474V122.3H0Z" transform="translate(2.062 1.923)" fill="none" stroke="#baedfc" stroke-width="1"/>
        <path id="Trazado_149153" data-name="Trazado 149153" d="M2.247,0A2.247,2.247,0,1,1,0,2.247,2.247,2.247,0,0,1,2.247,0Z" transform="translate(148.289)" fill="#fa575d"/>
        <path id="Trazado_149152" data-name="Trazado 149152" d="M2.247,0A2.247,2.247,0,1,1,0,2.247,2.247,2.247,0,0,1,2.247,0Z" transform="translate(0)" fill="#fa575d"/>
        <path id="Trazado_149155" data-name="Trazado 149155" d="M2.247,0A2.247,2.247,0,1,1,0,2.247,2.247,2.247,0,0,1,2.247,0Z" transform="translate(148.289 122.163)" fill="#fa575d"/>
        <path id="Trazado_149154" data-name="Trazado 149154" d="M2.247,0A2.247,2.247,0,1,1,0,2.247,2.247,2.247,0,0,1,2.247,0Z" transform="translate(0 122.163)" fill="#fa575d"/>
      </g>
    </g>
    <g id="Grupo_86898" data-name="Grupo 86898" transform="translate(1314.176 326.574)">
      <g id="Grupo_86895" data-name="Grupo 86895" transform="translate(0.001 14.377)">
        <g id="Grupo_86894" data-name="Grupo 86894" transform="translate(0 0)" clip-path="url(#clip-path-2)">
          <path id="Trazado_149166" data-name="Trazado 149166" d="M4868.071,1934.879a43.126,43.126,0,1,0,38.829-47.032A43.126,43.126,0,0,0,4868.071,1934.879Z" transform="translate(-4872.142 -1887.649)" fill="#064a93"/>
          <path id="Trazado_149167" data-name="Trazado 149167" d="M5074.893,1884.2c-1.821,3.77,2.46,9.606,9.562,13.037s14.335,3.156,16.155-.614-2.46-9.605-9.562-13.036S5076.713,1880.427,5074.893,1884.2Z" transform="translate(-5028.728 -1882.746)" fill="#064a93" style="mix-blend-mode: multiply;isolation: isolate"/>
          <path id="Trazado_149168" data-name="Trazado 149168" d="M4877.635,1958.294c-9.395,10.424-5.214,14.085,3.679,28.045,6.916,10.858,37.418,23.58,55.744,27.327,9.677,1.979,14.339-5.52,21.2-12.736C4911.028,1997.187,4885.6,1968.917,4877.635,1958.294Z" transform="translate(-4875.505 -1941.192)" fill="#064a93" style="mix-blend-mode: soft-light;isolation: isolate"/>
        </g>
      </g>
      <path id="Trazado_149170" data-name="Trazado 149170" d="M5091.051,1845.36l8.295-13.836c1.477-2.466,9.2-4.193,11.665-2.715l2.437,1.736c2.465,1.479,3.962,8.457,2.486,10.923l-8.044,13.418C5100.26,1855.982,5093.079,1850.724,5091.051,1845.36Z" transform="translate(-5041.291 -1828.262)" fill="#f0fcff"/>
      <g id="Grupo_86896" data-name="Grupo 86896" transform="translate(56.167 6.002)" style="mix-blend-mode: multiply;isolation: isolate">
        <path id="Trazado_149171" data-name="Trazado 149171" d="M5143.714,1878.355c-.37.616-.37,1.3,0,1.524s.976-.1,1.345-.717l5.378-8.964c.37-.616.37-1.3,0-1.524s-.975.1-1.344.717Z" transform="translate(-5137.161 -1864.839)" fill="#86c3e0"/>
        <path id="Trazado_149172" data-name="Trazado 149172" d="M5130.754,1870.579c-.37.616-.37,1.3,0,1.524s.975-.1,1.344-.717l5.379-8.964c.37-.616.37-1.3,0-1.524s-.974.1-1.344.717Z" transform="translate(-5127.34 -1858.946)" fill="#86c3e0"/>
        <path id="Trazado_149173" data-name="Trazado 149173" d="M5117.794,1862.8c-.37.616-.37,1.3,0,1.524s.975-.1,1.345-.717l5.377-8.964c.37-.617.37-1.3,0-1.524s-.975.1-1.344.717Z" transform="translate(-5117.517 -1853.053)" fill="#86c3e0"/>
      </g>
      <path id="Trazado_149174" data-name="Trazado 149174" d="M5169.383,1907.531h.058c0,.33,0,.66,0,.99l0,.115h-.058Z" transform="translate(-5100.66 -1888.34)" fill="#e0effe"/>
      <path id="Trazado_149175" data-name="Trazado 149175" d="M5214.68,2483.757a.651.651,0,0,1,.58,0Z" transform="translate(-5134.991 -2325.018)" fill="#fefefe"/>
      <path id="Trazado_149176" data-name="Trazado 149176" d="M5188.184,1888.1a.262.262,0,0,1-.348,0Z" transform="translate(-5114.646 -1873.615)" fill="#fefefe"/>
      <path id="Trazado_149177" data-name="Trazado 149177" d="M5218.766,1958.389c0-1.248.013-2.5-.006-3.745q-.026-1.6-.118-3.208c-.056-.989-.124-1.978-.234-2.961-.136-1.22-.272-2.441-.445-3.659q-.543-3.812-1.441-7.555c-.417-1.743-.88-3.472-1.416-5.182-.683-2.182-1.425-4.344-2.274-6.468a61.573,61.573,0,0,0-2.825-6.064,64.093,64.093,0,0,0-3.981-6.479q-1.433-2.063-3.025-4.01c-.892-1.087-1.821-2.142-2.764-3.185q-1.565-1.733-3.251-3.344c-1.319-1.254-2.672-2.472-4.073-3.637q-2.677-2.227-5.527-4.221c-1.5-1.049-3.034-2.052-4.606-2.993q-2.658-1.594-5.454-2.937a5.182,5.182,0,0,0-1.951-.589c-.023,0-.046-.031-.069-.048h-.929a.262.262,0,0,1-.348,0h-.116c-.031.181-.2.137-.3.16a5.013,5.013,0,0,0-1.829.824,4.943,4.943,0,0,0-1.582,1.8,6.351,6.351,0,0,0-.464,1.1q-.058.406-.117.812,0,.495,0,.99c0,.038,0,.077,0,.115a4.117,4.117,0,0,0,.636,1.977,4.462,4.462,0,0,0,1.669,1.839,27.773,27.773,0,0,0,2.476,1.262,64.979,64.979,0,0,1,5.671,3.373,70.142,70.142,0,0,1,5.895,4.38c1.525,1.263,2.987,2.594,4.407,3.972,1.1,1.063,2.116,2.2,3.128,3.339q1.335,1.507,2.548,3.11a57.229,57.229,0,0,1,3.993,6.03,51.264,51.264,0,0,1,3.272,6.841q1.107,2.831,1.968,5.752a71.983,71.983,0,0,1,2.3,10.459c.236,1.689.434,3.38.555,5.079q.134,1.861.172,3.728c.019.975.023,1.95-.029,2.927-.05.914-.071,1.831-.122,2.746q-.087,1.588-.256,3.169-.224,2.064-.558,4.117c-.314,1.94-.692,3.866-1.152,5.776a87.72,87.72,0,0,1-2.963,9.739c-1.059,2.885-2.266,5.706-3.591,8.476-.88,1.84-1.827,3.646-2.816,5.429q-1.384,2.5-2.9,4.915-2.319,3.727-4.921,7.26c-1.964,2.663-4.019,5.254-6.2,7.743-1.121,1.278-2.274,2.523-3.434,3.764-.851.911-1.823,1.7-2.632,2.652a4.029,4.029,0,0,0-1.04,2.371,4.324,4.324,0,0,0,.019,2.094,4,4,0,0,0,.75,1.686,3.208,3.208,0,0,0,.814.986.156.156,0,0,0,.029.049,5.221,5.221,0,0,0,2.824,1.286c.09.01.2-.028.222.116h.174a.653.653,0,0,1,.58,0h.174c.007-.083.058-.11.136-.116a4.851,4.851,0,0,0,3.091-1.474c1.387-1.359,2.775-2.716,4.07-4.166.808-.906,1.624-1.8,2.424-2.716s1.579-1.841,2.346-2.78c1.016-1.244,2.005-2.511,2.976-3.791q1.946-2.566,3.755-5.232,2.488-3.677,4.727-7.514c1.105-1.9,2.15-3.839,3.165-5.79.7-1.354,1.341-2.741,1.983-4.126s1.25-2.78,1.822-4.192c.991-2.449,1.9-4.928,2.7-7.447.687-2.158,1.294-4.336,1.84-6.533.208-.84.415-1.681.582-2.53q.4-2.02.74-4.052c.183-1.088.339-2.181.482-3.276.1-.8.14-1.608.247-2.407.14-1.049.188-2.105.267-3.158a14.94,14.94,0,0,0,.073-2c-.006-.091-.03-.2.114-.225v-.116C5218.72,1958.623,5218.766,1958.5,5218.766,1958.389Z" transform="translate(-5100.84 -1873.615)" fill="url(#linear-gradient-35)"/>
      <g id="Grupo_86897" data-name="Grupo 86897" transform="translate(5.785 145.82)">
        <g transform="matrix(1, 0, 0, 1, -467.12, -403.39)" filter="url(#Trazado_149178)">
          <path id="Trazado_149178-2" data-name="Trazado 149178" d="M5013.478,2501.427c0,1.126-1.764,2.048-3.92,2.048h-76.541c-2.157,0-3.921-.922-3.921-2.048s1.765-2.049,3.921-2.049h76.541C5011.714,2499.378,5013.478,2500.3,5013.478,2501.427Z" transform="translate(-4457.2 -2079.34)" fill="#011224"/>
        </g>
        <path id="Trazado_149179" data-name="Trazado 149179" d="M4983.284,2435.458a9.01,9.01,0,0,1-.7,3.668c-.386.652-2.751,1.185-3.137,1.185a10.05,10.05,0,0,1-2.27-.531c-.864-.292-1.568-2.957-1.568-4.323a9.008,9.008,0,0,1,.7-3.667c.387-.652,2.75-1.185,3.137-1.185a10.043,10.043,0,0,1,2.271.531C4982.579,2431.428,4983.284,2434.094,4983.284,2435.458Z" transform="translate(-4959.581 -2430.606)" fill="#f0fcff"/>
        <rect id="Rectángulo_33385" data-name="Rectángulo 33385" width="91.78" height="12.842" rx="6.421" transform="translate(0 3.807)" fill="#064a93"/>
      </g>
    </g>
    <g id="Grupo_86918" data-name="Grupo 86918" transform="translate(986.855 464.463)">
      <g id="Grupo_86888" data-name="Grupo 86888" transform="translate(35.283 19.893)">
        <g id="Grupo_86887" data-name="Grupo 86887" transform="translate(0 0)">
          <g transform="matrix(1, 0, 0, 1, -169.3, -415.35)" filter="url(#Trazado_149158)">
            <path id="Trazado_149158-2" data-name="Trazado 149158" d="M4370.537,2195.27h154.505c2.228,0,4.036.443,4.036.99l12.183,32.32c0,.779-2.072,1.409-4.629,1.409h-177.24c-2.557,0-4.629-.631-4.629-1.409l11.739-32.32C4366.5,2195.713,4368.309,2195.27,4370.537,2195.27Z" transform="translate(-4185.46 -1779.84)" fill="#2f94ff"/>
          </g>
          <path id="Trazado_149159" data-name="Trazado 149159" d="M4384.671,2195.27h-14.146c-2.222,0-4.023.444-4.023.993l-11.739,32.312c0,.781,2.065,1.414,4.614,1.414h16.229Z" transform="translate(-4354.762 -2195.195)" fill="#19385f"/>
          <g id="Grupo_86885" data-name="Grupo 86885" transform="translate(22.261)">
            <rect id="Rectángulo_33382" data-name="Rectángulo 33382" width="35.829" height="0.599" transform="matrix(0.247, -0.969, 0.969, 0.247, 0, 34.722)" fill="#011224"/>
          </g>
          <g id="Grupo_86886" data-name="Grupo 86886" transform="translate(10.044 11.465)" opacity="0.5" style="mix-blend-mode: multiply;isolation: isolate">
            <path id="Trazado_149160" data-name="Trazado 149160" d="M4371.555,2214.122c-3.354,0-5.98-1.448-5.98-3.3s2.625-3.3,5.98-3.3,5.978,1.447,5.978,3.3S4374.907,2214.122,4371.555,2214.122Zm0-5.812c-2.819,0-5.2,1.153-5.2,2.516s2.38,2.516,5.2,2.516,5.2-1.152,5.2-2.516S4374.372,2208.31,4371.555,2208.31Z" transform="translate(-4365.575 -2207.53)" fill="#011224"/>
          </g>
        </g>
        <path id="Trazado_149161" data-name="Trazado 149161" d="M4539.411,2233.416h-182.58a1.864,1.864,0,0,1-1.864-1.865h186.309A1.864,1.864,0,0,1,4539.411,2233.416Z" transform="translate(-4354.777 -2197.772)" fill="url(#linear-gradient-36)"/>
      </g>
      <g id="Grupo_86892" data-name="Grupo 86892" transform="translate(0.001 0)">
        <g id="Grupo_86891" data-name="Grupo 86891" transform="translate(0 0)">
          <g transform="matrix(1, 0, 0, 1, -134.02, -395.46)" filter="url(#Trazado_149162)">
            <path id="Trazado_149162-2" data-name="Trazado 149162" d="M4404.726,2186.8v-11.933c-16.46,0-47.735,2.252-57.2,2.983v5.967C4356.991,2184.551,4388.265,2186.8,4404.726,2186.8Z" transform="translate(-4206.24 -1779.41)" fill="#19385f"/>
          </g>
          <g transform="matrix(1, 0, 0, 1, -134.02, -395.46)" filter="url(#Trazado_149163)">
            <path id="Trazado_149163-2" data-name="Trazado 149163" d="M4409.1,2186.8v-11.933c16.459,0,47.734.417,57.2,1.509v8.915C4456.834,2186.386,4425.56,2186.8,4409.1,2186.8Z" transform="translate(-4210.61 -1779.41)" fill="#2f94ff"/>
          </g>
          <rect id="Rectángulo_33383" data-name="Rectángulo 33383" width="4.073" height="4.072" transform="translate(3.198 3.931)" fill="#011224"/>
          <path id="Trazado_149164" data-name="Trazado 149164" d="M4470.672,2178.034h3.832a3.028,3.028,0,0,1,3.029,3.027h0a3.028,3.028,0,0,1-3.029,3.027h-3.832Z" transform="translate(-4349.003 -2175.095)" fill="#19385f"/>
          <g id="Grupo_86889" data-name="Grupo 86889" transform="translate(0 5.049)">
            <path id="Trazado_149165" data-name="Trazado 149165" d="M4339.7,2181.223c0,.507,1.432.918,3.2.918V2180.3C4341.131,2180.3,4339.7,2180.716,4339.7,2181.223Z" transform="translate(-4339.699 -2180.305)" fill="#011224"/>
          </g>
          <g id="Grupo_86890" data-name="Grupo 86890" transform="translate(66.668)">
            <rect id="Rectángulo_33384" data-name="Rectángulo 33384" width="0.424" height="11.943" fill="#011224"/>
          </g>
        </g>
      </g>
    </g>
    <g id="Grupo_86914" data-name="Grupo 86914" transform="translate(895.66 292.238)">
      <g id="Grupo_86903" data-name="Grupo 86903" transform="translate(0 0)">
        <path id="Trazado_149183" data-name="Trazado 149183" d="M3558.3,3292.2c.617-5.365,1.656-10.919,4.668-15.476,3.458-5.231,9-8.42,13.859-12.229,16.239-12.726,25.831-35.682,20.622-55.083-1.131-4.212-3.951-8.835-8.192-8.195-3.1.468-5.287,3.557-7.2,6.271-9.289,13.147-21.507,23.711-31.951,35.894s-19.452,27.094-19.7,42.907c-.161,10.48,3.561,20.315,8.177,29.242s10.183,17.268,14.185,26.552c3.227,7.485,5.442,15.855,10.659,22.068,1.235,1.471,4.914,6.3,7.1,4.356,1.656-1.467.348-6.177-.174-7.708-2.364-6.945-5.935-13.236-8.022-20.383a120.988,120.988,0,0,1-4.277-22.337A123.55,123.55,0,0,1,3558.3,3292.2Z" transform="translate(-3519.089 -3201.155)" fill="#fa575d"/>
        <g id="Grupo_86899" data-name="Grupo 86899" transform="translate(28.012 33.947)">
          <path id="Trazado_149184" data-name="Trazado 149184" d="M3617.76,3467.289l.808-.439a312.63,312.63,0,0,1-30.327-81.272c-1.193-5.344-2.292-11.032-1.5-16.668,1.517-10.816,9.737-20.011,16.341-27.4,7.51-8.4,14.932-17.5,15.993-28.158l-.915-.091c-1.034,10.386-8.354,19.347-15.763,27.635-6.688,7.482-15.011,16.793-16.567,27.886-.812,5.788.3,11.57,1.514,17A313.543,313.543,0,0,0,3617.76,3467.289Z" transform="translate(-3585.552 -3313.261)" fill="#fff"/>
        </g>
        <path id="Trazado_149185" data-name="Trazado 149185" d="M3530.926,3429.6l-20.16-21.491a106.652,106.652,0,0,1-11.6-13.856c-3.311-5.018-5.765-10.706-6.087-16.521-.349-6.292,1.786-12.276,2.306-18.5.475-5.7-.411-11.508-.507-17.263s.712-11.743,4.123-16.164,10.022-6.692,15.278-3.874c5.478,2.936,7.431,10.007,6.737,15.911s-3.346,11.281-4.491,17.085a37.011,37.011,0,0,0,6.569,28.382c4.548,6.266,11.05,11.322,14.1,18.356,2.125,4.9,2.347,10.277,4.01,15.319,1.511,4.581,4.17,8.764,6.158,13.192s3.306,9.424,1.929,13.847c-.693,2.226-2.773,5.332-5.253,5.875-2.57.563-3.059-1.788-3.591-3.878C3538.732,3439.274,3535.8,3434.8,3530.926,3429.6Z" transform="translate(-3493.042 -3284.498)" fill="#ff9599"/>
        <g id="Grupo_86900" data-name="Grupo 86900" transform="translate(12.283 54.452)">
          <path id="Trazado_149186" data-name="Trazado 149186" d="M3577.326,3512.8l.484-.371c-3.393-4.425-3.869-10.08-4.329-15.549-.172-2.051-.351-4.171-.679-6.2-1.745-10.787-8.192-20.6-14.269-28.771-1.233-1.66-2.512-3.336-3.748-4.959-5.255-6.892-10.687-14.019-14.295-21.906-7.965-17.415-6.553-36.864-5.307-54.023l-.608-.044c-1.251,17.233-2.669,36.765,5.361,54.322,3.635,7.948,9.089,15.1,14.364,22.022,1.235,1.621,2.513,3.3,3.744,4.952,6.032,8.115,12.432,17.848,14.156,28.505.325,2.01.5,4.119.674,6.158C3573.342,3502.49,3573.825,3508.235,3577.326,3512.8Z" transform="translate(-3533.604 -3380.974)" fill="#fff"/>
        </g>
        <path id="Trazado_149187" data-name="Trazado 149187" d="M3626.149,3487.833c-1.911-7-3.771-14.661-.557-21.093,3.674-7.35,13.055-11.07,16.539-18.5,1.185-2.529,1.63-5.395,3.285-7.675,2.339-3.221,6.574-4.631,10.157-6.632,11.315-6.322,16.618-20.5,12.1-32.341a11.433,11.433,0,0,0-3.644-5.334c-3.308-2.427-8.242-1.836-11.591.356s-5.458,5.629-7.391,9c-5.251,9.145-10.465,19.094-20.151,24.2-4.262,2.247-9.418,3.591-12.21,7.332-3.035,4.067-2.267,9.649-.909,14.546s3.2,10,1.917,14.841c-.97,3.674-3.671,6.815-4.233,10.573-.458,3.06.556,6.167,1.557,9.152q1.367,4.072,2.733,8.146c1.9,5.664,6.432,18.189,15.21,16.792,4.209-.67,2-5.736,1.282-8.373Q3628.2,3495.324,3626.149,3487.833Z" transform="translate(-3574.127 -3336.08)" fill="#ffa5a8"/>
        <g id="Grupo_86901" data-name="Grupo 86901" transform="translate(45.221 78.876)">
          <path id="Trazado_149188" data-name="Trazado 149188" d="M3658.184,3569.2l.569-.327c-4.147-7.173-8.435-14.59-11.472-22.345-3.394-8.664-4.76-16.744-4.063-24.014.235-2.454.716-4.921,1.18-7.307.337-1.734.687-3.528.941-5.31.22-1.54.386-3.143.548-4.694.646-6.223,1.315-12.658,5.583-17.2,3-3.2,7.392-4.981,11.635-6.7l.04-.017c4.737-1.922,8.891-3.781,11.761-7.074s4.141-8.8.883-12.574l-.5.43c3.017,3.49,1.8,8.641-.88,11.714-2.776,3.184-6.857,5.007-11.514,6.9l-.039.016c-4.308,1.748-8.763,3.556-11.867,6.862-4.418,4.708-5.1,11.255-5.757,17.586-.16,1.544-.326,3.141-.544,4.669-.252,1.765-.6,3.55-.936,5.277-.468,2.4-.951,4.884-1.19,7.37-.707,7.374.674,15.554,4.105,24.315C3649.725,3554.572,3654.026,3562.01,3658.184,3569.2Z" transform="translate(-3642.384 -3461.633)" fill="#fff"/>
        </g>
        <path id="Trazado_149189" data-name="Trazado 149189" d="M3500.322,3488.54c1.8,3.762,1.713,8.155,1.026,12.267s-1.935,8.129-2.359,12.276a31.931,31.931,0,0,0,15.32,30.113c6.6,3.849,14.91,5.518,19.477,11.646,1.693,2.273,2.872,5.152,5.394,6.443,2.7,1.382,5.958.439,8.835-.525a5.377,5.377,0,0,0,2.919-1.749c.936-1.38.347-3.36-.844-4.528a12.214,12.214,0,0,0-4.385-2.325c-6.9-2.626-13.52-6.614-17.813-12.62s-5.876-14.284-2.673-20.936c1.743-3.621,4.751-6.57,6.162-10.333,1.954-5.212.459-11.245-2.694-15.833s-7.768-7.952-12.482-10.911c-4.635-2.909-9.683-5.584-15.151-5.819-2.691-.116-8.507.991-7.675,4.906.352,1.658,2.077,2.363,3.266,3.319A13.325,13.325,0,0,1,3500.322,3488.54Z" transform="translate(-3493.221 -3392.564)" fill="#fa575d"/>
        <g id="Grupo_86902" data-name="Grupo 86902" transform="translate(8.88 90.467)">
          <path id="Trazado_149190" data-name="Trazado 149190" d="M3581.843,3596.371c.224-5.613-3.005-11.58-8.861-16.374a79.244,79.244,0,0,0-8.7-5.918c-2.392-1.475-4.865-3-7.148-4.705-5.994-4.476-11.468-10.736-17.228-19.7-2.078-3.234-4.33-7.03-4.737-11.167a28.484,28.484,0,0,1,.61-7.519c.217-1.27.441-2.583.573-3.883a28.773,28.773,0,0,0-13.733-27.195l-.248.418a28.66,28.66,0,0,1,13.5,26.728c-.129,1.284-.352,2.588-.568,3.85a28.863,28.863,0,0,0-.615,7.648c.419,4.245,2.7,8.1,4.812,11.382,5.792,9.013,11.3,15.312,17.346,19.825,2.3,1.717,4.783,3.248,7.184,4.729a78.971,78.971,0,0,1,8.65,5.88c5.736,4.7,8.9,10.519,8.682,15.978Z" transform="translate(-3522.367 -3499.914)" fill="#fff"/>
        </g>
      </g>
      <g transform="matrix(1, 0, 0, 1, -42.82, -223.24)" filter="url(#Trazado_149180)">
        <path id="Trazado_149180-2" data-name="Trazado 149180" d="M3540.136,3717.415c0,18.239,11.8,51.37,36.117,51.37,24.436,0,36.121-33.131,36.121-51.37,0-4.561-16.171-8.256-36.121-8.256S3540.136,3712.854,3540.136,3717.415Z" transform="translate(-3482.75 -3332.09)" fill="url(#linear-gradient-37)"/>
      </g>
      <path id="Trazado_149181" data-name="Trazado 149181" d="M3540.136,3717.415c0,4.561,16.168,8.256,36.117,8.256s36.121-3.7,36.121-8.256-16.171-8.256-36.121-8.256S3540.136,3712.854,3540.136,3717.415Z" transform="translate(-3525.571 -3555.328)" fill="url(#linear-gradient-38)"/>
      <path id="Trazado_149182" data-name="Trazado 149182" d="M3582.5,3727.708c19.119,0,33.405-3.533,33.405-6.692s-14.286-6.692-33.405-6.692-33.4,3.533-33.4,6.692S3563.388,3727.708,3582.5,3727.708Z" transform="translate(-3531.824 -3558.931)" fill="#011224"/>
      <g id="Enmascarar_grupo_49" data-name="Enmascarar grupo 49" transform="translate(17.281 150.127)" clip-path="url(#clip-path-3)">
        <g id="Grupo_86904" data-name="Grupo 86904" transform="translate(-16.975 -150.127)">
          <path id="Trazado_149183-2" data-name="Trazado 149183" d="M3558.3,3292.2c.617-5.365,1.656-10.919,4.668-15.476,3.458-5.231,9-8.42,13.859-12.229,16.239-12.726,25.831-35.682,20.622-55.083-1.131-4.212-3.951-8.835-8.192-8.195-3.1.468-5.287,3.557-7.2,6.271-9.289,13.147-21.507,23.711-31.951,35.894s-19.452,27.094-19.7,42.907c-.161,10.48,3.561,20.315,8.177,29.242s10.183,17.268,14.185,26.552c3.227,7.485,5.442,15.855,10.659,22.068,1.235,1.471,4.914,6.3,7.1,4.356,1.656-1.467.348-6.177-.174-7.708-2.364-6.945-5.935-13.236-8.022-20.383a120.988,120.988,0,0,1-4.277-22.337A123.55,123.55,0,0,1,3558.3,3292.2Z" transform="translate(-3519.089 -3201.155)" fill="#f0f"/>
          <g id="Grupo_86899-2" data-name="Grupo 86899" transform="translate(28.012 33.947)">
            <path id="Trazado_149184-2" data-name="Trazado 149184" d="M3617.76,3467.289l.808-.439a312.63,312.63,0,0,1-30.327-81.272c-1.193-5.344-2.292-11.032-1.5-16.668,1.517-10.816,9.737-20.011,16.341-27.4,7.51-8.4,14.932-17.5,15.993-28.158l-.915-.091c-1.034,10.386-8.354,19.347-15.763,27.635-6.688,7.482-15.011,16.793-16.567,27.886-.812,5.788.3,11.57,1.514,17A313.543,313.543,0,0,0,3617.76,3467.289Z" transform="translate(-3585.552 -3313.261)" fill="#fff"/>
          </g>
          <path id="Trazado_149185-2" data-name="Trazado 149185" d="M3530.926,3429.6l-20.16-21.491a106.652,106.652,0,0,1-11.6-13.856c-3.311-5.018-5.765-10.706-6.087-16.521-.349-6.292,1.786-12.276,2.306-18.5.475-5.7-.411-11.508-.507-17.263s.712-11.743,4.123-16.164,10.022-6.692,15.278-3.874c5.478,2.936,7.431,10.007,6.737,15.911s-3.346,11.281-4.491,17.085a37.011,37.011,0,0,0,6.569,28.382c4.548,6.266,11.05,11.322,14.1,18.356,2.125,4.9,2.347,10.277,4.01,15.319,1.511,4.581,4.17,8.764,6.158,13.192s3.306,9.424,1.929,13.847c-.693,2.226-2.773,5.332-5.253,5.875-2.57.563-3.059-1.788-3.591-3.878C3538.732,3439.274,3535.8,3434.8,3530.926,3429.6Z" transform="translate(-3493.042 -3284.498)" fill="#ff9599"/>
          <g id="Grupo_86900-2" data-name="Grupo 86900" transform="translate(12.283 54.452)">
            <path id="Trazado_149186-2" data-name="Trazado 149186" d="M3577.326,3512.8l.484-.371c-3.393-4.425-3.869-10.08-4.329-15.549-.172-2.051-.351-4.171-.679-6.2-1.745-10.787-8.192-20.6-14.269-28.771-1.233-1.66-2.512-3.336-3.748-4.959-5.255-6.892-10.687-14.019-14.295-21.906-7.965-17.415-6.553-36.864-5.307-54.023l-.608-.044c-1.251,17.233-2.669,36.765,5.361,54.322,3.635,7.948,9.089,15.1,14.364,22.022,1.235,1.621,2.513,3.3,3.744,4.952,6.032,8.115,12.432,17.848,14.156,28.505.325,2.01.5,4.119.674,6.158C3573.342,3502.49,3573.825,3508.235,3577.326,3512.8Z" transform="translate(-3533.604 -3380.974)" fill="#fff"/>
          </g>
          <path id="Trazado_149187-2" data-name="Trazado 149187" d="M3626.149,3487.833c-1.911-7-3.771-14.661-.557-21.093,3.674-7.35,13.055-11.07,16.539-18.5,1.185-2.529,1.63-5.395,3.285-7.675,2.339-3.221,6.574-4.631,10.157-6.632,11.315-6.322,16.618-20.5,12.1-32.341a11.433,11.433,0,0,0-3.644-5.334c-3.308-2.427-8.242-1.836-11.591.356s-5.458,5.629-7.391,9c-5.251,9.145-10.465,19.094-20.151,24.2-4.262,2.247-9.418,3.591-12.21,7.332-3.035,4.067-2.267,9.649-.909,14.546s3.2,10,1.917,14.841c-.97,3.674-3.671,6.815-4.233,10.573-.458,3.06.556,6.167,1.557,9.152q1.367,4.072,2.733,8.146c1.9,5.664,6.432,18.189,15.21,16.792,4.209-.67,2-5.736,1.282-8.373Q3628.2,3495.324,3626.149,3487.833Z" transform="translate(-3574.127 -3336.08)" fill="#ffa5a8"/>
          <g id="Grupo_86901-2" data-name="Grupo 86901" transform="translate(45.221 78.876)">
            <path id="Trazado_149188-2" data-name="Trazado 149188" d="M3658.184,3569.2l.569-.327c-4.147-7.173-8.435-14.59-11.472-22.345-3.394-8.664-4.76-16.744-4.063-24.014.235-2.454.716-4.921,1.18-7.307.337-1.734.687-3.528.941-5.31.22-1.54.386-3.143.548-4.694.646-6.223,1.315-12.658,5.583-17.2,3-3.2,7.392-4.981,11.635-6.7l.04-.017c4.737-1.922,8.891-3.781,11.761-7.074s4.141-8.8.883-12.574l-.5.43c3.017,3.49,1.8,8.641-.88,11.714-2.776,3.184-6.857,5.007-11.514,6.9l-.039.016c-4.308,1.748-8.763,3.556-11.867,6.862-4.418,4.708-5.1,11.255-5.757,17.586-.16,1.544-.326,3.141-.544,4.669-.252,1.765-.6,3.55-.936,5.277-.468,2.4-.951,4.884-1.19,7.37-.707,7.374.674,15.554,4.105,24.315C3649.725,3554.572,3654.026,3562.01,3658.184,3569.2Z" transform="translate(-3642.384 -3461.633)" fill="#fff"/>
          </g>
          <path id="Trazado_149189-2" data-name="Trazado 149189" d="M3500.322,3488.54c1.8,3.762,1.713,8.155,1.026,12.267s-1.935,8.129-2.359,12.276a31.931,31.931,0,0,0,15.32,30.113c6.6,3.849,14.91,5.518,19.477,11.646,1.693,2.273,2.872,5.152,5.394,6.443,2.7,1.382,5.958.439,8.835-.525a5.377,5.377,0,0,0,2.919-1.749c.936-1.38.347-3.36-.844-4.528a12.214,12.214,0,0,0-4.385-2.325c-6.9-2.626-13.52-6.614-17.813-12.62s-5.876-14.284-2.673-20.936c1.743-3.621,4.751-6.57,6.162-10.333,1.954-5.212.459-11.245-2.694-15.833s-7.768-7.952-12.482-10.911c-4.635-2.909-9.683-5.584-15.151-5.819-2.691-.116-8.507.991-7.675,4.906.352,1.658,2.077,2.363,3.266,3.319A13.325,13.325,0,0,1,3500.322,3488.54Z" transform="translate(-3493.221 -3392.564)" fill="#fa575d"/>
          <g id="Grupo_86902-2" data-name="Grupo 86902" transform="translate(8.88 90.467)">
            <path id="Trazado_149190-2" data-name="Trazado 149190" d="M3581.843,3596.371c.224-5.613-3.005-11.58-8.861-16.374a79.244,79.244,0,0,0-8.7-5.918c-2.392-1.475-4.865-3-7.148-4.705-5.994-4.476-11.468-10.736-17.228-19.7-2.078-3.234-4.33-7.03-4.737-11.167a28.484,28.484,0,0,1,.61-7.519c.217-1.27.441-2.583.573-3.883a28.773,28.773,0,0,0-13.733-27.195l-.248.418a28.66,28.66,0,0,1,13.5,26.728c-.129,1.284-.352,2.588-.568,3.85a28.863,28.863,0,0,0-.615,7.648c.419,4.245,2.7,8.1,4.812,11.382,5.792,9.013,11.3,15.312,17.346,19.825,2.3,1.717,4.783,3.248,7.184,4.729a78.971,78.971,0,0,1,8.65,5.88c5.736,4.7,8.9,10.519,8.682,15.978Z" transform="translate(-3522.367 -3499.914)" fill="#fff"/>
          </g>
        </g>
      </g>
    </g>
    <g id="Grupo_86827" data-name="Grupo 86827" transform="translate(1009.596 376.396)">
      <g transform="matrix(1, 0, 0, 1, -156.76, -307.4)" filter="url(#Trazado_149226)">
        <path id="Trazado_149226-2" data-name="Trazado 149226" d="M.3,0h62a.3.3,0,0,1,.3.3V48.711a.3.3,0,0,1-.3.3H.3a.3.3,0,0,1-.3-.3V.3A.3.3,0,0,1,.3,0Z" transform="translate(156.76 307.4)" fill="#2f94ff"/>
      </g>
      <path id="Trazado_148900" data-name="Trazado 148900" d="M671.552,1693.862l-25.885-14.944a.171.171,0,0,0-.257.148v29.889a.171.171,0,0,0,.257.148l25.885-14.944A.172.172,0,0,0,671.552,1693.862Z" transform="translate(-624.659 -1669.503)" fill="#f0fcff"/>
    </g>
    <g id="Grupo_86809" data-name="Grupo 86809" transform="translate(1204.908 379.24)">
      <g transform="matrix(1, 0, 0, 1, -352.07, -310.24)" filter="url(#Rectángulo_33097)">
        <rect id="Rectángulo_33097-2" data-name="Rectángulo 33097" width="58.176" height="40.663" rx="1.953" transform="translate(352.07 310.24)" fill="url(#linear-gradient-39)"/>
      </g>
      <rect id="Rectángulo_33120" data-name="Rectángulo 33120" width="9.265" height="9.265" rx="1.484" transform="translate(39.769 6.228)" fill="#baedfc"/>
      <rect id="Rectángulo_33121" data-name="Rectángulo 33121" width="9.265" height="9.265" rx="1.484" transform="translate(24.456 6.228)" fill="#064a93"/>
      <rect id="Rectángulo_33122" data-name="Rectángulo 33122" width="9.265" height="9.265" rx="1.484" transform="translate(9.732 6.228)" fill="#fa575d"/>
      <rect id="Rectángulo_33123" data-name="Rectángulo 33123" width="9.265" height="9.265" rx="1.484" transform="translate(9.732 21.138)" fill="#86c3e0"/>
      <rect id="Rectángulo_33124" data-name="Rectángulo 33124" width="9.265" height="9.265" rx="1.484" transform="translate(39.769 21.138)" fill="#2f94ff"/>
      <rect id="Rectángulo_33125" data-name="Rectángulo 33125" width="9.265" height="9.265" rx="1.484" transform="translate(24.456 21.138)" fill="#fdcf57"/>
    </g>
  </g>
</svg>
