<svg xmlns="http://www.w3.org/2000/svg" xmlns:xlink="http://www.w3.org/1999/xlink" width="794.615" height="209.385" viewBox="0 0 794.615 209.385">
  <defs>
    <clipPath id="clip-path">
      <path id="Trazado_105274" data-name="Trazado 105274" d="M862.364-363.979l-9.144-1.964,2.258-12.621,9.144,1.964Z" transform="translate(-853.221 378.564)" fill="#e3b336"/>
    </clipPath>
    <clipPath id="clip-path-2">
      <path id="Trazado_105293" data-name="Trazado 105293" d="M847.179-358s-9.347-.652-9.347,13.042-5.869,33.04-4.13,41.083,15,11.3,19.563-3.043,4.7-31.785,3.043-40.648C854.352-358,847.179-358,847.179-358Z" transform="translate(-833.38 358.001)" fill="#19385f"/>
    </clipPath>
    <clipPath id="clip-path-3">
      <path id="Trazado_105305" data-name="Trazado 105305" d="M478.394-351.715l-9.143-1.964,2.258-12.621,9.143,1.964Z" transform="translate(-469.251 366.3)" fill="#e3b336"/>
    </clipPath>
    <clipPath id="clip-path-4">
      <path id="Trazado_105324" data-name="Trazado 105324" d="M465.329-345.522s-9.347-.652-9.347,13.042-5.869,33.04-4.13,41.083,15,11.3,19.564-3.043,4.7-31.785,3.043-40.649C472.5-345.527,465.329-345.522,465.329-345.522Z" transform="translate(-451.53 345.527)" fill="#064a93"/>
    </clipPath>
    <clipPath id="clip-path-5">
      <path id="Trazado_105337" data-name="Trazado 105337" d="M616.2-371.948l-9.143-1.964,2.258-12.621,9.144,1.964Z" transform="translate(-607.052 386.533)" fill="#e3b336"/>
    </clipPath>
    <clipPath id="clip-path-6">
      <path id="Trazado_105351" data-name="Trazado 105351" d="M601.849-367.352S592.5-368,592.5-354.31s-5.869,33.041-4.13,41.083,15,11.3,19.563-3.043,4.7-31.785,3.043-40.649C609.022-367.357,601.849-367.352,601.849-367.352Z" transform="translate(-588.05 367.357)" fill="#19385f"/>
    </clipPath>
    <clipPath id="clip-path-7">
      <path id="Trazado_105364" data-name="Trazado 105364" d="M718.187-378.462l-9.143-1.964,2.258-12.621,9.144,1.964Z" transform="translate(-709.044 393.047)" fill="#e3b336"/>
    </clipPath>
    <clipPath id="clip-path-8">
      <path id="Trazado_105382" data-name="Trazado 105382" d="M703.322-373.785s-9.347-.652-9.347,13.042-5.869,33.04-4.13,41.083,15,11.3,19.563-3.043,4.7-31.785,3.043-40.649C710.5-373.79,703.322-373.785,703.322-373.785Z" transform="translate(-689.523 373.79)" fill="#19385f"/>
    </clipPath>
    <clipPath id="clip-path-9">
      <path id="Trazado_105430" data-name="Trazado 105430" d="M155.934-379.425l-9.241-1.985,2.282-12.755,9.241,1.985Z" transform="translate(-146.693 394.165)" fill="#e3b336"/>
    </clipPath>
    <clipPath id="clip-path-10">
      <path id="Trazado_105450" data-name="Trazado 105450" d="M143.138-373.567s-9.446-.659-9.446,13.181S127.76-327,129.517-318.867s15.158,11.423,19.771-3.076,4.754-32.123,3.076-41.08C150.387-373.572,143.138-373.567,143.138-373.567Z" transform="translate(-129.192 373.572)" fill="#064a93"/>
    </clipPath>
    <clipPath id="clip-path-11">
      <path id="Trazado_105462" data-name="Trazado 105462" d="M293.987-358.836l-9.241-1.985,2.282-12.755,9.241,1.985Z" transform="translate(-284.747 373.576)" fill="#e3b336"/>
    </clipPath>
    <clipPath id="clip-path-12">
      <path id="Trazado_105483" data-name="Trazado 105483" d="M280.412-352.344s-9.446-.659-9.446,13.181-5.931,33.391-4.174,41.519,15.158,11.423,19.771-3.076,4.754-32.122,3.075-41.08C287.661-352.349,280.412-352.344,280.412-352.344Z" transform="translate(-266.467 352.349)" fill="#064a93"/>
    </clipPath>
    <clipPath id="clip-path-13">
      <path id="Trazado_105494" data-name="Trazado 105494" d="M-89.109-352.847l-9.241-1.985,2.282-12.755,9.241,1.985Z" transform="translate(98.349 367.587)" fill="#e3b336"/>
    </clipPath>
    <clipPath id="clip-path-14">
      <path id="Trazado_105514" data-name="Trazado 105514" d="M-101.046-345s-9.446-.659-9.446,13.181-5.931,33.391-4.174,41.519,15.158,11.424,19.771-3.075,4.754-32.122,3.076-41.08C-93.8-345.009-101.046-345-101.046-345Z" transform="translate(114.992 345.009)" fill="#064a93"/>
    </clipPath>
    <clipPath id="clip-path-15">
      <path id="Trazado_105402" data-name="Trazado 105402" d="M49.965-374.48l-9.241-1.985,2.282-12.755,9.241,1.985Z" transform="translate(-40.724 389.22)" fill="#e3b336"/>
    </clipPath>
    <clipPath id="clip-path-16">
      <path id="Trazado_105418" data-name="Trazado 105418" d="M35.229-367.066s-9.446-.659-9.446,13.181-5.931,33.391-4.174,41.519,15.158,11.424,19.771-3.075,4.754-32.123,3.075-41.08C42.478-367.071,35.229-367.066,35.229-367.066Z" transform="translate(-21.284 367.071)" fill="#19385f"/>
    </clipPath>
  </defs>
  <g id="Grupo_58156" data-name="Grupo 58156" transform="translate(-625.385 -397.197)">
    <path id="Rectángulo_31083" data-name="Rectángulo 31083" d="M0,0H643a40,40,0,0,1,40,40v70a0,0,0,0,1,0,0H0a0,0,0,0,1,0,0V0A0,0,0,0,1,0,0Z" transform="translate(737 471)" fill="#f0fcff"/>
    <g id="Grupo_58089" data-name="Grupo 58089" transform="translate(1294.152 421.627)">
      <g id="Grupo_58085" data-name="Grupo 58085" transform="translate(46.046 0)">
        <path id="Trazado_105271" data-name="Trazado 105271" d="M884.391-385.924s1.777,3.326,2.234,4.25-1.431,1.434-1.431,1.434" transform="translate(-864.796 395.075)" fill="#e3b336"/>
        <g id="Grupo_58083" data-name="Grupo 58083" transform="translate(2.491 13.19)">
          <path id="Trazado_105272" data-name="Trazado 105272" d="M862.364-363.979l-9.144-1.964,2.258-12.621,9.144,1.964Z" transform="translate(-853.221 378.564)" fill="#fad77a"/>
          <g id="Grupo_58082" data-name="Grupo 58082" clip-path="url(#clip-path)">
            <path id="Trazado_105273" data-name="Trazado 105273" d="M858.383-372.1s2.033,5.959,7.855,8.023c.869-2.958,1.444-3.248,1.444-3.248Z" transform="translate(-855.55 375.645)" fill="#e3b336"/>
          </g>
        </g>
        <path id="Trazado_105275" data-name="Trazado 105275" d="M853.727-392.782a8.159,8.159,0,0,1,11.077-7.879,7.666,7.666,0,0,1,3.085,2.272c3.656,4.456,5.771,16.908,0,18.355-3.249.815-9.472-2.062-11.919-5.641A14.366,14.366,0,0,1,853.727-392.782Z" transform="translate(-850.955 401.985)" fill="#fad77a"/>
        <path id="Trazado_105276" data-name="Trazado 105276" d="M861.211-402.439c-2.79-.5-7.59.157-9.765,1.868a7.055,7.055,0,0,0-2.728,4.582c-.471,5.253,3.8,11.691,3.8,11.691a5.568,5.568,0,0,1,3.776-2.985c2.793-.487,1.524-6.972,1.1-8.827a.481.481,0,0,1,.385-.58,40.091,40.091,0,0,0,7.837-2.316C865.14-400.707,863.541-402.024,861.211-402.439Z" transform="translate(-848.682 402.601)" fill="#12263f"/>
        <path id="Trazado_105277" data-name="Trazado 105277" d="M874.865-385.461a6.253,6.253,0,0,1,2.074-.628.581.581,0,0,0,.114-1.124,2.938,2.938,0,0,0-2.918.87A.584.584,0,0,0,874.865-385.461Z" transform="translate(-860.106 395.703)" fill="#12263f"/>
        <path id="Trazado_105278" data-name="Trazado 105278" d="M876.767-382.676a.6.6,0,0,0,.6.6.6.6,0,0,0,.6-.6.6.6,0,0,0-.6-.6A.6.6,0,0,0,876.767-382.676Z" transform="translate(-861.356 393.878)" fill="#12263f"/>
        <path id="Trazado_105279" data-name="Trazado 105279" d="M879.993-372.9a6.281,6.281,0,0,0,2.856-.324" transform="translate(-862.811 389.343)" fill="none" stroke="#12263f" stroke-linecap="round" stroke-linejoin="round" stroke-width="0.75"/>
        <g id="Grupo_58084" data-name="Grupo 58084" transform="translate(5.892 10.975)">
          <path id="Trazado_105280" data-name="Trazado 105280" d="M863.369-380.175a3.087,3.087,0,0,0-.906-1.778,1.823,1.823,0,0,0-2.364-.335c-1.88,1.38.408,6.032,3.629,4.309Z" transform="translate(-859.419 382.601)" fill="#fad77a"/>
          <path id="Trazado_105281" data-name="Trazado 105281" d="M862.9-379.832s-.458-1.643-1.578-.882.135,3.432,1.962,2.624A2.529,2.529,0,0,1,862.9-379.832Z" transform="translate(-860.085 381.84)" fill="#e3b336"/>
          <path id="Trazado_105282" data-name="Trazado 105282" d="M863.213-378.078c-.313-.316-.267-1.02-.326-1.432a1.74,1.74,0,0,0-.656-1.313c-.62-.4-1.161.11-1.288.717" transform="translate(-860.106 381.862)" fill="none" stroke="#12263f" stroke-linecap="round" stroke-linejoin="round" stroke-width="0.75"/>
        </g>
      </g>
      <path id="Trazado_105283" data-name="Trazado 105283" d="M919.2-146.512c-1.67.257-8.79.3-8.79.3s-4.226.4-4.345,4.046,3.318,6.278,3.318,6.278l18.013-9.5C925.423-149.432,920.866-146.768,919.2-146.512Z" transform="translate(-828.527 287.534)" fill="#011224"/>
      <path id="Trazado_105284" data-name="Trazado 105284" d="M774.85-154.721s.065,8.452.962,9.885,5.3,1.543,5.3,4.518H772.08l-7.31-11.516s1.247-3.944,4.646-5.278S774.85-154.721,774.85-154.721Z" transform="translate(-764.77 291.952)" fill="#011224"/>
      <path id="Trazado_105285" data-name="Trazado 105285" d="M877.161-292.929l19.953,14.254-1.943,3.518s-15.951-6.2-22.634-10.5a5.7,5.7,0,0,1-2.553-3.615C869.174-293.284,873.4-295.383,877.161-292.929Z" transform="translate(-812.204 353.585)" fill="#fad77a"/>
      <path id="Trazado_105286" data-name="Trazado 105286" d="M917.737-258.683c-.265-.552-.611-1.233-.969-1.939a.091.091,0,0,1,.015-.1l0,0a.089.089,0,0,1,.135.007c.639.821,1.569,2.041,2.323,3.128,1.28,1.847,2.183,1,.943-.9-.6-.917-1.506-2.208-2.26-3.339a.09.09,0,0,1,.01-.111l.026-.027a.089.089,0,0,1,.126,0c.587.552,2.175,2.061,3.4,3.372,1.535,1.64,2.305.671.8-1.028-.846-.955-2.181-2.352-3.157-3.46a.089.089,0,0,1,0-.12h0a.09.09,0,0,1,.116-.013c.361.25,2.2,1.53,3.6,2.661,1.555,1.259,2.194.2.665-1.119s-4.609-3.669-4.477-4.055.834-.294,2.087.213,1.976.353,2.092-.1-2.132-1.343-3.893-2.346A10.9,10.9,0,0,0,915.766-269a2.531,2.531,0,0,0-2.183.748l-1,1.039a2.517,2.517,0,0,0-.558,2.637,12.167,12.167,0,0,0,3.337,4.246c.432.756.915,1.624,1.325,2.42C917.713-255.917,918.719-256.639,917.737-258.683Z" transform="translate(-831.147 342.325)" fill="#fad77a"/>
      <path id="Trazado_105287" data-name="Trazado 105287" d="M833.38-264.033l26.427,35.385,10.452-6.456-21.341-38.6Z" transform="translate(-795.731 344.436)" fill="#19385f"/>
      <path id="Trazado_105288" data-name="Trazado 105288" d="M894.327-170.13s-12.473-15.754-13.549-28.819c-4.179-5.6,6.927-12.832,10.452-6.456,3.228,5.687,9.222,31.967,9.222,31.967Z" transform="translate(-816.701 314.738)" fill="#19385f"/>
      <path id="Trazado_105289" data-name="Trazado 105289" d="M855.339-342.3l8.919,30.679,8.6-2.7L865-344.947a5.009,5.009,0,0,0-6.374-3.527h0A5.009,5.009,0,0,0,855.339-342.3Z" transform="translate(-805.55 378.283)" fill="#fad77a"/>
      <path id="Trazado_105290" data-name="Trazado 105290" d="M844.907-357.4s5.216-4.253,11.4,1.454,3.7,49.534,3.7,49.534-11.944,2.958-23.62-1.133C836.606-337.612,840.537-355.5,844.907-357.4Z" transform="translate(-797.089 382.891)" fill="#86c3e0"/>
      <g id="Grupo_58087" data-name="Grupo 58087" transform="translate(37.649 24.474)">
        <path id="Trazado_105291" data-name="Trazado 105291" d="M847.179-358s-9.347-.652-9.347,13.042-5.869,33.04-4.13,41.083,15,11.3,19.563-3.043,4.7-31.785,3.043-40.648C854.352-358,847.179-358,847.179-358Z" transform="translate(-833.38 358.001)" fill="#baedfc"/>
        <g id="Grupo_58086" data-name="Grupo 58086" clip-path="url(#clip-path-2)">
          <path id="Trazado_105292" data-name="Trazado 105292" d="M829.551-280.932a132.688,132.688,0,0,0,26.2,3.969c-1.608,15.211-2.188,20.7-2.188,20.7l-26.328-2.783Z" transform="translate(-830.608 323.223)" fill="#19385f"/>
        </g>
      </g>
      <path id="Trazado_105294" data-name="Trazado 105294" d="M825.763-268.608,816.5-224.585l11.642,3.188,17.506-45.177Z" transform="translate(-788.114 342.135)" fill="#064a93"/>
      <g id="Grupo_58088" data-name="Grupo 58088" transform="translate(32.927 21.466)">
        <path id="Trazado_105295" data-name="Trazado 105295" d="M839.147-358.234s5.684-3.6,11.15,2.8-2.2,49.623-2.2,49.623-12.21,1.521-23.319-3.926C828.557-339.57,834.583-356.864,839.147-358.234Z" transform="translate(-824.775 361.569)" fill="#86c3e0"/>
        <path id="Trazado_105296" data-name="Trazado 105296" d="M849.822-359.574v-3.319a14.6,14.6,0,0,1,13.744,3.046,7.589,7.589,0,0,0-2.161,3.037Z" transform="translate(-836.078 363.481)" fill="#86c3e0"/>
      </g>
      <path id="Trazado_105297" data-name="Trazado 105297" d="M773.237-175.959s13.655-18.184,26.394-21.276c4.358-4.464,10.211-.564,9.606,5.363a4.553,4.553,0,0,1-2.055,3.3c-7.664,5.07-28.46,17.313-28.46,17.313Z" transform="translate(-768.591 310.799)" fill="#064a93"/>
      <path id="Trazado_105298" data-name="Trazado 105298" d="M835.763-353.485l-17.021,26.54,7.344,5.018,18-25.985a5.01,5.01,0,0,0-1.507-7.128h0A5.009,5.009,0,0,0,835.763-353.485Z" transform="translate(-789.125 381.47)" fill="#fad77a"/>
      <path id="Trazado_105299" data-name="Trazado 105299" d="M825.509-302.165,820.6-278.14l-4-.345s-.825-17.092.386-24.946a5.7,5.7,0,0,1,2.265-3.8C822.584-309.607,826.223-306.6,825.509-302.165Z" transform="translate(-788.033 359.942)" fill="#fad77a"/>
      <path id="Trazado_105300" data-name="Trazado 105300" d="M809.352-251.119c.4-.466.878-1.059,1.377-1.674a.09.09,0,0,1,.1-.028l.007,0a.089.089,0,0,1,.049.126c-.491.917-1.228,2.264-1.914,3.394-1.167,1.92-.026,2.4,1.205.5.594-.919,1.405-2.273,2.131-3.422a.089.089,0,0,1,.106-.036l.035.013a.088.088,0,0,1,.055.113c-.265.761-1,2.825-1.7,4.48-.874,2.069.325,2.379,1.265.315.529-1.161,1.263-2.949,1.877-4.292a.09.09,0,0,1,.111-.046h0a.089.089,0,0,1,.058.1c-.081.431-.5,2.632-.969,4.367-.518,1.932.708,2.086,1.292.153s1.478-5.7,1.885-5.739.607.643.654,1.994.481,1.949.939,1.872.36-2.493.56-4.51a10.9,10.9,0,0,0-.5-3.676,2.532,2.532,0,0,0-1.571-1.69l-1.357-.494a2.517,2.517,0,0,0-2.636.563,12.147,12.147,0,0,0-2.522,4.775c-.515.7-1.111,1.5-1.672,2.194C806.814-250.016,807.883-249.391,809.352-251.119Z" transform="translate(-784.081 338.005)" fill="#fad77a"/>
      <path id="Trazado_105301" data-name="Trazado 105301" d="M841.4-348.709l9.919,6.734s9.388-9.7,2.509-14.369S841.4-348.709,841.4-348.709Z" transform="translate(-799.349 382.204)" fill="#baedfc"/>
      <rect id="Rectángulo_31067" data-name="Rectángulo 31067" width="11.472" height="4.947" transform="translate(5.556 131.148) rotate(41.903)" fill="#064a93"/>
      <rect id="Rectángulo_31068" data-name="Rectángulo 31068" width="11.472" height="4.947" transform="translate(74.557 143.061) rotate(-32.959)" fill="#19385f"/>
    </g>
    <g id="Grupo_58098" data-name="Grupo 58098" transform="translate(1083.25 428.355)">
      <g id="Grupo_58093" data-name="Grupo 58093" transform="translate(35.249 0)">
        <path id="Trazado_105302" data-name="Trazado 105302" d="M500.421-373.66s1.777,3.326,2.234,4.25-1.431,1.434-1.431,1.434" transform="translate(-480.826 382.811)" fill="#e3b336"/>
        <g id="Grupo_58091" data-name="Grupo 58091" transform="translate(2.491 13.19)">
          <path id="Trazado_105303" data-name="Trazado 105303" d="M478.394-351.715l-9.143-1.964,2.258-12.621,9.143,1.964Z" transform="translate(-469.251 366.3)" fill="#fad77a"/>
          <g id="Grupo_58090" data-name="Grupo 58090" clip-path="url(#clip-path-3)">
            <path id="Trazado_105304" data-name="Trazado 105304" d="M474.413-359.831s2.033,5.959,7.855,8.023c.869-2.958,1.444-3.249,1.444-3.249Z" transform="translate(-471.58 363.381)" fill="#e3b336"/>
          </g>
        </g>
        <path id="Trazado_105306" data-name="Trazado 105306" d="M469.757-380.518a8.159,8.159,0,0,1,11.077-7.879,7.667,7.667,0,0,1,3.085,2.272c3.656,4.455,5.771,16.908,0,18.355-3.249.815-9.472-2.062-11.919-5.641A14.371,14.371,0,0,1,469.757-380.518Z" transform="translate(-466.985 389.721)" fill="#fad77a"/>
        <path id="Trazado_105307" data-name="Trazado 105307" d="M477.241-390.175c-2.789-.5-7.59.158-9.765,1.868a7.052,7.052,0,0,0-2.728,4.582c-.471,5.253,3.8,11.691,3.8,11.691a5.568,5.568,0,0,1,3.776-2.985c2.793-.487,1.524-6.972,1.1-8.827a.48.48,0,0,1,.385-.58,40.09,40.09,0,0,0,7.837-2.316C481.171-388.443,479.571-389.76,477.241-390.175Z" transform="translate(-464.712 390.337)" fill="#12263f"/>
        <path id="Trazado_105308" data-name="Trazado 105308" d="M490.895-373.2a6.253,6.253,0,0,1,2.074-.628.581.581,0,0,0,.114-1.124,2.937,2.937,0,0,0-2.918.87A.584.584,0,0,0,490.895-373.2Z" transform="translate(-476.136 383.439)" fill="#12263f"/>
        <circle id="Elipse_4271" data-name="Elipse 4271" cx="0.596" cy="0.596" r="0.596" transform="translate(15.411 10.607)" fill="#12263f"/>
        <path id="Trazado_105309" data-name="Trazado 105309" d="M496.023-360.633a6.282,6.282,0,0,0,2.856-.324" transform="translate(-478.841 377.079)" fill="none" stroke="#12263f" stroke-linecap="round" stroke-linejoin="round" stroke-width="0.75"/>
        <g id="Grupo_58092" data-name="Grupo 58092" transform="translate(5.892 10.975)">
          <path id="Trazado_105310" data-name="Trazado 105310" d="M479.4-367.911a3.092,3.092,0,0,0-.907-1.778,1.823,1.823,0,0,0-2.364-.335c-1.881,1.38.408,6.032,3.629,4.309Z" transform="translate(-475.449 370.337)" fill="#fad77a"/>
          <path id="Trazado_105311" data-name="Trazado 105311" d="M478.927-367.569s-.458-1.643-1.578-.882.136,3.432,1.962,2.624A2.53,2.53,0,0,1,478.927-367.569Z" transform="translate(-476.115 369.576)" fill="#e3b336"/>
          <path id="Trazado_105312" data-name="Trazado 105312" d="M479.243-365.814c-.313-.316-.267-1.02-.326-1.432a1.74,1.74,0,0,0-.656-1.313c-.62-.4-1.161.11-1.288.717" transform="translate(-476.136 369.598)" fill="none" stroke="#12263f" stroke-linecap="round" stroke-linejoin="round" stroke-width="0.75"/>
        </g>
      </g>
      <path id="Trazado_105313" data-name="Trazado 105313" d="M512.015-138.521c-1.6-.552-7.913-3.84-7.913-3.84s-3.923-1.621-5.731,1.551,0,7.1,0,7.1h20.367C518.885-138.2,513.612-137.968,512.015-138.521Z" transform="translate(-444.289 278.622)" fill="#011224"/>
      <path id="Trazado_105314" data-name="Trazado 105314" d="M406.394-152.368c.419-1.637,3.175-8.2,3.175-8.2s1.293-4.043-2.017-5.584-7.077.589-7.077.589l1.677,20.3C406.638-145.495,405.975-150.731,406.394-152.368Z" transform="translate(-400.475 289.425)" fill="#011224"/>
      <path id="Trazado_105315" data-name="Trazado 105315" d="M452.725-263.478l-4.157,42.7,11.275.35,10.764-39.145Z" transform="translate(-422.177 333.09)" fill="#19385f"/>
      <path id="Trazado_105316" data-name="Trazado 105316" d="M408.764-182.31s10.88-13.812,23.475-17.451c4.658-5.2,13.948,4.252,8.4,8.969C435.7-186.5,412.6-174.444,412.6-174.444Z" transform="translate(-404.215 305.023)" fill="#19385f"/>
      <g id="Grupo_58094" data-name="Grupo 58094" transform="translate(31.184 23.744)">
        <path id="Trazado_105317" data-name="Trazado 105317" d="M463.3-345.255s4.957-4.553,11.47.779,6.611,49.231,6.611,49.231-11.749,3.657-23.645.261C456.176-325.013,459.047-343.1,463.3-345.255Z" transform="translate(-457.304 347.067)" fill="#86c3e0"/>
      </g>
      <path id="Trazado_105318" data-name="Trazado 105318" d="M450.624-342.541l-20.163,24.783,7.117,5.538L458.293-336.1a5.01,5.01,0,0,0-.724-7.249h0A5.009,5.009,0,0,0,450.624-342.541Z" transform="translate(-414.006 369.602)" fill="#fad77a"/>
      <path id="Trazado_105319" data-name="Trazado 105319" d="M455.219-336.456l8.98,7.943s10.548-8.423,4.32-13.931S455.219-336.456,455.219-336.456Z" transform="translate(-425.179 369.399)" fill="#baedfc"/>
      <path id="Trazado_105320" data-name="Trazado 105320" d="M457.02-251.784l29.524,31.128,7.07-9.29L471.691-262.73Z" transform="translate(-425.992 332.753)" fill="#064a93"/>
      <path id="Trazado_105321" data-name="Trazado 105321" d="M498.229-169.738s-3.29-19.673,2.216-31.57c-.877-6.929,12.354-7.748,12.276-.462,0,6.539-6.522,31.63-6.522,31.63Z" transform="translate(-444.147 307.55)" fill="#064a93"/>
      <g id="Grupo_58096" data-name="Grupo 58096" transform="translate(28.016 24.589)">
        <path id="Trazado_105322" data-name="Trazado 105322" d="M465.329-345.522s-9.347-.652-9.347,13.042-5.869,33.04-4.13,41.083,15,11.3,19.564-3.043,4.7-31.785,3.043-40.649C472.5-345.527,465.329-345.522,465.329-345.522Z" transform="translate(-451.53 345.527)" fill="#baedfc"/>
        <g id="Grupo_58095" data-name="Grupo 58095" clip-path="url(#clip-path-4)">
          <path id="Trazado_105323" data-name="Trazado 105323" d="M449.185-269.5a132.677,132.677,0,0,0,26.475,1.192v25.068H449.185Z" transform="translate(-450.472 311.218)" fill="#064a93"/>
        </g>
      </g>
      <path id="Trazado_105325" data-name="Trazado 105325" d="M437.159-294.262,432.967-270.1l-4.012-.225s-1.333-17.06-.357-24.947a5.705,5.705,0,0,1,2.151-3.868C434.015-301.613,437.741-298.712,437.159-294.262Z" transform="translate(-413.005 349.593)" fill="#fad77a"/>
      <g id="Grupo_58097" data-name="Grupo 58097" transform="translate(24.215 21.395)">
        <path id="Trazado_105326" data-name="Trazado 105326" d="M457.48-346s5.571-3.777,11.231,2.453-.68,49.668-.68,49.668-12.157,1.894-23.428-3.208C447.468-327.019,452.961-344.489,457.48-346Z" transform="translate(-444.603 349.445)" fill="#86c3e0"/>
        <path id="Trazado_105327" data-name="Trazado 105327" d="M466.875-347.31l-.1-3.317A14.6,14.6,0,0,1,480.6-348a7.59,7.59,0,0,0-2.067,3.1Z" transform="translate(-454.607 351.347)" fill="#86c3e0"/>
      </g>
      <path id="Trazado_105328" data-name="Trazado 105328" d="M422.388-242.787c.382-.478.846-1.084,1.327-1.714a.09.09,0,0,1,.1-.031l.006,0a.089.089,0,0,1,.053.125c-.463.931-1.159,2.3-1.812,3.449-1.109,1.954.046,2.4,1.22.46.566-.936,1.337-2.314,2.028-3.484a.09.09,0,0,1,.1-.039l.036.012a.089.089,0,0,1,.058.111c-.243.768-.913,2.854-1.563,4.529-.812,2.095.4,2.368,1.274.277.494-1.176,1.174-2.986,1.749-4.346a.089.089,0,0,1,.11-.05h0a.09.09,0,0,1,.061.1c-.069.434-.425,2.645-.838,4.393-.46,1.947.77,2.064,1.3.114s1.307-5.744,1.713-5.793.626.624.713,1.973.539,1.934.994,1.843.285-2.5.426-4.525a10.9,10.9,0,0,0-.61-3.66,2.533,2.533,0,0,0-1.621-1.642l-1.37-.453a2.517,2.517,0,0,0-2.618.641,12.154,12.154,0,0,0-2.378,4.849c-.494.717-1.067,1.529-1.606,2.243C419.884-241.609,420.971-241.016,422.388-242.787Z" transform="translate(-409.565 327.579)" fill="#fad77a"/>
      <path id="Trazado_105329" data-name="Trazado 105329" d="M467.543-334.125l14.122,28.659,8-4.161L476.6-338.41a5.009,5.009,0,0,0-6.891-2.364h0A5.01,5.01,0,0,0,467.543-334.125Z" transform="translate(-430.507 368.231)" fill="#fad77a"/>
      <path id="Trazado_105330" data-name="Trazado 105330" d="M498.876-287.155l22.108,10.609-1.308,3.8s-16.779-3.36-24.1-6.446a5.7,5.7,0,0,1-3.137-3.122C490.946-286.13,494.752-288.926,498.876-287.155Z" transform="translate(-441.824 344.021)" fill="#fad77a"/>
      <path id="Trazado_105331" data-name="Trazado 105331" d="M544.736-260.312c-.356-.5-.814-1.109-1.288-1.743a.09.09,0,0,1,0-.1l0-.005a.089.089,0,0,1,.134-.017c.77.7,1.9,1.741,2.827,2.682,1.578,1.6,2.322.61.774-1.048-.747-.8-1.863-1.916-2.8-2.9a.089.089,0,0,1-.009-.111l.021-.031a.089.089,0,0,1,.123-.026c.673.443,2.5,1.656,3.933,2.737,1.794,1.352,2.386.264.614-1.15-1-.8-2.554-1.943-3.706-2.866a.089.089,0,0,1-.018-.119h0a.089.089,0,0,1,.112-.032c.4.184,2.43,1.129,4,2,1.748.973,2.2-.179.462-1.217s-5.171-2.821-5.108-3.224.771-.433,2.094-.15,2.007.009,2.044-.455-2.331-.956-4.238-1.641a10.91,10.91,0,0,0-3.688-.409A2.532,2.532,0,0,0,539-269.027l-.809,1.2a2.515,2.515,0,0,0-.1,2.693,12.157,12.157,0,0,0,4.018,3.609c.556.671,1.181,1.442,1.722,2.156C545.189-257.583,546.055-258.467,544.736-260.312Z" transform="translate(-462.42 336.1)" fill="#fad77a"/>
      <path id="Trazado_105332" data-name="Trazado 105332" d="M468.477-327.978l10.952-4.877s-3.289-13.091-10.885-9.709S468.477-327.978,468.477-327.978Z" transform="translate(-429.66 369.03)" fill="#baedfc"/>
      <rect id="Rectángulo_31069" data-name="Rectángulo 31069" width="11.472" height="4.947" transform="matrix(0.998, -0.063, 0.063, 0.998, 52.794, 133.669)" fill="#064a93"/>
      <path id="Trazado_149233" data-name="Trazado 149233" d="M0,0H11.472V4.947H0Z" transform="translate(6.211 119.783) rotate(56.513)" fill="#19385f"/>
    </g>
    <g id="Grupo_58107" data-name="Grupo 58107" transform="translate(1164.762 417.254)">
      <g id="Grupo_58099" data-name="Grupo 58099" transform="translate(24.815 23.447)">
        <path id="Trazado_105333" data-name="Trazado 105333" d="M600.235-366.029s4.956-4.553,11.469.779,6.611,49.23,6.611,49.23-11.749,3.657-23.646.262C593.115-345.787,595.986-363.875,600.235-366.029Z" transform="translate(-594.242 367.841)" fill="#86c3e0"/>
      </g>
      <g id="Grupo_58103" data-name="Grupo 58103" transform="translate(29.354 0)">
        <path id="Trazado_105334" data-name="Trazado 105334" d="M638.222-393.893s1.777,3.326,2.234,4.251-1.431,1.433-1.431,1.433" transform="translate(-618.627 403.044)" fill="#e3b336"/>
        <g id="Grupo_58101" data-name="Grupo 58101" transform="translate(2.491 13.19)">
          <path id="Trazado_105335" data-name="Trazado 105335" d="M616.2-371.948l-9.143-1.964,2.258-12.621,9.144,1.964Z" transform="translate(-607.052 386.533)" fill="#fad77a"/>
          <g id="Grupo_58100" data-name="Grupo 58100" clip-path="url(#clip-path-5)">
            <path id="Trazado_105336" data-name="Trazado 105336" d="M612.214-380.064s2.033,5.959,7.855,8.023c.869-2.958,1.444-3.248,1.444-3.248Z" transform="translate(-609.381 383.614)" fill="#e3b336"/>
          </g>
        </g>
        <path id="Trazado_105338" data-name="Trazado 105338" d="M607.557-400.751a8.16,8.16,0,0,1,11.077-7.879,7.667,7.667,0,0,1,3.085,2.272c3.656,4.456,5.771,16.908,0,18.355-3.249.815-9.472-2.062-11.919-5.641A14.373,14.373,0,0,1,607.557-400.751Z" transform="translate(-604.786 409.954)" fill="#fad77a"/>
        <path id="Trazado_105339" data-name="Trazado 105339" d="M615.042-410.408c-2.789-.5-7.59.157-9.765,1.868a7.053,7.053,0,0,0-2.728,4.582c-.471,5.253,3.8,11.691,3.8,11.691a5.567,5.567,0,0,1,3.776-2.985c2.792-.487,1.524-6.972,1.1-8.827a.48.48,0,0,1,.385-.58,40.093,40.093,0,0,0,7.837-2.316C618.972-408.676,617.372-409.993,615.042-410.408Z" transform="translate(-602.513 410.57)" fill="#12263f"/>
        <path id="Trazado_105340" data-name="Trazado 105340" d="M628.7-393.43a6.258,6.258,0,0,1,2.074-.628.581.581,0,0,0,.114-1.124,2.938,2.938,0,0,0-2.918.87A.584.584,0,0,0,628.7-393.43Z" transform="translate(-613.937 403.672)" fill="#12263f"/>
        <circle id="Elipse_4272" data-name="Elipse 4272" cx="0.596" cy="0.596" r="0.596" transform="translate(15.411 10.607)" fill="#12263f"/>
        <path id="Trazado_105341" data-name="Trazado 105341" d="M633.825-380.866a6.279,6.279,0,0,0,2.856-.324" transform="translate(-616.643 397.312)" fill="none" stroke="#12263f" stroke-linecap="round" stroke-linejoin="round" stroke-width="0.75"/>
        <g id="Grupo_58102" data-name="Grupo 58102" transform="translate(5.892 10.975)">
          <path id="Trazado_105342" data-name="Trazado 105342" d="M617.2-388.144a3.091,3.091,0,0,0-.907-1.778,1.823,1.823,0,0,0-2.364-.335c-1.881,1.38.408,6.033,3.629,4.309Z" transform="translate(-613.25 390.569)" fill="#fad77a"/>
          <path id="Trazado_105343" data-name="Trazado 105343" d="M616.729-387.8s-.458-1.643-1.578-.882.135,3.432,1.962,2.624A2.532,2.532,0,0,1,616.729-387.8Z" transform="translate(-613.916 389.809)" fill="#e3b336"/>
          <path id="Trazado_105344" data-name="Trazado 105344" d="M617.044-386.047c-.313-.316-.267-1.02-.326-1.432a1.74,1.74,0,0,0-.656-1.313c-.62-.4-1.161.11-1.288.717" transform="translate(-613.937 389.831)" fill="none" stroke="#12263f" stroke-linecap="round" stroke-linejoin="round" stroke-width="0.75"/>
        </g>
      </g>
      <path id="Trazado_105345" data-name="Trazado 105345" d="M555.673-188.489c1.018-1.349,6.093-6.343,6.093-6.343s2.752-3.232.292-5.93-6.756-2.186-6.756-2.186l-6.283,19.373C553.246-182.054,554.655-187.14,555.673-188.489Z" transform="translate(-549.02 316.896)" fill="#011224"/>
      <path id="Trazado_105346" data-name="Trazado 105346" d="M604.978-138.521c-1.6-.552-7.913-3.84-7.913-3.84s-3.923-1.621-5.731,1.551,0,7.1,0,7.1h20.367C611.849-138.2,606.575-137.968,604.978-138.521Z" transform="translate(-567.753 289.725)" fill="#011224"/>
      <path id="Trazado_105347" data-name="Trazado 105347" d="M589.533-278.8,605.1-237.471l11.278-3.95-9.234-42.362Z" transform="translate(-567.302 353.356)" fill="#19385f"/>
      <path id="Trazado_105348" data-name="Trazado 105348" d="M570.658-207.626s16.584-9.045,29.641-7.88c6.225-3.166,11.465,9.01,4.582,11.4-6.154,2.212-33.965,4-33.965,4Z" transform="translate(-558.784 322.781)" fill="#19385f"/>
      <g id="Grupo_58105" data-name="Grupo 58105" transform="translate(21.417 23.713)">
        <path id="Trazado_105349" data-name="Trazado 105349" d="M601.849-367.352S592.5-368,592.5-354.31s-5.869,33.041-4.13,41.083,15,11.3,19.563-3.043,4.7-31.785,3.043-40.649C609.022-367.357,601.849-367.352,601.849-367.352Z" transform="translate(-588.05 367.357)" fill="#baedfc"/>
        <g id="Grupo_58104" data-name="Grupo 58104" clip-path="url(#clip-path-6)">
          <path id="Trazado_105350" data-name="Trazado 105350" d="M585.7-291.7a132.709,132.709,0,0,0,26.475,1.191v25.068H585.7Z" transform="translate(-586.991 333.215)" fill="#19385f"/>
        </g>
      </g>
      <path id="Trazado_105352" data-name="Trazado 105352" d="M588.05-274.7l5.252,41.322,12.276-.462.47-44.108Z" transform="translate(-566.633 350.722)" fill="#064a93"/>
      <path id="Trazado_105353" data-name="Trazado 105353" d="M592.245-170.419s-2.9-18.992,2.6-30.889c-.876-6.929,12.354-7.748,12.276-.462,0,6.539-7.686,31.481-7.686,31.481Z" transform="translate(-568.181 318.653)" fill="#064a93"/>
      <g id="Grupo_58106" data-name="Grupo 58106" transform="translate(17.846 21.098)">
        <path id="Trazado_105354" data-name="Trazado 105354" d="M594.419-366.772s5.571-3.777,11.232,2.453-.68,49.668-.68,49.668-12.158,1.894-23.428-3.208C584.407-347.793,589.9-365.263,594.419-366.772Z" transform="translate(-581.542 370.219)" fill="#86c3e0"/>
        <path id="Trazado_105355" data-name="Trazado 105355" d="M603.813-368.083l-.1-3.317a14.6,14.6,0,0,1,13.831,2.623,7.587,7.587,0,0,0-2.067,3.1Z" transform="translate(-591.546 372.121)" fill="#86c3e0"/>
      </g>
      <path id="Trazado_105356" data-name="Trazado 105356" d="M594.7-360.518l-10.511,30.17,8.578,2.781,11.34-29.506a5.01,5.01,0,0,0-3.151-6.568h0A5.009,5.009,0,0,0,594.7-360.518Z" transform="translate(-564.888 389.501)" fill="#fad77a"/>
      <path id="Trazado_105357" data-name="Trazado 105357" d="M592.859-306.182l3.86,24.216-3.869,1.087s-6.788-15.708-8.418-23.486a5.7,5.7,0,0,1,.781-4.356C587.5-312.118,591.968-310.581,592.859-306.182Z" transform="translate(-564.94 365.444)" fill="#fad77a"/>
      <path id="Trazado_105358" data-name="Trazado 105358" d="M596.52-253.05c.207-.576.449-1.3.7-2.051a.09.09,0,0,1,.083-.061h.007a.089.089,0,0,1,.091.1c-.136,1.031-.352,2.551-.6,3.851-.416,2.208.821,2.256,1.3.04.233-1.07.515-2.623.791-3.953a.089.089,0,0,1,.086-.071h.038a.089.089,0,0,1,.091.087c.019.806.06,3-.012,4.791-.089,2.245,1.141,2.112,1.295-.151.086-1.273.144-3.2.246-4.677a.089.089,0,0,1,.088-.083h0a.09.09,0,0,1,.09.074c.076.432.455,2.641.63,4.428.2,1.991,1.4,1.7,1.263-.312s-.623-5.858-.256-6.035.795.387,1.314,1.636,1.136,1.655,1.538,1.422-.541-2.461-1.062-4.419a10.92,10.92,0,0,0-1.763-3.264,2.534,2.534,0,0,0-2.065-1.029l-1.444.015a2.516,2.516,0,0,0-2.269,1.454,12.163,12.163,0,0,0-.68,5.357c-.234.839-.514,1.792-.792,2.643C594.533-251.125,595.754-250.916,596.52-253.05Z" transform="translate(-569.78 343.855)" fill="#fad77a"/>
      <path id="Trazado_105359" data-name="Trazado 105359" d="M597.186-354.042l11.337,3.9s6.519-11.819-1.344-14.524S597.186-354.042,597.186-354.042Z" transform="translate(-570.755 390.019)" fill="#baedfc"/>
      <path id="Trazado_149234" data-name="Trazado 149234" d="M0,0H11.472V4.947H0Z" transform="translate(22.231 143.872)" fill="#064a93"/>
      <rect id="Rectángulo_31072" data-name="Rectángulo 31072" width="11.472" height="4.947" transform="translate(15.405 112.369) rotate(79.099)" fill="#19385f"/>
    </g>
    <g id="Grupo_58116" data-name="Grupo 58116" transform="translate(1236.258 413.68)">
      <path id="Trazado_105377" data-name="Trazado 105377" d="M732.073-308.35l8.914,22.844-3.549,1.883s-9.969-13.908-13.214-21.163a5.7,5.7,0,0,1-.161-4.423C725.578-313.014,730.268-312.459,732.073-308.35Z" transform="translate(-683.881 369.561)" fill="#fad77a"/>
      <path id="Trazado_105379" data-name="Trazado 105379" d="M709.113-362.48l8.171,31.185,8.324-2.594-6.743-30.883a5.009,5.009,0,0,0-6.242-3.756h0A5.009,5.009,0,0,0,709.113-362.48Z" transform="translate(-677.233 395.257)" fill="#f19183"/>
      <g id="Grupo_58108" data-name="Grupo 58108" transform="translate(24.459 23.424)">
        <path id="Trazado_105360" data-name="Trazado 105360" d="M701.709-372.587s4.957-4.553,11.469.779,6.611,49.231,6.611,49.231-11.749,3.657-23.645.261C694.588-352.345,697.459-370.432,701.709-372.587Z" transform="translate(-695.716 374.398)" fill="#86c3e0"/>
      </g>
      <g id="Grupo_58112" data-name="Grupo 58112" transform="translate(29.282 0)">
        <path id="Trazado_105361" data-name="Trazado 105361" d="M740.214-400.407s1.777,3.326,2.235,4.25-1.432,1.433-1.432,1.433" transform="translate(-720.619 409.558)" fill="#e3b336"/>
        <g id="Grupo_58110" data-name="Grupo 58110" transform="translate(2.491 13.19)">
          <path id="Trazado_105362" data-name="Trazado 105362" d="M718.187-378.462l-9.143-1.964,2.258-12.621,9.144,1.964Z" transform="translate(-709.044 393.047)" fill="#fad77a"/>
          <g id="Grupo_58109" data-name="Grupo 58109" clip-path="url(#clip-path-7)">
            <path id="Trazado_105363" data-name="Trazado 105363" d="M714.206-386.578s2.033,5.959,7.855,8.023c.869-2.959,1.444-3.249,1.444-3.249Z" transform="translate(-711.373 390.128)" fill="#e3b336"/>
          </g>
        </g>
        <path id="Trazado_105365" data-name="Trazado 105365" d="M709.55-407.266a8.16,8.16,0,0,1,11.077-7.88,7.662,7.662,0,0,1,3.085,2.272c3.656,4.455,5.771,16.908,0,18.355-3.249.815-9.472-2.062-11.919-5.64A14.373,14.373,0,0,1,709.55-407.266Z" transform="translate(-706.778 416.469)" fill="#fad77a"/>
        <path id="Trazado_105366" data-name="Trazado 105366" d="M717.034-416.922c-2.789-.5-7.59.157-9.765,1.868a7.051,7.051,0,0,0-2.728,4.582c-.471,5.253,3.8,11.691,3.8,11.691a5.565,5.565,0,0,1,3.776-2.985c2.793-.488,1.524-6.973,1.1-8.826a.481.481,0,0,1,.385-.581,40.074,40.074,0,0,0,7.837-2.316C720.964-415.19,719.364-416.507,717.034-416.922Z" transform="translate(-704.505 417.084)" fill="#12263f"/>
        <path id="Trazado_105367" data-name="Trazado 105367" d="M730.688-399.945a6.271,6.271,0,0,1,2.074-.628.581.581,0,0,0,.114-1.124,2.938,2.938,0,0,0-2.918.87A.584.584,0,0,0,730.688-399.945Z" transform="translate(-715.929 410.187)" fill="#12263f"/>
        <path id="Trazado_105368" data-name="Trazado 105368" d="M732.59-397.16a.6.6,0,0,0,.6.6.6.6,0,0,0,.6-.6.6.6,0,0,0-.6-.6A.6.6,0,0,0,732.59-397.16Z" transform="translate(-717.179 408.362)" fill="#12263f"/>
        <path id="Trazado_105369" data-name="Trazado 105369" d="M735.817-387.381a6.28,6.28,0,0,0,2.856-.324" transform="translate(-718.635 403.827)" fill="none" stroke="#12263f" stroke-linecap="round" stroke-linejoin="round" stroke-width="0.75"/>
        <path id="Trazado_105370" data-name="Trazado 105370" d="M719.193-394.659a3.091,3.091,0,0,0-.907-1.778,1.823,1.823,0,0,0-2.363-.335c-1.881,1.38.408,6.033,3.628,4.309Z" transform="translate(-709.352 408.059)" fill="#fad77a"/>
        <path id="Trazado_105371" data-name="Trazado 105371" d="M718.72-394.316s-.458-1.644-1.578-.882.135,3.433,1.962,2.624A2.533,2.533,0,0,1,718.72-394.316Z" transform="translate(-710.018 407.299)" fill="#e3b336"/>
        <path id="Trazado_105372" data-name="Trazado 105372" d="M719.036-392.561c-.313-.316-.267-1.021-.326-1.433a1.739,1.739,0,0,0-.656-1.313c-.619-.4-1.161.11-1.288.717" transform="translate(-710.039 407.32)" fill="none" stroke="#12263f" stroke-linecap="round" stroke-linejoin="round" stroke-width="0.75"/>
      </g>
      <path id="Trazado_105373" data-name="Trazado 105373" d="M711.164-164.02c-.739-1.519-2.88-8.31-2.88-8.31s-1.627-3.92-5.149-2.956-5.018,5.025-5.018,5.025l14.4,14.4C715.794-158.933,711.9-162.5,711.164-164.02Z" transform="translate(-672.34 308.04)" fill="#011224"/>
      <path id="Trazado_105374" data-name="Trazado 105374" d="M661.222-150.588s3.886,6.193,4.782,7.626,5.3,1.543,5.3,4.518h-9.037l-11.13-9.257s1.247-3.945,4.646-5.279S661.222-150.588,661.222-150.588Z" transform="translate(-651.142 298.035)" fill="#011224"/>
      <path id="Trazado_105375" data-name="Trazado 105375" d="M693.872-275.586l26.8,33.5,8.78-6.911L709.41-285.26Z" transform="translate(-670.424 357.598)" fill="#19385f"/>
      <path id="Trazado_105376" data-name="Trazado 105376" d="M705.453-197.5s7.784-18.437,18.876-25.423c3.034-6.291,14.581.219,10.552,6.29-3.554,5.49-22.933,22.822-22.933,22.822Z" transform="translate(-675.65 330.623)" fill="#19385f"/>
      <path id="Trazado_105378" data-name="Trazado 105378" d="M747.663-257.421c.08-.606.162-1.366.249-2.153a.089.089,0,0,1,.069-.078h.006a.089.089,0,0,1,.11.079c.086,1.037.2,2.568.234,3.889.062,2.246,1.281,2.03,1.282-.238,0-1.095-.054-2.672-.067-4.031a.089.089,0,0,1,.069-.087l.037-.009a.089.089,0,0,1,.108.065c.19.783.7,2.914,1.006,4.684.389,2.213,1.564,1.822,1.233-.422-.185-1.262-.54-3.162-.752-4.623a.09.09,0,0,1,.068-.1h0a.09.09,0,0,1,.1.053c.166.407,1.005,2.484,1.556,4.193.614,1.9,1.727,1.368,1.168-.573s-1.854-5.592-1.532-5.843.859.21,1.632,1.319,1.461,1.377,1.8,1.063-1.051-2.29-1.977-4.092a10.9,10.9,0,0,0-2.416-2.816,2.532,2.532,0,0,0-2.237-.567l-1.407.322a2.517,2.517,0,0,0-1.909,1.9,12.155,12.155,0,0,0,.474,5.379c-.051.87-.121,1.86-.214,2.751C746.131-255.118,747.367-255.172,747.663-257.421Z" transform="translate(-693.923 349.705)" fill="#fad77a"/>
      <g id="Grupo_58114" data-name="Grupo 58114" transform="translate(21.061 23.757)">
        <path id="Trazado_105380" data-name="Trazado 105380" d="M703.322-373.785s-9.347-.652-9.347,13.042-5.869,33.04-4.13,41.083,15,11.3,19.563-3.043,4.7-31.785,3.043-40.649C710.5-373.79,703.322-373.785,703.322-373.785Z" transform="translate(-689.523 373.79)" fill="#baedfc"/>
        <g id="Grupo_58113" data-name="Grupo 58113" clip-path="url(#clip-path-8)">
          <path id="Trazado_105381" data-name="Trazado 105381" d="M687.177-297.634a132.732,132.732,0,0,0,26.475,1.192v25.067H687.177Z" transform="translate(-688.464 339.424)" fill="#19385f"/>
        </g>
      </g>
      <path id="Trazado_105383" data-name="Trazado 105383" d="M684.56-287.454l-6.334,43.708,11.955,2.826,14.129-42.822Z" transform="translate(-663.364 358.587)" fill="#064a93"/>
      <g id="Grupo_58115" data-name="Grupo 58115" transform="translate(17.49 21.074)">
        <path id="Trazado_105384" data-name="Trazado 105384" d="M695.892-373.33s5.571-3.777,11.232,2.453-.68,49.668-.68,49.668-12.158,1.894-23.428-3.208C685.88-354.351,691.372-371.821,695.892-373.33Z" transform="translate(-683.015 376.777)" fill="#86c3e0"/>
        <path id="Trazado_105385" data-name="Trazado 105385" d="M705.286-374.641l-.1-3.317a14.6,14.6,0,0,1,13.831,2.623,7.584,7.584,0,0,0-2.067,3.1Z" transform="translate(-693.019 378.679)" fill="#86c3e0"/>
      </g>
      <path id="Trazado_105386" data-name="Trazado 105386" d="M657.951-180.431S660.6-201.1,669.077-211.1c1-6.912,13.971-4.175,11.955,2.825-1.739,6.3-16.738,29.78-16.738,29.78Z" transform="translate(-654.215 325.94)" fill="#064a93"/>
      <path id="Trazado_105387" data-name="Trazado 105387" d="M693.906-368.811,680.1-340l8.215,3.719,14.552-28.062a5.009,5.009,0,0,0-2.4-6.878h0A5.009,5.009,0,0,0,693.906-368.811Z" transform="translate(-664.211 396.585)" fill="#fad77a"/>
      <path id="Trazado_105388" data-name="Trazado 105388" d="M688.16-315.018l1.579,24.471-3.953.721S680.5-306.1,679.6-314a5.7,5.7,0,0,1,1.186-4.264C683.382-321.429,687.684-319.48,688.16-315.018Z" transform="translate(-663.966 373.193)" fill="#fad77a"/>
      <path id="Trazado_105389" data-name="Trazado 105389" d="M686.422-261.769c.26-.554.568-1.253.888-1.977a.09.09,0,0,1,.089-.053h.007a.089.089,0,0,1,.081.109c-.232,1.014-.589,2.507-.954,3.778-.621,2.159.606,2.323,1.293.161.332-1.043.758-2.563,1.157-3.862a.089.089,0,0,1,.092-.063l.038,0a.089.089,0,0,1,.083.094c-.057.8-.22,2.988-.46,4.769-.3,2.227.939,2.21,1.3-.029.205-1.259.443-3.178.683-4.635a.088.088,0,0,1,.095-.073h0a.09.09,0,0,1,.083.082c.035.437.206,2.671.213,4.467.008,2,1.232,1.827,1.287-.192s-.073-5.891.31-6.033.755.46,1.155,1.752.976,1.754,1.4,1.56-.308-2.5-.645-4.5a10.913,10.913,0,0,0-1.45-3.415,2.532,2.532,0,0,0-1.96-1.218l-1.438-.12a2.516,2.516,0,0,0-2.4,1.236,12.145,12.145,0,0,0-1.178,5.27c-.312.813-.679,1.736-1.037,2.557C684.264-260.037,685.459-259.715,686.422-261.769Z" transform="translate(-666.35 351.239)" fill="#fad77a"/>
      <path id="Trazado_105390" data-name="Trazado 105390" d="M698.14-361.72l10.755,5.3s7.956-10.9.5-14.578S698.14-361.72,698.14-361.72Z" transform="translate(-672.35 396.585)" fill="#baedfc"/>
      <rect id="Rectángulo_31073" data-name="Rectángulo 31073" width="11.472" height="4.947" transform="matrix(0.833, 0.554, -0.554, 0.833, 30.744, 128.683)" fill="#19385f"/>
      <rect id="Rectángulo_31074" data-name="Rectángulo 31074" width="11.472" height="4.947" transform="translate(2.924 140.829) rotate(15.755)" fill="#064a93"/>
    </g>
    <g id="Grupo_58137" data-name="Grupo 58137" transform="translate(911.496 412.926)">
      <g id="Grupo_58132" data-name="Grupo 58132" transform="translate(28.372 0)">
        <path id="Trazado_105427" data-name="Trazado 105427" d="M178.194-401.6s1.8,3.361,2.259,4.3-1.446,1.449-1.446,1.449" transform="translate(-158.391 410.852)" fill="#d09d19"/>
        <g id="Grupo_58130" data-name="Grupo 58130" transform="translate(2.517 13.33)">
          <path id="Trazado_105428" data-name="Trazado 105428" d="M155.934-379.425l-9.241-1.985,2.282-12.755,9.241,1.985Z" transform="translate(-146.693 394.165)" fill="#fad77a"/>
          <g id="Grupo_58129" data-name="Grupo 58129" clip-path="url(#clip-path-9)">
            <path id="Trazado_105429" data-name="Trazado 105429" d="M151.91-387.628s2.055,6.022,7.939,8.108c.877-2.99,1.459-3.283,1.459-3.283Z" transform="translate(-149.047 391.215)" fill="#e3b336"/>
          </g>
        </g>
        <path id="Trazado_105431" data-name="Trazado 105431" d="M147.2-408.535A8.246,8.246,0,0,1,158.4-416.5a7.741,7.741,0,0,1,3.118,2.3c3.695,4.5,5.832,17.087,0,18.55-3.284.823-9.572-2.084-12.045-5.7A14.524,14.524,0,0,1,147.2-408.535Z" transform="translate(-144.404 417.835)" fill="#fad77a"/>
        <path id="Trazado_105432" data-name="Trazado 105432" d="M154.769-418.294c-2.819-.5-7.67.159-9.869,1.888a7.127,7.127,0,0,0-2.757,4.63c-.476,5.309,3.838,11.815,3.838,11.815a5.626,5.626,0,0,1,3.816-3.016c2.823-.493,1.54-7.047,1.113-8.92a.486.486,0,0,1,.389-.587,40.464,40.464,0,0,0,7.92-2.34C158.74-416.543,157.124-417.874,154.769-418.294Z" transform="translate(-142.106 418.457)" fill="#12263f"/>
        <path id="Trazado_105433" data-name="Trazado 105433" d="M168.567-401.136a6.345,6.345,0,0,1,2.1-.635.587.587,0,0,0,.115-1.136,2.97,2.97,0,0,0-2.949.88A.59.59,0,0,0,168.567-401.136Z" transform="translate(-153.652 411.487)" fill="#12263f"/>
        <path id="Trazado_105434" data-name="Trazado 105434" d="M170.489-398.321a.6.6,0,0,0,.6.6.6.6,0,0,0,.6-.6.6.6,0,0,0-.6-.6A.6.6,0,0,0,170.489-398.321Z" transform="translate(-154.914 409.642)" fill="#12263f"/>
        <path id="Trazado_105435" data-name="Trazado 105435" d="M173.75-388.438a6.351,6.351,0,0,0,2.886-.328" transform="translate(-156.386 405.059)" fill="none" stroke="#12263f" stroke-linecap="round" stroke-linejoin="round" stroke-width="0.75"/>
        <g id="Grupo_58131" data-name="Grupo 58131" transform="translate(5.955 11.091)">
          <path id="Trazado_105436" data-name="Trazado 105436" d="M156.95-395.794a3.125,3.125,0,0,0-.916-1.8,1.842,1.842,0,0,0-2.389-.338c-1.9,1.394.413,6.1,3.667,4.354Z" transform="translate(-152.958 398.245)" fill="#fad77a"/>
          <path id="Trazado_105437" data-name="Trazado 105437" d="M156.473-395.447s-.463-1.66-1.6-.892.137,3.469,1.983,2.652A2.557,2.557,0,0,1,156.473-395.447Z" transform="translate(-153.631 397.477)" fill="#e3b336"/>
          <path id="Trazado_105438" data-name="Trazado 105438" d="M156.791-393.674c-.317-.319-.27-1.031-.329-1.448a1.761,1.761,0,0,0-.663-1.327c-.626-.4-1.173.111-1.3.725" transform="translate(-153.652 397.499)" fill="none" stroke="#12263f" stroke-linecap="round" stroke-linejoin="round" stroke-width="0.75"/>
        </g>
      </g>
      <path id="Trazado_105439" data-name="Trazado 105439" d="M100.59-148s3.927,6.259,4.833,7.707,5.361,1.56,5.361,4.567h-9.133L90.4-145.083s1.26-3.987,4.7-5.334S100.59-148,100.59-148Z" transform="translate(-90.403 297.633)" fill="#011224"/>
      <path id="Trazado_105440" data-name="Trazado 105440" d="M151.064-161.576c-.747-1.536-2.911-8.4-2.911-8.4s-1.645-3.962-5.2-2.987-5.071,5.078-5.071,5.078l14.554,14.554C155.742-156.435,151.811-160.04,151.064-161.576Z" transform="translate(-111.826 307.745)" fill="#011224"/>
      <path id="Trazado_105441" data-name="Trazado 105441" d="M130.747-368.676l-17.6,25.745,7.284,5.98,18.63-25.951a5.063,5.063,0,0,0-1.4-7.228h0A5.062,5.062,0,0,0,130.747-368.676Z" transform="translate(-100.667 397.005)" fill="#fad77a"/>
      <path id="Trazado_105442" data-name="Trazado 105442" d="M120.779-320.578l7.729,23.545-3.686,1.7s-9.289-14.588-12.161-22.087a5.765,5.765,0,0,1,.083-4.472C114.483-325.644,119.185-324.825,120.779-320.578Z" transform="translate(-100.262 375.962)" fill="#fad77a"/>
      <path id="Trazado_105443" data-name="Trazado 105443" d="M133.716-268.311c.114-.608.24-1.37.37-2.159a.091.091,0,0,1,.074-.075h.007a.089.089,0,0,1,.106.086c.03,1.051.058,2.6.021,3.938-.062,2.27,1.18,2.12,1.306-.169.061-1.1.094-2.7.156-4.071a.091.091,0,0,1,.075-.085l.037-.007a.09.09,0,0,1,.105.072c.148.8.54,2.979.756,4.782.27,2.254,1.477,1.925,1.268-.358-.118-1.284-.37-3.221-.5-4.707a.09.09,0,0,1,.074-.1h0a.091.091,0,0,1,.1.06c.145.419.877,2.562,1.338,4.317.514,1.955,1.667,1.476,1.211-.514s-1.561-5.746-1.221-5.981.855.26,1.573,1.422,1.4,1.47,1.762,1.173-.933-2.369-1.768-4.239a11.019,11.019,0,0,0-2.281-2.975,2.559,2.559,0,0,0-2.226-.7l-1.438.246a2.544,2.544,0,0,0-2.031,1.815,12.293,12.293,0,0,0,.18,5.455c-.1.874-.226,1.87-.368,2.763C132.042-266.072,133.293-266.059,133.716-268.311Z" transform="translate(-109.324 355.359)" fill="#f19183"/>
      <path id="Trazado_105444" data-name="Trazado 105444" d="M124.176-286.32l-6.4,44.172,12.082,2.856,12.336-42.837Z" transform="translate(-102.755 358.829)" fill="#19385f"/>
      <g id="Grupo_58133" data-name="Grupo 58133" transform="translate(23.797 23.59)">
        <path id="Trazado_105445" data-name="Trazado 105445" d="M139.826-373.637s5.009-4.6,11.591.787S158.1-323.1,158.1-323.1s-11.873,3.7-23.9.265C132.63-353.18,135.532-371.46,139.826-373.637Z" transform="translate(-133.769 375.468)" fill="#86c3e0"/>
      </g>
      <path id="Trazado_105446" data-name="Trazado 105446" d="M98.96-178.62s1.757-20.43,10.325-30.535c1.012-6.985,14.12-4.22,12.083,2.856-1.758,6.371-16.916,30.1-16.916,30.1Z" transform="translate(-94.264 325.836)" fill="#19385f"/>
      <path id="Trazado_105447" data-name="Trazado 105447" d="M135.534-363.018l9.376,7.674s10.326-8.914,3.823-14.236S135.534-363.018,135.534-363.018Z" transform="translate(-110.769 397.02)" fill="#fb9e27"/>
      <g id="Grupo_58135" data-name="Grupo 58135" transform="translate(21.285 24.63)">
        <path id="Trazado_105448" data-name="Trazado 105448" d="M143.138-373.567s-9.446-.659-9.446,13.181S127.76-327,129.517-318.867s15.158,11.423,19.771-3.076,4.754-32.123,3.076-41.08C150.387-373.572,143.138-373.567,143.138-373.567Z" transform="translate(-129.192 373.572)" fill="#baedfc"/>
        <g id="Grupo_58134" data-name="Grupo 58134" clip-path="url(#clip-path-10)">
          <path id="Trazado_105449" data-name="Trazado 105449" d="M126.822-296.138a134.109,134.109,0,0,0,26.756,1.2V-269.6H126.822Z" transform="translate(-128.123 338.629)" fill="#064a93"/>
        </g>
      </g>
      <path id="Trazado_105451" data-name="Trazado 105451" d="M133.587-274.326l27.089,33.854,8.873-6.984L149.29-284.1Z" transform="translate(-109.89 357.829)" fill="#064a93"/>
      <path id="Trazado_105452" data-name="Trazado 105452" d="M145.709-195.51s7.637-18.528,18.847-25.589c3.066-6.358,14.735.222,10.664,6.357-3.592,5.547-23.24,22.867-23.24,22.867Z" transform="translate(-115.36 330.568)" fill="#064a93"/>
      <g id="Grupo_58136" data-name="Grupo 58136" transform="translate(16.754 21.216)">
        <path id="Trazado_105453" data-name="Trazado 105453" d="M133.948-374.388s5.63-3.817,11.35,2.479-.687,50.2-.687,50.2-12.287,1.915-23.677-3.243C123.83-355.207,129.38-372.863,133.948-374.388Z" transform="translate(-120.934 377.872)" fill="#86c3e0"/>
        <path id="Trazado_105454" data-name="Trazado 105454" d="M143.442-375.713l-.1-3.352a14.76,14.76,0,0,1,13.978,2.651,7.667,7.667,0,0,0-2.089,3.135Z" transform="translate(-131.044 379.794)" fill="#86c3e0"/>
      </g>
      <path id="Trazado_105455" data-name="Trazado 105455" d="M168.528-309.445l9.009,23.086-3.587,1.9s-10.075-14.057-13.354-21.388a5.763,5.763,0,0,1-.163-4.469C161.965-314.158,166.7-313.6,168.528-309.445Z" transform="translate(-121.835 370.824)" fill="#fad77a"/>
      <path id="Trazado_105456" data-name="Trazado 105456" d="M184.283-257.975c.081-.613.165-1.38.251-2.176a.092.092,0,0,1,.069-.078h.007a.09.09,0,0,1,.111.08c.087,1.048.2,2.6.236,3.931.063,2.27,1.3,2.052,1.3-.24,0-1.106-.054-2.7-.068-4.073a.091.091,0,0,1,.07-.089l.037-.008a.089.089,0,0,1,.109.066c.192.791.7,2.945,1.017,4.733.393,2.237,1.58,1.842,1.247-.426-.188-1.276-.546-3.2-.761-4.673a.09.09,0,0,1,.069-.1h0a.09.09,0,0,1,.1.054c.167.41,1.016,2.51,1.573,4.238.62,1.924,1.746,1.382,1.18-.579s-1.873-5.651-1.548-5.9.868.212,1.65,1.333,1.477,1.391,1.823,1.074-1.062-2.314-2-4.135a11.012,11.012,0,0,0-2.441-2.846,2.558,2.558,0,0,0-2.26-.573l-1.422.325a2.543,2.543,0,0,0-1.929,1.923,12.285,12.285,0,0,0,.478,5.437c-.052.879-.122,1.879-.216,2.78C182.735-255.647,183.984-255.7,184.283-257.975Z" transform="translate(-131.984 350.758)" fill="#fad77a"/>
      <path id="Trazado_105457" data-name="Trazado 105457" d="M145.324-364.149l8.259,31.516,8.412-2.621-6.815-31.211a5.063,5.063,0,0,0-6.308-3.8h0A5.063,5.063,0,0,0,145.324-364.149Z" transform="translate(-115.117 396.793)" fill="#fad77a"/>
      <path id="Trazado_105458" data-name="Trazado 105458" d="M145.495-356.766l11.847-2.54s-.524-13.631-8.74-11.87S145.495-356.766,145.495-356.766Z" transform="translate(-114.555 397.192)" fill="#baedfc"/>
      <path id="Trazado_149230" data-name="Trazado 149230" d="M0,0H10.755V5H0Z" transform="matrix(0.837, 0.547, -0.547, 0.837, 31.605, 130.485)" fill="#064a93"/>
      <path id="Trazado_105524" data-name="Trazado 105524" d="M0,0H10.755V5H0Z" transform="translate(3.372 142.948) rotate(17.17)" fill="#19385f"/>
    </g>
    <g id="Grupo_58146" data-name="Grupo 58146" transform="translate(981.379 424.223)">
      <g id="Grupo_58141" data-name="Grupo 58141" transform="translate(44.905)">
        <path id="Trazado_105459" data-name="Trazado 105459" d="M316.247-381.014s1.8,3.362,2.259,4.3-1.446,1.449-1.446,1.449" transform="translate(-296.444 390.262)" fill="#e3b336"/>
        <g id="Grupo_58139" data-name="Grupo 58139" transform="translate(2.517 13.33)">
          <path id="Trazado_105460" data-name="Trazado 105460" d="M293.987-358.836l-9.241-1.985,2.282-12.755,9.241,1.985Z" transform="translate(-284.747 373.576)" fill="#fad77a"/>
          <g id="Grupo_58138" data-name="Grupo 58138" clip-path="url(#clip-path-11)">
            <path id="Trazado_105461" data-name="Trazado 105461" d="M289.963-367.038s2.054,6.022,7.938,8.108c.878-2.99,1.46-3.283,1.46-3.283Z" transform="translate(-287.101 370.626)" fill="#e3b336"/>
          </g>
        </g>
        <path id="Trazado_105463" data-name="Trazado 105463" d="M285.258-387.945a8.246,8.246,0,0,1,11.194-7.963,7.743,7.743,0,0,1,3.118,2.3c3.695,4.5,5.832,17.087,0,18.55-3.284.824-9.572-2.084-12.045-5.7A14.526,14.526,0,0,1,285.258-387.945Z" transform="translate(-282.457 397.246)" fill="#fad77a"/>
        <path id="Trazado_105464" data-name="Trazado 105464" d="M292.822-397.7c-2.819-.5-7.67.159-9.869,1.888a7.13,7.13,0,0,0-2.757,4.631c-.476,5.308,3.838,11.815,3.838,11.815a5.626,5.626,0,0,1,3.816-3.016c2.823-.493,1.54-7.047,1.113-8.92a.486.486,0,0,1,.389-.587,40.5,40.5,0,0,0,7.92-2.34C296.793-395.953,295.177-397.285,292.822-397.7Z" transform="translate(-280.159 397.868)" fill="#12263f"/>
        <path id="Trazado_105465" data-name="Trazado 105465" d="M306.62-380.546a6.318,6.318,0,0,1,2.1-.635.587.587,0,0,0,.115-1.136,2.968,2.968,0,0,0-2.949.88A.59.59,0,0,0,306.62-380.546Z" transform="translate(-291.705 390.897)" fill="#12263f"/>
        <path id="Trazado_105466" data-name="Trazado 105466" d="M308.543-377.732a.6.6,0,0,0,.6.6.6.6,0,0,0,.6-.6.6.6,0,0,0-.6-.6A.6.6,0,0,0,308.543-377.732Z" transform="translate(-292.968 389.053)" fill="#12263f"/>
        <path id="Trazado_105467" data-name="Trazado 105467" d="M311.8-367.849a6.346,6.346,0,0,0,2.886-.328" transform="translate(-294.439 384.47)" fill="none" stroke="#12263f" stroke-linecap="round" stroke-linejoin="round" stroke-width="0.75"/>
        <g id="Grupo_58140" data-name="Grupo 58140" transform="translate(5.955 11.091)">
          <path id="Trazado_105468" data-name="Trazado 105468" d="M295-375.2a3.123,3.123,0,0,0-.916-1.8,1.843,1.843,0,0,0-2.389-.338c-1.9,1.394.413,6.1,3.667,4.355Z" transform="translate(-291.011 377.655)" fill="#fad77a"/>
          <path id="Trazado_105469" data-name="Trazado 105469" d="M294.526-374.858s-.463-1.661-1.6-.892.137,3.469,1.983,2.652A2.555,2.555,0,0,1,294.526-374.858Z" transform="translate(-291.684 376.887)" fill="#e3b336"/>
          <path id="Trazado_105470" data-name="Trazado 105470" d="M294.844-373.084c-.317-.319-.27-1.031-.329-1.448a1.759,1.759,0,0,0-.663-1.326c-.626-.4-1.173.111-1.3.725" transform="translate(-291.705 376.909)" fill="none" stroke="#12263f" stroke-linecap="round" stroke-linejoin="round" stroke-width="0.75"/>
        </g>
      </g>
      <path id="Trazado_105471" data-name="Trazado 105471" d="M357.637-143.882c-1.688.26-8.884.3-8.884.3s-4.271.4-4.391,4.089,3.353,6.345,3.353,6.345l18.2-9.6C363.93-146.833,359.325-144.142,357.637-143.882Z" transform="translate(-264.225 283.756)" fill="#011224"/>
      <path id="Trazado_105472" data-name="Trazado 105472" d="M264.179-348.316l-18.606,26.388,7.561,5.089,19.226-25.513a5.062,5.062,0,0,0-1.234-7.258h0A5.062,5.062,0,0,0,264.179-348.316Z" transform="translate(-219.647 376.476)" fill="#fad77a"/>
      <path id="Trazado_105473" data-name="Trazado 105473" d="M252.164-301.516l20.811,13.455-1.8,3.642s-16.394-5.508-23.342-9.535a5.764,5.764,0,0,1-2.746-3.53C244.083-301.5,248.255-303.817,252.164-301.516Z" transform="translate(-219.361 354.799)" fill="#fad77a"/>
      <path id="Trazado_105474" data-name="Trazado 105474" d="M294.726-268.826c-.293-.545-.674-1.216-1.069-1.912a.091.091,0,0,1,.01-.1l0,0a.089.089,0,0,1,.137,0c.683.8,1.68,1.988,2.491,3.049,1.378,1.8,2.25.907.91-.952-.647-.9-1.624-2.159-2.437-3.264a.09.09,0,0,1,0-.112l.025-.029a.09.09,0,0,1,.127-.01c.618.53,2.293,1.978,3.594,3.245,1.627,1.584,2.358.568.762-1.075-.9-.925-2.312-2.273-3.35-3.345a.09.09,0,0,1,0-.122h0a.09.09,0,0,1,.116-.018c.376.235,2.293,1.442,3.755,2.517,1.629,1.2,2.225.1.619-1.16s-4.825-3.488-4.71-3.885.828-.335,2.118.117,2.012.264,2.108-.2-2.215-1.256-4.04-2.186a11.029,11.029,0,0,0-3.645-.88,2.559,2.559,0,0,0-2.168.858l-.964,1.1a2.544,2.544,0,0,0-.44,2.688,12.284,12.284,0,0,0,3.568,4.129c.472.744,1,1.6,1.451,2.382C294.831-266.033,295.813-266.809,294.726-268.826Z" transform="translate(-239.007 344.302)" fill="#f19183"/>
      <g id="Grupo_58142" data-name="Grupo 58142" transform="translate(40 23.576)">
        <path id="Trazado_105475" data-name="Trazado 105475" d="M277.277-353.074s5.009-4.6,11.592.787,6.681,49.753,6.681,49.753-11.873,3.7-23.9.265C270.081-332.617,272.983-350.9,277.277-353.074Z" transform="translate(-271.221 354.905)" fill="#86c3e0"/>
      </g>
      <path id="Trazado_105476" data-name="Trazado 105476" d="M259.8-265.792l-9.189,43.677,12.078,3.054,14.827-41.407Z" transform="translate(-221.919 338.267)" fill="#19385f"/>
      <path id="Trazado_105477" data-name="Trazado 105477" d="M208.514-152.179s.066,8.542.972,9.99,5.361,1.559,5.361,4.566h-9.132l-7.388-11.638s1.26-3.987,4.7-5.334S208.514-152.179,208.514-152.179Z" transform="translate(-198.327 288.22)" fill="#011224"/>
      <path id="Trazado_105478" data-name="Trazado 105478" d="M206.883-173.745s13.8-18.378,26.675-21.5c4.595-4.707,11.07-.87,9.639,6.075a3.863,3.863,0,0,1-1.613,2.418c-7.285,4.95-29.157,17.709-29.157,17.709Z" transform="translate(-202.188 307.371)" fill="#19385f"/>
      <path id="Trazado_105479" data-name="Trazado 105479" d="M266.467-338.364,276-330.887s10.138-9.127,3.526-14.313S266.467-338.364,266.467-338.364Z" transform="translate(-229.076 374.687)" fill="#baedfc"/>
      <path id="Trazado_105480" data-name="Trazado 105480" d="M270.91-262.65l26.708,35.76,10.563-6.524-21.568-39.013Z" transform="translate(-231.081 341.262)" fill="#064a93"/>
      <g id="Grupo_58144" data-name="Grupo 58144" transform="translate(37.391 24.978)">
        <path id="Trazado_105481" data-name="Trazado 105481" d="M280.412-352.344s-9.446-.659-9.446,13.181-5.931,33.391-4.174,41.519,15.158,11.423,19.771-3.076,4.754-32.122,3.075-41.08C287.661-352.349,280.412-352.344,280.412-352.344Z" transform="translate(-266.467 352.349)" fill="#baedfc"/>
        <g id="Grupo_58143" data-name="Grupo 58143" clip-path="url(#clip-path-12)">
          <path id="Trazado_105482" data-name="Trazado 105482" d="M264.1-275.436a134.114,134.114,0,0,0,26.756,1.2V-248.9H264.1Z" transform="translate(-265.397 317.641)" fill="#064a93"/>
        </g>
      </g>
      <g id="Grupo_58145" data-name="Grupo 58145" transform="translate(32.957 21.202)">
        <path id="Trazado_105484" data-name="Trazado 105484" d="M271.4-353.825s5.63-3.817,11.351,2.479-.688,50.195-.688,50.195-12.287,1.915-23.677-3.243C261.281-334.644,266.832-352.3,271.4-353.825Z" transform="translate(-258.386 357.308)" fill="#86c3e0"/>
        <path id="Trazado_105485" data-name="Trazado 105485" d="M280.894-355.15l-.1-3.352a14.758,14.758,0,0,1,13.978,2.65,7.673,7.673,0,0,0-2.089,3.135Z" transform="translate(-268.496 359.23)" fill="#86c3e0"/>
      </g>
      <path id="Trazado_105486" data-name="Trazado 105486" d="M283.444-341.814,293.39-311.1l8.607-3-8.874-30.688a5.063,5.063,0,0,0-6.547-3.368h0A5.063,5.063,0,0,0,283.444-341.814Z" transform="translate(-236.625 375.562)" fill="#fad77a"/>
      <path id="Trazado_105487" data-name="Trazado 105487" d="M332.41-166.986l-1.025-1.431s-11.66-17.356-12.574-28.46c-4.224-5.655,7-12.968,10.563-6.524,3.262,5.747,9.32,32.306,9.32,32.306Z" transform="translate(-252.274 311.248)" fill="#064a93"/>
      <path id="Trazado_105488" data-name="Trazado 105488" d="M308.969-290.063l16.67,18.337-2.669,3.06s-14.436-9.524-20.12-15.2a5.766,5.766,0,0,1-1.75-4.116C301.154-292.117,305.78-293.29,308.969-290.063Z" transform="translate(-244.703 350.056)" fill="#fad77a"/>
      <path id="Trazado_105489" data-name="Trazado 105489" d="M341.816-247.611c-.144-.6-.34-1.348-.543-2.122a.09.09,0,0,1,.036-.1l.005,0a.09.09,0,0,1,.133.035c.455.948,1.115,2.352,1.627,3.587.87,2.1,1.943,1.453,1.123-.688-.4-1.033-1.016-2.5-1.52-3.78a.091.091,0,0,1,.033-.108l.031-.021a.091.091,0,0,1,.126.023c.462.67,1.709,2.5,2.643,4.057,1.167,1.947,2.134,1.154,1.011-.844-.632-1.124-1.653-2.789-2.382-4.091a.09.09,0,0,1,.029-.118h0a.09.09,0,0,1,.117.013c.3.324,1.846,1.98,2.984,3.4,1.267,1.575,2.125.667.9-.963s-3.77-4.608-3.557-4.961.886-.112,2.017.656,1.877.77,2.087.351-1.82-1.781-3.345-3.148a11.03,11.03,0,0,0-3.3-1.784,2.562,2.562,0,0,0-2.316.273l-1.212.812a2.543,2.543,0,0,0-1.113,2.486,12.291,12.291,0,0,0,2.391,4.906c.266.839.558,1.8.793,2.673C341.2-244.883,342.35-245.382,341.816-247.611Z" transform="translate(-261.085 334.926)" fill="#fad77a"/>
      <path id="Trazado_105490" data-name="Trazado 105490" d="M283.3-335.5l11.55-3.659s-1.823-13.519-9.834-10.981S283.3-335.5,283.3-335.5Z" transform="translate(-235.612 376.472)" fill="#baedfc"/>
      <path id="Trazado_149232" data-name="Trazado 149232" d="M0,0H11.594V5H0Z" transform="matrix(0.821, -0.57, 0.57, 0.821, 77.1, 142.699)" fill="#064a93"/>
      <path id="Trazado_149231" data-name="Trazado 149231" d="M0,0H11.648V5H0Z" transform="translate(6.261 129.291) rotate(45)" fill="#19385f"/>
    </g>
    <g id="Grupo_58119" data-name="Grupo 58119" transform="translate(625.385 397.197)">
      <g id="Grupo_58118" data-name="Grupo 58118">
        <path id="Trazado_105391" data-name="Trazado 105391" d="M-46.556-118.838-401.109-121.9v9.068a4.816,4.816,0,0,0,3.641,4.927l100.257,17.856a13.9,13.9,0,0,0,3.6.167l243.2-20.359a4.586,4.586,0,0,0,3.853-4.81Z" transform="translate(409.69 299.221)" fill="#e3b336"/>
        <g id="Grupo_58117" data-name="Grupo 58117">
          <path id="Trazado_105392" data-name="Trazado 105392" d="M-183.736-271.894l-225.347,16.589a6.831,6.831,0,0,1-7.311-7.046V-430.161a7.455,7.455,0,0,1,7.311-7.584h225.347c3.322,0,6.008,3.07,6.008,6.856v151.7C-177.728-275.406-180.414-272.139-183.736-271.894Z" transform="translate(416.394 437.745)" fill="#e3b336"/>
          <path id="Trazado_105393" data-name="Trazado 105393" d="M-177.336-271.894l-225.347,16.589a6.831,6.831,0,0,1-7.311-7.046V-430.161a7.455,7.455,0,0,1,7.311-7.584h225.347c3.322,0,6.008,3.07,6.008,6.856v151.7C-171.327-275.406-174.013-272.139-177.336-271.894Z" transform="translate(413.587 437.745)" fill="#ffeab2"/>
          <path id="Trazado_105394" data-name="Trazado 105394" d="M-176.7-274.977l-209.887,14.409a5.6,5.6,0,0,1-5.948-5.783V-413.268a6.107,6.107,0,0,1,5.948-6.217l209.887-.9c2.74-.012,4.957,2.5,4.957,5.618v133.815C-171.74-277.843-173.957-275.165-176.7-274.977Z" transform="translate(405.929 430.133)" fill="#dbf3ff"/>
          <path id="Trazado_105395" data-name="Trazado 105395" d="M-186.153-431.773a2.725,2.725,0,0,1-2.592,2.832,2.711,2.711,0,0,1-2.6-2.822,2.724,2.724,0,0,1,2.6-2.831A2.712,2.712,0,0,1-186.153-431.773Z" transform="translate(317.69 436.363)" fill="#fff"/>
          <path id="Trazado_105396" data-name="Trazado 105396" d="M-402.683-255.305l224.207-16.5,1.141-.084a6.05,6.05,0,0,0,3.969-2.009c-16.134-.883-26.156-6.609-32.62-12.525-12.982-11.881-10.73-23.6-24.73-31.408-17.461-9.743-31.191,2.6-44.441-9.579-8.033-7.385-4.089-12.892-13.974-23.928-10.948-12.223-18.076-8.115-29.078-19.116-13.911-13.91-6.954-24.732-18.937-34.719-14.537-12.116-30.215-.9-44.054-12.521-5.969-5.011-9.244-12.3-10.954-20.046h-10.529a7.455,7.455,0,0,0-7.311,7.584v167.809A6.831,6.831,0,0,0-402.683-255.305Z" transform="translate(413.587 437.745)" fill="#f0fcff" opacity="0.48" style="mix-blend-mode: soft-light;isolation: isolate"/>
        </g>
        <path id="Trazado_105397" data-name="Trazado 105397" d="M-162.822-144.005l-238.287,17.461,103.9,18.5a13.9,13.9,0,0,0,3.6.167l247.058-20.681-112.475-15.333A18.176,18.176,0,0,0-162.822-144.005Z" transform="translate(409.69 308.936)" fill="#fad77a"/>
        <path id="Trazado_105398" data-name="Trazado 105398" d="M-339.176-124.123l198.381-14.754,61.4,8.3L-276.07-114.8Z" transform="translate(382.527 306.665)" fill="#fdcf57"/>
      </g>
    </g>
    <g id="Grupo_58155" data-name="Grupo 58155" transform="translate(737 424.223)">
      <g id="Grupo_58150" data-name="Grupo 58150" transform="translate(34.929)">
        <path id="Trazado_105491" data-name="Trazado 105491" d="M-66.848-375.025s1.8,3.362,2.258,4.3-1.446,1.449-1.446,1.449" transform="translate(86.651 384.273)" fill="#e3b336"/>
        <g id="Grupo_58148" data-name="Grupo 58148" transform="translate(2.517 13.33)">
          <path id="Trazado_105492" data-name="Trazado 105492" d="M-89.109-352.847l-9.241-1.985,2.282-12.755,9.241,1.985Z" transform="translate(98.349 367.587)" fill="#fad77a"/>
          <g id="Grupo_58147" data-name="Grupo 58147" clip-path="url(#clip-path-13)">
            <path id="Trazado_105493" data-name="Trazado 105493" d="M-93.132-361.049s2.054,6.022,7.938,8.108c.878-2.99,1.459-3.283,1.459-3.283Z" transform="translate(95.995 364.637)" fill="#e3b336"/>
          </g>
        </g>
        <path id="Trazado_105495" data-name="Trazado 105495" d="M-97.839-381.957a8.247,8.247,0,0,1,11.195-7.963,7.741,7.741,0,0,1,3.117,2.3c3.695,4.5,5.832,17.087,0,18.55-3.284.824-9.572-2.084-12.045-5.7A14.522,14.522,0,0,1-97.839-381.957Z" transform="translate(100.639 391.257)" fill="#fad77a"/>
        <path id="Trazado_105496" data-name="Trazado 105496" d="M-90.274-391.715c-2.819-.5-7.67.159-9.869,1.888A7.127,7.127,0,0,0-102.9-385.2c-.476,5.308,3.837,11.815,3.837,11.815a5.626,5.626,0,0,1,3.816-3.016c2.822-.493,1.54-7.047,1.113-8.92a.486.486,0,0,1,.389-.587,40.509,40.509,0,0,0,7.92-2.34C-86.3-389.964-87.919-391.3-90.274-391.715Z" transform="translate(102.936 391.879)" fill="#12263f"/>
        <path id="Trazado_105497" data-name="Trazado 105497" d="M-76.476-374.557a6.323,6.323,0,0,1,2.1-.635.587.587,0,0,0,.115-1.136,2.968,2.968,0,0,0-2.949.88A.59.59,0,0,0-76.476-374.557Z" transform="translate(91.391 384.908)" fill="#12263f"/>
        <path id="Trazado_105498" data-name="Trazado 105498" d="M-74.553-371.743a.6.6,0,0,0,.6.6.6.6,0,0,0,.6-.6.6.6,0,0,0-.6-.6A.6.6,0,0,0-74.553-371.743Z" transform="translate(90.128 383.064)" fill="#12263f"/>
        <path id="Trazado_105499" data-name="Trazado 105499" d="M-71.292-361.86a6.347,6.347,0,0,0,2.886-.328" transform="translate(88.656 378.481)" fill="#12263f" stroke="#12263f" stroke-linecap="round" stroke-linejoin="round" stroke-width="0.75"/>
        <g id="Grupo_58149" data-name="Grupo 58149" transform="translate(5.954 11.091)">
          <path id="Trazado_105500" data-name="Trazado 105500" d="M-88.093-369.216a3.124,3.124,0,0,0-.916-1.8,1.843,1.843,0,0,0-2.389-.338c-1.9,1.394.413,6.1,3.667,4.355Z" transform="translate(92.085 371.666)" fill="#fad77a"/>
          <path id="Trazado_105501" data-name="Trazado 105501" d="M-88.57-368.869s-.462-1.661-1.6-.891.138,3.469,1.983,2.652A2.556,2.556,0,0,1-88.57-368.869Z" transform="translate(91.412 370.898)" fill="#e3b336"/>
          <path id="Trazado_105502" data-name="Trazado 105502" d="M-88.251-367.1c-.317-.319-.271-1.032-.33-1.448a1.759,1.759,0,0,0-.663-1.326c-.626-.4-1.173.111-1.3.724" transform="translate(91.391 370.92)" fill="none" stroke="#12263f" stroke-linecap="round" stroke-linejoin="round" stroke-width="0.75"/>
        </g>
      </g>
      <path id="Trazado_105503" data-name="Trazado 105503" d="M-53.865-135.806c-1.614-.558-8-3.881-8-3.881s-3.964-1.638-5.791,1.568,0,7.176,0,7.176h20.583C-46.922-135.48-52.251-135.248-53.865-135.806Z" transform="translate(122.31 278.264)" fill="#011224"/>
      <path id="Trazado_105504" data-name="Trazado 105504" d="M-160.607-149.8c.423-1.655,3.209-8.29,3.209-8.29s1.307-4.085-2.039-5.643-7.152.6-7.152.6l1.695,20.513C-160.361-142.854-161.03-148.146-160.607-149.8Z" transform="translate(166.589 289.181)" fill="#011224"/>
      <path id="Trazado_105505" data-name="Trazado 105505" d="M-113.784-262.089l-4.2,43.154,11.395.354,10.878-39.561Z" transform="translate(144.656 333.31)" fill="#19385f"/>
      <g id="Grupo_58151" data-name="Grupo 58151" transform="translate(30.917 23.904)">
        <path id="Trazado_105506" data-name="Trazado 105506" d="M-104.19-346.487s5.009-4.6,11.591.788,6.681,49.753,6.681,49.753-11.873,3.7-23.9.264C-111.386-326.029-108.484-344.309-104.19-346.487Z" transform="translate(110.247 348.317)" fill="#86c3e0"/>
      </g>
      <path id="Trazado_105507" data-name="Trazado 105507" d="M-158.212-180.06s11-13.958,23.724-17.635c4.708-5.259,14.1,4.3,8.485,9.064-4.989,4.335-28.336,16.522-28.336,16.522Z" transform="translate(162.809 304.945)" fill="#19385f"/>
      <path id="Trazado_105508" data-name="Trazado 105508" d="M-115.908-341.991l-20.377,25.046,7.192,5.6,20.936-24.13a5.063,5.063,0,0,0-.731-7.326h0A5.063,5.063,0,0,0-115.908-341.991Z" transform="translate(152.914 370.21)" fill="#fad77a"/>
      <path id="Trazado_105509" data-name="Trazado 105509" d="M-111.264-335.843l9.076,8.028s10.66-8.512,4.365-14.08S-111.264-335.843-111.264-335.843Z" transform="translate(141.623 370.004)" fill="#8db6c3"/>
      <path id="Trazado_105510" data-name="Trazado 105510" d="M-109.443-250.272l29.837,31.458,7.146-9.389-22.157-33.132Z" transform="translate(140.802 332.969)" fill="#064a93"/>
      <path id="Trazado_105511" data-name="Trazado 105511" d="M-67.8-167.354s-3.325-19.883,2.239-31.9c-.886-7,12.485-7.83,12.406-.467,0,6.608-6.591,31.965-6.591,31.965Z" transform="translate(122.453 307.499)" fill="#064a93"/>
      <g id="Grupo_58153" data-name="Grupo 58153" transform="translate(28.313 25.719)">
        <path id="Trazado_105512" data-name="Trazado 105512" d="M-101.046-345s-9.446-.659-9.446,13.181-5.931,33.391-4.174,41.519,15.158,11.424,19.771-3.075c.913-2.871,2.29-9.179,2.29-9.179s2.132-24.717.785-31.9C-93.8-345.009-101.046-345-101.046-345Z" transform="translate(114.992 345.009)" fill="#baedfc"/>
        <g id="Grupo_58152" data-name="Grupo 58152" clip-path="url(#clip-path-14)">
          <path id="Trazado_105513" data-name="Trazado 105513" d="M-117.362-268.172a134.113,134.113,0,0,0,26.756,1.2v25.333h-26.756Z" transform="translate(116.061 310.336)" fill="#064a93"/>
        </g>
      </g>
      <path id="Trazado_105515" data-name="Trazado 105515" d="M-129.515-293.2l-4.237,24.417-4.055-.227s-1.348-17.241-.361-25.212a5.763,5.763,0,0,1,2.174-3.909C-132.694-300.629-128.928-297.7-129.515-293.2Z" transform="translate(153.927 349.988)" fill="#fad77a"/>
      <g id="Grupo_58154" data-name="Grupo 58154" transform="translate(23.875 21.53)">
        <path id="Trazado_105516" data-name="Trazado 105516" d="M-110.068-347.237s5.63-3.818,11.35,2.479-.687,50.194-.687,50.194-12.287,1.915-23.677-3.243C-120.186-328.056-114.635-345.713-110.068-347.237Z" transform="translate(123.081 350.721)" fill="#86c3e0"/>
        <path id="Trazado_105517" data-name="Trazado 105517" d="M-100.574-348.563l-.1-3.352A14.759,14.759,0,0,1-86.7-349.264a7.663,7.663,0,0,0-2.089,3.135Z" transform="translate(112.971 352.643)" fill="#86c3e0"/>
      </g>
      <path id="Trazado_105518" data-name="Trazado 105518" d="M-144.444-241.179c.386-.483.855-1.1,1.341-1.732a.091.091,0,0,1,.1-.031l.007,0a.09.09,0,0,1,.054.126c-.468.941-1.172,2.324-1.831,3.486-1.121,1.974.046,2.425,1.232.465.573-.947,1.351-2.339,2.05-3.521a.091.091,0,0,1,.105-.039l.036.012a.09.09,0,0,1,.059.113c-.245.776-.922,2.884-1.579,4.577-.82,2.117.4,2.393,1.287.28.5-1.189,1.187-3.018,1.767-4.392a.09.09,0,0,1,.111-.05h0a.09.09,0,0,1,.062.1c-.069.438-.429,2.673-.847,4.44-.465,1.968.779,2.086,1.31.115s1.321-5.805,1.731-5.854.633.631.721,1.994.544,1.955,1,1.863.289-2.53.43-4.573a11.019,11.019,0,0,0-.616-3.7,2.558,2.558,0,0,0-1.638-1.659l-1.385-.458a2.543,2.543,0,0,0-2.645.648,12.288,12.288,0,0,0-2.4,4.9c-.5.725-1.077,1.545-1.623,2.267C-146.973-239.988-145.875-239.389-144.444-241.179Z" transform="translate(157.402 327.74)" fill="#fad77a"/>
      <path id="Trazado_105519" data-name="Trazado 105519" d="M-98.809-333.486l14.271,28.963,8.086-4.205-13.206-29.088a5.063,5.063,0,0,0-6.964-2.389h0A5.062,5.062,0,0,0-98.809-333.486Z" transform="translate(136.238 368.824)" fill="#fad77a"/>
      <path id="Trazado_105520" data-name="Trazado 105520" d="M-67.143-286.018-44.8-275.3l-1.322,3.84s-16.957-3.4-24.358-6.515a5.768,5.768,0,0,1-3.17-3.155C-75.158-284.982-71.312-287.808-67.143-286.018Z" transform="translate(124.801 344.357)" fill="#fad77a"/>
      <path id="Trazado_105521" data-name="Trazado 105521" d="M-20.8-258.89c-.36-.5-.823-1.121-1.3-1.761a.092.092,0,0,1,0-.1l0-.005a.09.09,0,0,1,.136-.017c.779.706,1.917,1.759,2.856,2.711,1.595,1.616,2.347.616.783-1.06-.755-.809-1.883-1.937-2.83-2.931a.09.09,0,0,1-.009-.113l.021-.031a.09.09,0,0,1,.125-.026c.68.447,2.524,1.673,3.975,2.766,1.814,1.366,2.412.267.62-1.163-1.008-.8-2.58-1.963-3.745-2.9a.09.09,0,0,1-.018-.12h0a.09.09,0,0,1,.113-.032c.4.186,2.456,1.141,4.042,2.024,1.766.983,2.219-.181.467-1.229s-5.226-2.851-5.161-3.259.779-.437,2.115-.151,2.029.008,2.067-.46-2.356-.966-4.283-1.659a11,11,0,0,0-3.727-.413A2.56,2.56,0,0,0-26.6-267.7l-.818,1.208a2.544,2.544,0,0,0-.1,2.722,12.291,12.291,0,0,0,4.061,3.646c.562.678,1.194,1.457,1.74,2.179C-20.34-256.132-19.464-257.026-20.8-258.89Z" transform="translate(103.986 336.352)" fill="#fad77a"/>
      <path id="Trazado_105522" data-name="Trazado 105522" d="M-97.865-327.274-86.8-332.2s-3.324-13.23-11-9.812S-97.865-327.274-97.865-327.274Z" transform="translate(137.094 369.632)" fill="#baedfc"/>
      <path id="Trazado_105523" data-name="Trazado 105523" d="M0,0H11.493V5H0Z" transform="matrix(0.5, 0.866, -0.866, 0.5, 7.271, 120.879)" fill="#19385f"/>
      <path id="Trazado_149228" data-name="Trazado 149228" d="M0,0H11.594V5H0Z" transform="matrix(0.998, -0.063, 0.063, 0.998, 53.287, 136.015)" fill="#064a93"/>
    </g>
    <g id="Grupo_58128" data-name="Grupo 58128" transform="translate(837.707 415.639)">
      <g id="Grupo_58123" data-name="Grupo 58123" transform="translate(30.615 0)">
        <path id="Trazado_105399" data-name="Trazado 105399" d="M72.225-396.658s1.8,3.362,2.259,4.3-1.446,1.449-1.446,1.449" transform="translate(-52.422 405.906)" fill="#e3b336"/>
        <g id="Grupo_58121" data-name="Grupo 58121" transform="translate(2.517 13.33)">
          <path id="Trazado_105400" data-name="Trazado 105400" d="M49.965-374.48l-9.241-1.985,2.282-12.755,9.241,1.985Z" transform="translate(-40.724 389.22)" fill="#fad77a"/>
          <g id="Grupo_58120" data-name="Grupo 58120" clip-path="url(#clip-path-15)">
            <path id="Trazado_105401" data-name="Trazado 105401" d="M45.941-382.682s2.054,6.022,7.938,8.108c.878-2.99,1.46-3.283,1.46-3.283Z" transform="translate(-43.078 386.27)" fill="#e3b336"/>
          </g>
        </g>
        <path id="Trazado_105403" data-name="Trazado 105403" d="M41.235-403.589a8.246,8.246,0,0,1,11.194-7.963,7.746,7.746,0,0,1,3.117,2.3c3.7,4.5,5.833,17.087,0,18.55-3.283.824-9.572-2.084-12.045-5.7A14.526,14.526,0,0,1,41.235-403.589Z" transform="translate(-38.435 412.89)" fill="#fad77a"/>
        <path id="Trazado_105404" data-name="Trazado 105404" d="M48.8-413.348c-2.819-.5-7.67.159-9.869,1.888a7.131,7.131,0,0,0-2.757,4.631c-.476,5.309,3.838,11.815,3.838,11.815a5.624,5.624,0,0,1,3.816-3.016c2.822-.493,1.54-7.047,1.113-8.92a.486.486,0,0,1,.389-.587,40.494,40.494,0,0,0,7.919-2.34C52.771-411.6,51.155-412.929,48.8-413.348Z" transform="translate(-36.137 413.512)" fill="#12263f"/>
        <path id="Trazado_105405" data-name="Trazado 105405" d="M62.6-396.19a6.321,6.321,0,0,1,2.1-.635.588.588,0,0,0,.115-1.136,2.969,2.969,0,0,0-2.949.88A.59.59,0,0,0,62.6-396.19Z" transform="translate(-47.682 406.541)" fill="#12263f"/>
        <path id="Trazado_105406" data-name="Trazado 105406" d="M64.52-393.376a.6.6,0,0,0,.6.6.6.6,0,0,0,.6-.6.6.6,0,0,0-.6-.6A.6.6,0,0,0,64.52-393.376Z" transform="translate(-48.945 404.697)" fill="#12263f"/>
        <path id="Trazado_105407" data-name="Trazado 105407" d="M67.781-383.493a6.347,6.347,0,0,0,2.886-.328" transform="translate(-50.417 400.114)" fill="none" stroke="#12263f" stroke-linecap="round" stroke-linejoin="round" stroke-width="0.75"/>
        <g id="Grupo_58122" data-name="Grupo 58122" transform="translate(5.955 11.091)">
          <path id="Trazado_105408" data-name="Trazado 105408" d="M50.98-390.849a3.125,3.125,0,0,0-.916-1.8,1.842,1.842,0,0,0-2.389-.338c-1.9,1.394.413,6.1,3.667,4.355Z" transform="translate(-46.989 393.299)" fill="#fad77a"/>
          <path id="Trazado_105409" data-name="Trazado 105409" d="M50.5-390.5s-.463-1.661-1.6-.892.137,3.469,1.983,2.651A2.556,2.556,0,0,1,50.5-390.5Z" transform="translate(-47.662 392.531)" fill="#e3b336"/>
          <path id="Trazado_105410" data-name="Trazado 105410" d="M50.822-388.728c-.317-.319-.27-1.031-.329-1.448a1.758,1.758,0,0,0-.663-1.326c-.626-.4-1.173.111-1.3.724" transform="translate(-47.683 392.553)" fill="#e3b336" stroke="#12263f" stroke-linecap="round" stroke-linejoin="round" stroke-width="0.75"/>
        </g>
      </g>
      <g id="Grupo_58124" data-name="Grupo 58124" transform="translate(25.901 23.741)">
        <path id="Trazado_105411" data-name="Trazado 105411" d="M33.6-368.417s5.009-4.6,11.591.787,6.681,49.753,6.681,49.753-11.873,3.7-23.9.264C26.408-347.96,29.31-366.24,33.6-368.417Z" transform="translate(-27.547 370.248)" fill="#86c3e0"/>
      </g>
      <path id="Trazado_105412" data-name="Trazado 105412" d="M-12.931-186.3c1.029-1.364,6.158-6.41,6.158-6.41s2.782-3.266.3-5.993-6.828-2.209-6.828-2.209l-6.349,19.579C-15.383-179.8-13.959-184.941-12.931-186.3Z" transform="translate(19.654 317.594)" fill="#011224"/>
      <path id="Trazado_105413" data-name="Trazado 105413" d="M38.392-135.806c-1.614-.558-8-3.881-8-3.881s-3.964-1.638-5.791,1.568,0,7.176,0,7.176H45.19C45.335-135.48,40.006-135.248,38.392-135.806Z" transform="translate(0.049 290.135)" fill="#011224"/>
      <path id="Trazado_105414" data-name="Trazado 105414" d="M21.877-271.591l4.982,39.922,12.406-.467.475-44.576Z" transform="translate(0.913 351.78)" fill="#19385f"/>
      <path id="Trazado_105415" data-name="Trazado 105415" d="M24.83-167.354s-2.445-19.883,3.12-31.9c-.886-7,12.485-7.83,12.406-.467,0,6.608-7.767,31.815-7.767,31.815l-3.964.285Z" transform="translate(-0.178 319.37)" fill="#19385f"/>
      <g id="Grupo_58126" data-name="Grupo 58126" transform="translate(22.464 25.484)">
        <path id="Trazado_105416" data-name="Trazado 105416" d="M35.229-367.066s-9.446-.659-9.446,13.181-5.931,33.391-4.174,41.519,15.158,11.424,19.771-3.075,4.754-32.123,3.075-41.08C42.478-367.071,35.229-367.066,35.229-367.066Z" transform="translate(-21.284 367.071)" fill="#baedfc"/>
        <g id="Grupo_58125" data-name="Grupo 58125" transform="translate(0)" clip-path="url(#clip-path-16)">
          <path id="Trazado_105417" data-name="Trazado 105417" d="M18.913-288.094a134.113,134.113,0,0,0,26.756,1.2v25.333H18.913Z" transform="translate(-20.214 331.432)" fill="#19385f"/>
        </g>
      </g>
      <path id="Trazado_105419" data-name="Trazado 105419" d="M22.783-277.574l15.734,41.768,11.347-4.155-9.281-42.647Z" transform="translate(0.504 354.441)" fill="#064a93"/>
      <g id="Grupo_58127" data-name="Grupo 58127" transform="translate(18.859 21.367)">
        <path id="Trazado_105420" data-name="Trazado 105420" d="M27.726-369.168s5.63-3.817,11.35,2.479-.687,50.2-.687,50.2S26.1-314.58,14.713-319.737C17.608-349.987,23.159-367.643,27.726-369.168Z" transform="translate(-14.713 372.652)" fill="#86c3e0"/>
        <path id="Trazado_105421" data-name="Trazado 105421" d="M37.22-370.494l-.1-3.352A14.759,14.759,0,0,1,51.1-371.195a7.667,7.667,0,0,0-2.089,3.135Z" transform="translate(-24.823 374.574)" fill="#86c3e0"/>
      </g>
      <path id="Trazado_105422" data-name="Trazado 105422" d="M34.194-359.338l-1.332,32.26,9.112.178,2.328-31.86a5.063,5.063,0,0,0-4.971-5.431h0A5.062,5.062,0,0,0,34.194-359.338Z" transform="translate(-4.044 391.256)" fill="#fad77a"/>
      <path id="Trazado_105423" data-name="Trazado 105423" d="M2.527-205.532s17.407-9.253,30.6-8.076c6.292-3.2,11.587,9.106,4.631,11.519-6.219,2.236-34.344,3.525-34.344,3.525l-.769-6.017Z" transform="translate(9.645 323.542)" fill="#064a93"/>
      <path id="Trazado_105424" data-name="Trazado 105424" d="M41.234-303.509l10.825,22.293-3.424,2.184s-11.165-13.207-15.02-20.252a5.765,5.765,0,0,1-.52-4.443C34.315-307.682,39.084-307.5,41.234-303.509Z" transform="translate(-4.044 365.267)" fill="#fad77a"/>
      <path id="Trazado_105425" data-name="Trazado 105425" d="M61-253.472c.031-.618.054-1.389.077-2.189a.09.09,0,0,1,.063-.083l.006,0a.09.09,0,0,1,.117.071c.17,1.038.407,2.571.55,3.9.244,2.258,1.454,1.942,1.272-.343-.088-1.1-.27-2.687-.393-4.055a.089.089,0,0,1,.062-.093l.036-.012a.09.09,0,0,1,.114.057c.255.774.936,2.88,1.392,4.637.571,2.2,1.722,1.709,1.208-.525-.289-1.257-.8-3.142-1.132-4.6a.09.09,0,0,1,.061-.105h0a.09.09,0,0,1,.109.045c.2.4,1.213,2.421,1.906,4.1.772,1.868,1.851,1.238,1.13-.672s-2.318-5.484-2.014-5.763.882.142,1.75,1.2,1.583,1.269,1.9.925-1.244-2.222-2.322-3.963a11,11,0,0,0-2.66-2.641,2.559,2.559,0,0,0-2.3-.391l-1.392.437a2.543,2.543,0,0,0-1.769,2.071,12.283,12.283,0,0,0,.911,5.381c.019.88.028,1.884.007,2.789C59.638-251.027,60.88-251.182,61-253.472Z" transform="translate(-15.71 346.085)" fill="#fad77a"/>
      <path id="Trazado_105426" data-name="Trazado 105426" d="M32.991-352.481l12.078.961s3.4-13.21-4.973-13.877S32.991-352.481,32.991-352.481Z" transform="translate(-4.071 391.81)" fill="#baedfc"/>
      <rect id="Rectángulo_31075" data-name="Rectángulo 31075" width="11.594" height="4.999" transform="translate(22.79 147.899) rotate(-3.605)" fill="#19385f"/>
      <path id="Trazado_149229" data-name="Trazado 149229" d="M0,0H11.142V5H0Z" transform="translate(15.929 115.218) rotate(79.259)" fill="#064a93"/>
    </g>
  </g>
</svg>
