<svg xmlns="http://www.w3.org/2000/svg" width="87.059" height="120.001" viewBox="0 0 87.059 120.001">
  <g id="jpg-image-file-format" transform="translate(-75.6)">
    <g id="Grupo_85447" data-name="Grupo 85447" transform="translate(75.6 0)">
      <path id="Trazado_105532" data-name="Trazado 105532" d="M162.636,28.756a2.327,2.327,0,0,0-.562-1.524L138.939.8c-.007-.007-.014-.01-.018-.017A2.372,2.372,0,0,0,138.452.4c-.051-.033-.1-.062-.154-.092a2.411,2.411,0,0,0-.464-.194c-.044-.013-.083-.031-.126-.042a2.3,2.3,0,0,0-.54-.067H80.306A4.712,4.712,0,0,0,75.6,4.706V115.295A4.711,4.711,0,0,0,80.306,120h77.647a4.712,4.712,0,0,0,4.706-4.706V29.02A2.627,2.627,0,0,0,162.636,28.756ZM99.058,103.118c0,8.129-3.9,10.967-10.164,10.967a16.786,16.786,0,0,1-4.7-.678l.721-5.209a10.612,10.612,0,0,0,3.3.51c2.711,0,4.4-1.229,4.4-5.676V85.078h6.437v18.04Zm23.252-2.583c-2.2,2.075-5.465,3.005-9.275,3.005a16.2,16.2,0,0,1-2.2-.126v10.207h-6.395V85.46a52.707,52.707,0,0,1,8.724-.593c3.98,0,6.819.762,8.725,2.286a8.342,8.342,0,0,1,3.048,6.606A9.125,9.125,0,0,1,122.31,100.536Zm30.577,11.771a31.932,31.932,0,0,1-9.53,1.61c-5.207,0-8.977-1.313-11.6-3.853a13.806,13.806,0,0,1-4.024-10.377c.041-9.485,6.943-14.906,16.3-14.906a19.617,19.617,0,0,1,7.92,1.4L150.6,91.347a15.814,15.814,0,0,0-6.649-1.227c-5.377,0-9.442,3.049-9.442,9.233,0,5.886,3.683,9.359,8.978,9.359a8.63,8.63,0,0,0,3.175-.425v-5.969h-4.4V97.277h10.629v15.03ZM80.306,79.9V4.706h54.508V28.783a2.354,2.354,0,0,0,2.353,2.353h20.786V79.9Z" transform="translate(-75.6 0)" fill="#fdcf57"/>
      <path id="Trazado_105533" data-name="Trazado 105533" d="M239.98,411.888a10.917,10.917,0,0,0-2.668.255v8.426a9.925,9.925,0,0,0,2.161.17c3.431,0,5.549-1.737,5.549-4.658C245.022,413.455,243.2,411.888,239.98,411.888Z" transform="translate(-202.081 -322.152)" fill="#fdcf57"/>
      <g id="Grupo_85446" data-name="Grupo 85446" transform="translate(18.622 51.486)">
        <path id="Trazado_105534" data-name="Trazado 105534" d="M179.587,237.875c-9.4-9.4-18.51,26.961-18.51,26.961H192.4S188.989,247.281,179.587,237.875Z" transform="translate(-161.077 -236.322)" fill="#064a93"/>
        <path id="Trazado_105535" data-name="Trazado 105535" d="M314.822,287.5c-6.661,1.7-9.986,17.26-9.986,17.26H327.3C324.248,296.971,320.512,286.049,314.822,287.5Z" transform="translate(-273.516 -276.251)" fill="#064a93"/>
      </g>
      <path id="Trazado_105536" data-name="Trazado 105536" d="M140.152,163.16a5.826,5.826,0,1,0-5.832-5.827A5.826,5.826,0,0,0,140.152,163.16Z" transform="translate(-121.527 -118.5)" fill="#064a93"/>
      <path id="Trazado_105537" data-name="Trazado 105537" d="M297.143,193.636a16.538,16.538,0,0,0,3.256-.319,10.3,10.3,0,0,0,4.033.783c3.85,0,6.975-1.885,6.975-4.207s-3.124-4.208-6.975-4.208a10.436,10.436,0,0,0-3.9.719,2.517,2.517,0,0,0-1.752-.719h-1.01a2.49,2.49,0,0,0-2.465,2.233c-3.127.325-5.441,1.453-5.441,2.8C289.858,192.333,293.118,193.636,297.143,193.636Z" transform="translate(-243.179 -145.23)" fill="#064a93"/>
    </g>
  </g>
</svg>
