<svg xmlns="http://www.w3.org/2000/svg" width="87.059" height="120" viewBox="0 0 87.059 120">
  <g id="raw-file-format-symbol" transform="translate(-75.6)">
    <g id="Grupo_85501" data-name="Grupo 85501" transform="translate(75.6 0)">
      <path id="Trazado_105558" data-name="Trazado 105558" d="M241.014,415.146h-.075c-.376,1.5-.752,3.421-1.167,4.888l-1.5,5.377h5.6l-1.579-5.377C241.839,418.531,241.39,416.65,241.014,415.146Z" transform="translate(-202.829 -324.7)" fill="#004046"/>
      <path id="Trazado_105559" data-name="Trazado 105559" d="M162.634,28.756a2.312,2.312,0,0,0-.558-1.524L138.939.8c-.007-.007-.014-.01-.018-.017A2.371,2.371,0,0,0,138.452.4c-.051-.033-.1-.062-.154-.092a2.47,2.47,0,0,0-.464-.194c-.044-.013-.083-.031-.126-.042a2.3,2.3,0,0,0-.54-.067H80.306A4.711,4.711,0,0,0,75.6,4.706V115.295A4.71,4.71,0,0,0,80.306,120h77.647a4.712,4.712,0,0,0,4.706-4.706V29.02A2.077,2.077,0,0,0,162.634,28.756ZM94.947,111.5a31.625,31.625,0,0,1-1.767-5.9c-.677-3.158-1.767-4.021-4.1-4.057h-1.73V111.5H81.678v-25a50.27,50.27,0,0,1,7.63-.526c3.759,0,6.391.565,8.195,1.992a6.431,6.431,0,0,1,2.332,5.3,6.725,6.725,0,0,1-4.474,6.242v.112c1.765.714,2.744,2.408,3.385,4.737.788,2.857,1.579,6.166,2.066,7.143Zm24.477,0-1.956-6.5h-7.256l-1.8,6.5h-5.94l7.744-25.338h7.519L125.59,111.5Zm31.206,0h-6.2l-2.144-10.9c-.487-2.556-.9-4.924-1.2-7.82h-.075c-.451,2.857-.864,5.263-1.466,7.82l-2.406,10.9h-6.279L124.841,86.16h6.126l1.919,10.45c.563,3.008,1.089,6.279,1.5,8.835h.075c.415-2.744,1.015-5.789,1.653-8.909l2.144-10.377h6.089l2.032,10.676c.564,2.971.976,5.678,1.352,8.5h.076c.375-2.819.94-5.789,1.464-8.8l2.068-10.377h5.827ZM80.306,79.9V4.706h54.508V28.783a2.354,2.354,0,0,0,2.353,2.353h20.786V79.9Z" transform="translate(-75.6 0)" fill="#004046"/>
      <path id="Trazado_105560" data-name="Trazado 105560" d="M132.141,414.113a14.311,14.311,0,0,0-2.594.188v6.992H131.8c2.856,0,4.547-1.429,4.547-3.647C136.35,415.315,134.773,414.151,132.141,414.113Z" transform="translate(-117.794 -323.892)" fill="#004046"/>
      <path id="Trazado_105561" data-name="Trazado 105561" d="M299.342,165.766l15.6-4a27.1,27.1,0,0,0-6.386-15.191Z" transform="translate(-250.596 -114.64)" fill="#ff4b52"/>
      <path id="Trazado_105562" data-name="Trazado 105562" d="M184.389,222.386a27.109,27.109,0,0,0,12.4,10.856l-.131-21.292Z" transform="translate(-160.688 -165.773)" fill="#ff4b52"/>
      <path id="Trazado_105563" data-name="Trazado 105563" d="M275.887,123.368a27.1,27.1,0,0,0-15.9-4.321l9.453,19.078Z" transform="translate(-219.812 -93.1)" fill="#ff4b52"/>
      <path id="Trazado_105564" data-name="Trazado 105564" d="M250.041,254.976a27.1,27.1,0,0,0,16.187-3.09l-16.855-13Z" transform="translate(-211.514 -186.839)" fill="#ff4b52"/>
      <path id="Trazado_105565" data-name="Trazado 105565" d="M201.262,121.216a27.092,27.092,0,0,0-13.2,9.872l20.85,4.3Z" transform="translate(-163.564 -94.807)" fill="#ff4b52"/>
      <path id="Trazado_105566" data-name="Trazado 105566" d="M289.02,239.072a27.1,27.1,0,0,0,7.53-14.658l-20.623,5.279Z" transform="translate(-232.283 -175.522)" fill="#ff4b52"/>
      <path id="Trazado_105567" data-name="Trazado 105567" d="M177.6,176.774a27.116,27.116,0,0,0-.346,16.477l16.224-13.786Z" transform="translate(-154.257 -138.261)" fill="#ff4b52"/>
    </g>
  </g>
</svg>
