<svg xmlns="http://www.w3.org/2000/svg" width="80" height="70.446" viewBox="0 0 80 70.446">
  <g id="animacion-3" transform="translate(0 -30.572)">
    <g id="Grupo_85523" data-name="Grupo 85523" transform="translate(1.174 31.746)">
      <path id="Trazado_142766" data-name="Trazado 142766" d="M251.89,301.624h15.6v10.09h-15.6Z" transform="translate(-213.706 -260.446)" fill="#365e7d" fill-rule="evenodd"/>
      <path id="Trazado_142767" data-name="Trazado 142767" d="M322.615,304.374h4.549v9.23h-4.549Z" transform="translate(-273.38 -262.766)" fill="#2b4d66" fill-rule="evenodd"/>
      <path id="Trazado_142768" data-name="Trazado 142768" d="M166.617,38.084a4.788,4.788,0,0,1,4.775,4.775V70.975H109.7V42.859a4.788,4.788,0,0,1,4.775-4.775Z" transform="translate(-93.735 -38.084)" fill="#f0fcff" fill-rule="evenodd"/>
      <path id="Trazado_142770" data-name="Trazado 142770" d="M152.134,266.535a2.547,2.547,0,1,1,0,5.094H127.3a2.547,2.547,0,1,1,0-5.094Zm19.258-17.947v3.942a4.788,4.788,0,0,1-4.775,4.775h-52.14a4.788,4.788,0,0,1-4.775-4.775v-3.942Z" transform="translate(-93.735 -215.697)" fill="#dbf3ff" fill-rule="evenodd"/>
      <path id="Trazado_142772" data-name="Trazado 142772" d="M13.575,278.89h34.68a6.086,6.086,0,0,1,6.068,6.068V303.3a6.082,6.082,0,0,1-6.068,6.064H13.575A6.081,6.081,0,0,1,7.511,303.3V284.958a6.085,6.085,0,0,1,6.064-6.068Z" transform="translate(-7.511 -241.264)" fill="#fdcf57" fill-rule="evenodd"/>
      <path id="Trazado_142774" data-name="Trazado 142774" d="M414.684,97.213a4.195,4.195,0,1,0-4.194-4.195A4.2,4.2,0,0,0,414.684,97.213Z" transform="translate(-347.525 -80.896)" fill="#064a93" fill-rule="evenodd"/>
    </g>
    <path id="Trazado_142775" data-name="Trazado 142775" d="M49.155,81.415h4.633V74.523H49.155ZM68.333,38.5a5.37,5.37,0,1,1-5.2,6.71A6.212,6.212,0,0,0,60.264,47.7a21.628,21.628,0,0,0-3.048,8.048,1.171,1.171,0,0,1-2.3.013A21.709,21.709,0,0,0,51.861,47.7c-1.165-1.683-2.5-2.667-3.876-2.667s-2.711.983-3.876,2.667a21.633,21.633,0,0,0-3.047,8.048,1.171,1.171,0,0,1-2.3.013A21.706,21.706,0,0,0,35.708,47.7c-1.165-1.683-2.5-2.667-3.876-2.667s-2.711.983-3.876,2.667a21.706,21.706,0,0,0-3.052,8.061,1.17,1.17,0,0,1-2.3-.438,24.005,24.005,0,0,1,3.428-8.951c1.608-2.325,3.6-3.681,5.8-3.681s4.19,1.355,5.8,3.681a19.45,19.45,0,0,1,2.276,4.642,19.624,19.624,0,0,1,2.281-4.642c1.608-2.325,3.6-3.681,5.8-3.681s4.19,1.355,5.8,3.681a19.45,19.45,0,0,1,2.277,4.642,19.618,19.618,0,0,1,2.281-4.642,7.929,7.929,0,0,1,4.73-3.57A5.369,5.369,0,0,1,68.333,38.5Zm2.139,3.229a3.026,3.026,0,1,0,.886,2.139A3.027,3.027,0,0,0,70.473,41.729ZM27.744,76.414a1.174,1.174,0,1,1,2.347,0V92.807a1.174,1.174,0,0,1-2.347,0Zm-6.418.43a1.171,1.171,0,0,1-1.311,1.94,7,7,0,0,0-1.869-.9,7.07,7.07,0,0,0-7.029,1.758,7.027,7.027,0,0,0,4.97,11.994A5.393,5.393,0,0,0,20.308,89.8a7.421,7.421,0,0,0,1.621-4.022H18.262a1.172,1.172,0,1,1,0-2.343h4.9a1.172,1.172,0,0,1,1.174,1.169,10.242,10.242,0,0,1-2.263,6.723,7.649,7.649,0,0,1-5.988,2.649,9.37,9.37,0,0,1,0-18.74,9.423,9.423,0,0,1,5.24,1.6Zm19.94-1.6a1.171,1.171,0,1,1,0,2.343H35.845v5.638h4.9a1.174,1.174,0,1,1,0,2.348h-4.9v7.118a1.174,1.174,0,0,1-2.348,0V76.414a1.173,1.173,0,0,1,1.174-1.174ZM2.343,81.955a1.171,1.171,0,1,1-2.343,0V75.44A7.259,7.259,0,0,1,7.237,68.2h8.734V53.232a1.171,1.171,0,0,1,2.343,0V63.463H77.657V53.232a1.171,1.171,0,0,1,2.343,0V68.579a5.958,5.958,0,0,1-5.944,5.944H56.131v6.892h3.441a3.718,3.718,0,0,1,0,7.437H49.155v4.93a7.252,7.252,0,0,1-7.237,7.237H7.237A7.259,7.259,0,0,1,0,93.781V87.266a1.171,1.171,0,1,1,2.343,0v6.515a4.915,4.915,0,0,0,4.894,4.894h34.68a4.915,4.915,0,0,0,4.894-4.894V75.44a4.915,4.915,0,0,0-4.894-4.894H7.237A4.915,4.915,0,0,0,2.343,75.44ZM18.315,68.2h23.6a7.259,7.259,0,0,1,6.458,3.977h25.68a3.614,3.614,0,0,0,3.6-3.6V65.811H18.315ZM60.543,84.161a1.365,1.365,0,0,0-.97-.4H49.155v2.751H59.572a1.372,1.372,0,0,0,.97-2.348ZM18.315,47.926a1.171,1.171,0,0,1-2.343,0V36.521a5.958,5.958,0,0,1,5.944-5.949h52.14A5.958,5.958,0,0,1,80,36.521V47.926a1.171,1.171,0,0,1-2.343,0V36.521a3.614,3.614,0,0,0-3.6-3.605H21.916a3.614,3.614,0,0,0-3.6,3.605V47.926Z" transform="translate(0 0)"/>
  </g>
</svg>
