<svg xmlns="http://www.w3.org/2000/svg" width="87.059" height="120.001" viewBox="0 0 87.059 120.001">
  <g id="tiff-images-file-extension-symbol-for-interface" transform="translate(-75.6)">
    <g id="Grupo_85481" data-name="Grupo 85481" transform="translate(75.6 0)">
      <path id="Trazado_105547" data-name="Trazado 105547" d="M162.636,28.755a2.329,2.329,0,0,0-.562-1.523L138.939.8c-.007-.006-.014-.01-.018-.015a2.333,2.333,0,0,0-.469-.393c-.051-.033-.1-.063-.154-.092a2.332,2.332,0,0,0-.464-.194c-.044-.013-.083-.032-.126-.041a2.289,2.289,0,0,0-.54-.067H80.306A4.711,4.711,0,0,0,75.6,4.706V115.295A4.712,4.712,0,0,0,80.306,120h77.647a4.712,4.712,0,0,0,4.706-4.706V29.019A2.646,2.646,0,0,0,162.636,28.755ZM102.461,89.961H94.669v23.123H88.192V89.961H80.526v-5.42h21.935Zm9.913,23.123h-6.48V84.541h6.48Zm23.038-23.249H124.444v6.521h10.248v5.251H124.444v11.478h-6.48V84.541h17.447Zm22.321,0h-10.97v6.521h10.249v5.251H146.763v11.478h-6.477V84.541h17.447v5.294ZM80.306,79.9V4.706h54.508V28.782a2.354,2.354,0,0,0,2.353,2.353h20.786V79.9H80.306Z" transform="translate(-75.6 0)" fill="#004046"/>
      <path id="Trazado_105548" data-name="Trazado 105548" d="M196.577,146.783H172.445l-1.76-3.544a1.909,1.909,0,0,0-1.653-.944h-10.8a2.05,2.05,0,0,0-1.5.944l-1.654,3.544h-6.266a4.728,4.728,0,0,0-4.726,4.729v28.373a4.728,4.728,0,0,0,4.726,4.73h47.763a4.729,4.729,0,0,0,4.729-4.73V151.513A4.73,4.73,0,0,0,196.577,146.783Zm-16.906,30.974h-7.085c-.975-2.247-2.168-5.85-3.971-5.434-1.989.453-3.055,4.823-3.192,5.434h-.034c-.137-.659-1.278-5.7-4.1-8.226-2.876-2.578-5.67,7.321-5.92,8.226h-6.2v-23.88h30.5v23.88Zm10.9-3.656a8.512,8.512,0,1,1,8.508-8.512A8.523,8.523,0,0,1,190.567,174.1Z" transform="translate(-129.168 -111.294)" fill="#ff4b52"/>
      <path id="Trazado_105549" data-name="Trazado 105549" d="M330.251,214.495a7.566,7.566,0,1,0,7.565,7.566A7.575,7.575,0,0,0,330.251,214.495Zm-4.375,10.048-2.484-2.483,2.484-2.482Zm4.375,4.1-2.486-2.484h4.965Zm-2.486-10.68,2.486-2.482,2.478,2.482Zm6.307,6.582v-4.966l2.483,2.482Z" transform="translate(-268.851 -167.764)" fill="#ff4b52"/>
      <path id="Trazado_105550" data-name="Trazado 105550" d="M225.628,220.542a9.965,9.965,0,0,0,1.775-.154,6.213,6.213,0,0,0,2.206.384c2.1,0,3.8-.924,3.8-2.058s-1.7-2.056-3.8-2.056a6.221,6.221,0,0,0-2.133.352,1.451,1.451,0,0,0-.955-.352h-.557a1.317,1.317,0,0,0-1.342,1.089c-1.7.164-2.968.711-2.968,1.369C221.653,219.907,223.435,220.542,225.628,220.542Z" transform="translate(-189.833 -169.457)" fill="#ff4b52"/>
      <circle id="Elipse_4298" data-name="Elipse 4298" cx="1.703" cy="1.703" r="1.703" transform="translate(26.1 47.186)" fill="#ff4b52"/>
    </g>
  </g>
</svg>
