<svg xmlns="http://www.w3.org/2000/svg" xmlns:xlink="http://www.w3.org/1999/xlink" width="586.064" height="224.848" viewBox="0 0 586.064 224.848">
  <defs>
    <linearGradient id="linear-gradient" x1="0.5" y1="1" x2="0.5" gradientUnits="objectBoundingBox">
      <stop offset="0" stop-color="#c1e1ea"/>
      <stop offset="1" stop-color="#fafeff"/>
    </linearGradient>
    <filter id="Rectángulo_33148" x="410.873" y="157.627" width="114.995" height="67.221" filterUnits="userSpaceOnUse">
      <feOffset dy="3" input="SourceAlpha"/>
      <feGaussianBlur stdDeviation="3" result="blur"/>
      <feFlood flood-opacity="0.353"/>
      <feComposite operator="in" in2="blur"/>
      <feComposite in="SourceGraphic"/>
    </filter>
    <filter id="Rectángulo_33171" x="486.959" y="202.026" width="23.676" height="9.14" filterUnits="userSpaceOnUse">
      <feOffset dy="1" input="SourceAlpha"/>
      <feGaussianBlur stdDeviation="0.5" result="blur-2"/>
      <feFlood flood-opacity="0.161"/>
      <feComposite operator="in" in2="blur-2"/>
      <feComposite in="SourceGraphic"/>
    </filter>
    <linearGradient id="linear-gradient-2" x1="0.5" x2="0.5" y2="1" gradientUnits="objectBoundingBox">
      <stop offset="0" stop-color="#064a93"/>
      <stop offset="1" stop-color="#053467"/>
    </linearGradient>
    <linearGradient id="linear-gradient-3" y1="0.5" x2="1" y2="0.5" gradientUnits="objectBoundingBox">
      <stop offset="0" stop-color="#ff4b52"/>
      <stop offset="0.099" stop-color="#ff624c"/>
      <stop offset="0.282" stop-color="#ff8644"/>
      <stop offset="0.465" stop-color="#ffa33d"/>
      <stop offset="0.647" stop-color="#ffb838"/>
      <stop offset="0.826" stop-color="#ffc435"/>
      <stop offset="1" stop-color="#ffc935"/>
    </linearGradient>
    <linearGradient id="linear-gradient-4" y1="0.5" x2="1" y2="0.5" gradientUnits="objectBoundingBox">
      <stop offset="0" stop-color="#5b60ef"/>
      <stop offset="0.05" stop-color="#6a5ddf"/>
      <stop offset="0.211" stop-color="#9758b4"/>
      <stop offset="0.372" stop-color="#bc5391"/>
      <stop offset="0.533" stop-color="#d94f75"/>
      <stop offset="0.691" stop-color="#ee4d61"/>
      <stop offset="0.848" stop-color="#fa4b55"/>
      <stop offset="1" stop-color="#ff4b52"/>
    </linearGradient>
    <linearGradient id="linear-gradient-5" y1="0.5" x2="1" y2="0.5" gradientUnits="objectBoundingBox">
      <stop offset="0" stop-color="#71ebe8"/>
      <stop offset="0.143" stop-color="#6bc6e9"/>
      <stop offset="0.317" stop-color="#65a2eb"/>
      <stop offset="0.491" stop-color="#6085ed"/>
      <stop offset="0.664" stop-color="#5d70ee"/>
      <stop offset="0.835" stop-color="#5b64ee"/>
      <stop offset="1" stop-color="#5b60ef"/>
    </linearGradient>
    <linearGradient id="linear-gradient-6" x1="2.054" y1="-37.949" x2="2.712" y2="-37.21" xlink:href="#linear-gradient"/>
    <linearGradient id="linear-gradient-7" x1="0.465" y1="1.425" x2="0.488" y2="-0.197" xlink:href="#linear-gradient"/>
    <linearGradient id="linear-gradient-8" x1="0.005" y1="-0.027" x2="0.995" y2="1.027" gradientUnits="objectBoundingBox">
      <stop offset="0" stop-color="#b899a8"/>
      <stop offset="0.681" stop-color="#e8dfe3"/>
      <stop offset="1" stop-color="#fbfbfb"/>
    </linearGradient>
    <linearGradient id="linear-gradient-9" x1="-90.401" y1="-25.511" x2="-90.484" y2="-24.79" gradientUnits="objectBoundingBox">
      <stop offset="0" stop-color="#ffa0a4"/>
      <stop offset="0.144" stop-color="#ff9a9e"/>
      <stop offset="1" stop-color="#ff7e83"/>
    </linearGradient>
    <linearGradient id="linear-gradient-10" x1="-74.427" y1="-24.682" x2="-75.188" y2="-24.813" gradientUnits="objectBoundingBox">
      <stop offset="0" stop-color="#e2131b"/>
      <stop offset="0.408" stop-color="#cb131b"/>
      <stop offset="1" stop-color="#af151b"/>
    </linearGradient>
    <linearGradient id="linear-gradient-11" x1="-70.161" y1="-26.333" x2="-69.29" y2="-25.988" xlink:href="#linear-gradient-10"/>
    <linearGradient id="linear-gradient-12" x1="-88.568" y1="-25.682" x2="-88.585" y2="-24.909" xlink:href="#linear-gradient-9"/>
    <linearGradient id="linear-gradient-13" x1="-88.262" y1="-24.821" x2="-88.289" y2="-24.003" xlink:href="#linear-gradient-9"/>
    <linearGradient id="linear-gradient-14" x1="-73.408" y1="-25.183" x2="-72.273" y2="-24.906" xlink:href="#linear-gradient-10"/>
  </defs>
  <g id="Grupo_86951" data-name="Grupo 86951" transform="translate(-856.299 -104.001)">
    <g id="Grupo_86826" data-name="Grupo 86826" transform="translate(1276.172 267.627)">
      <g id="Grupo_86811" data-name="Grupo 86811" transform="translate(0 0.001)">
        <g transform="matrix(1, 0, 0, 1, -419.87, -163.63)" filter="url(#Rectángulo_33148)">
          <rect id="Rectángulo_33148-2" data-name="Rectángulo 33148" width="96.995" height="49.221" rx="1.993" transform="translate(419.87 163.63)" fill="url(#linear-gradient)"/>
        </g>
      </g>
      <g transform="matrix(1, 0, 0, 1, -419.87, -163.63)" filter="url(#Rectángulo_33171)">
        <rect id="Rectángulo_33171-2" data-name="Rectángulo 33171" width="20.676" height="6.14" rx="0.325" transform="translate(488.46 202.53)" fill="#f0fcff"/>
      </g>
      <g id="Grupo_86815" data-name="Grupo 86815" transform="translate(4.361 5.155)">
        <rect id="Rectángulo_33195" data-name="Rectángulo 33195" width="11.169" height="11.336" rx="0.325" transform="translate(0 0)" fill="none" stroke="#2f94ff" stroke-linecap="square" stroke-width="3"/>
      </g>
      <g id="Grupo_86913" data-name="Grupo 86913" transform="translate(10.894 10.429)">
        <rect id="Rectángulo_33195-2" data-name="Rectángulo 33195" width="11.169" height="11.336" rx="0.325" fill="#064a93"/>
      </g>
      <g id="Grupo_86817" data-name="Grupo 86817" transform="translate(5.849 39.153)">
        <rect id="Rectángulo_33218" data-name="Rectángulo 33218" width="5.177" height="5.254" rx="0.15" fill="#f9f4f7"/>
      </g>
      <g id="Grupo_86819" data-name="Grupo 86819" transform="translate(11.858 39.153)">
        <rect id="Rectángulo_33241" data-name="Rectángulo 33241" width="5.177" height="5.254" rx="0.15" fill="url(#linear-gradient-2)"/>
      </g>
      <g id="Grupo_86821" data-name="Grupo 86821" transform="translate(17.866 39.153)">
        <rect id="Rectángulo_33264" data-name="Rectángulo 33264" width="5.177" height="5.254" rx="0.15" fill="#f9f4f7"/>
      </g>
      <g id="Grupo_86822" data-name="Grupo 86822" transform="translate(28.034 10.824)">
        <path id="Trazado_148894" data-name="Trazado 148894" d="M1061.582,1747.65H1001.4a.771.771,0,0,1-.771-.771h0a.77.77,0,0,1,.771-.771h60.178a.771.771,0,0,1,.771.771h0A.771.771,0,0,1,1061.582,1747.65Z" transform="translate(-1000.633 -1745.9)" opacity="0.1"/>
        <path id="Trazado_148895" data-name="Trazado 148895" d="M1061.582,1747.445H1001.4a.771.771,0,0,1-.771-.771h0a.77.77,0,0,1,.771-.771h60.178a.771.771,0,0,1,.771.771h0A.771.771,0,0,1,1061.582,1747.445Z" transform="translate(-1000.633 -1745.903)" fill="url(#linear-gradient-3)"/>
      </g>
      <g id="Grupo_86823" data-name="Grupo 86823" transform="translate(28.034 21.766)">
        <path id="Trazado_148896" data-name="Trazado 148896" d="M1061.582,1758.408H1001.4a.77.77,0,0,1-.771-.771h0a.77.77,0,0,1,.771-.771h60.178a.77.77,0,0,1,.771.771h0A.77.77,0,0,1,1061.582,1758.408Z" transform="translate(-1000.633 -1756.658)" opacity="0.1"/>
        <path id="Trazado_148897" data-name="Trazado 148897" d="M1061.582,1758.2H1001.4a.77.77,0,0,1-.771-.771h0a.77.77,0,0,1,.771-.771h60.178a.771.771,0,0,1,.771.771h0A.771.771,0,0,1,1061.582,1758.2Z" transform="translate(-1000.633 -1756.661)" fill="url(#linear-gradient-4)"/>
      </g>
      <g id="Grupo_86824" data-name="Grupo 86824" transform="translate(28.034 32.709)">
        <path id="Trazado_148898" data-name="Trazado 148898" d="M1061.582,1769.167H1001.4a.771.771,0,0,1-.771-.771h0a.77.77,0,0,1,.771-.771h60.178a.771.771,0,0,1,.771.771h0A.771.771,0,0,1,1061.582,1769.167Z" transform="translate(-1000.633 -1767.417)" opacity="0.1"/>
        <path id="Trazado_148899" data-name="Trazado 148899" d="M1061.582,1768.962H1001.4a.771.771,0,0,1-.771-.771h0a.77.77,0,0,1,.771-.771h60.178a.771.771,0,0,1,.771.771h0A.771.771,0,0,1,1061.582,1768.962Z" transform="translate(-1000.633 -1767.42)" fill="url(#linear-gradient-5)"/>
      </g>
      <g id="Grupo_86825" data-name="Grupo 86825" transform="translate(5.981 39.136)">
        <rect id="Rectángulo_33265" data-name="Rectángulo 33265" width="7.06" height="0.157" transform="matrix(0.679, -0.734, 0.734, 0.679, 0, 5.18)" fill="#fa575d"/>
      </g>
    </g>
    <g id="Grupo_86907" data-name="Grupo 86907" transform="translate(1394.523 239.303)">
      <g id="Grupo_86906" data-name="Grupo 86906" transform="translate(0 0)">
        <g id="Grupo_86905" data-name="Grupo 86905" transform="translate(7.31 2.665)">
          <path id="Trazado_149192" data-name="Trazado 149192" d="M4533.535,2931.74a30.183,30.183,0,0,1-38.7,18.021l20.676-56.717A30.183,30.183,0,0,1,4533.535,2931.74Z" transform="translate(-4494.839 -2893.044)" fill="url(#linear-gradient-6)"/>
        </g>
        <path id="Trazado_149225" data-name="Trazado 149225" d="M30.184,0c16.67,0,30.184,3.483,30.184,7.78s-13.514,7.78-30.184,7.78S0,12.077,0,7.78,13.514,0,30.184,0Z" transform="translate(0 56.717) rotate(-69.971)" fill="url(#linear-gradient-7)"/>
      </g>
    </g>
    <g id="Grupo_86909" data-name="Grupo 86909" transform="translate(856.299 250.473)">
      <g id="Grupo_86908" data-name="Grupo 86908" transform="translate(0 0)">
        <path id="Trazado_149193" data-name="Trazado 149193" d="M2302.849,2707.792l-4.3-1.04,5.489,2.5,4.3,1.039Z" transform="translate(-2298.547 -2676.562)" fill="#8db6c3"/>
        <path id="Trazado_149194" data-name="Trazado 149194" d="M2355.144,2613.134l-5.489-2.5,3.256,3.411,5.489,2.5Z" transform="translate(-2336.635 -2604.933)" fill="#8db6c3"/>
        <path id="Trazado_149195" data-name="Trazado 149195" d="M2323.288,2771.027l-4.107,2.915,5.489,2.5,4.107-2.915Z" transform="translate(-2313.924 -2724.463)" fill="#8db6c3"/>
        <path id="Trazado_149196" data-name="Trazado 149196" d="M2421.462,2588.939l-.216,5.613,5.489,2.5.215-5.612Z" transform="translate(-2389.989 -2588.762)" fill="#8db6c3"/>
        <path id="Trazado_149197" data-name="Trazado 149197" d="M2347.536,2662.8c-.031-.21-.057-.421-.079-.635a.365.365,0,0,1,0-.036c-.021-.2-.037-.405-.049-.61,0-.07-.008-.141-.01-.212q-.011-.224-.017-.45c0-.081,0-.162,0-.243,0-.146,0-.294,0-.442,0-.079,0-.159.005-.24.006-.166.014-.333.024-.5,0-.061.006-.121.011-.182q.023-.341.062-.687c.015-.134.033-.269.051-.4.008-.067.016-.134.025-.2.029-.2.062-.409.1-.614.04-.229.087-.458.136-.685.02-.093.042-.185.063-.277.034-.15.071-.3.109-.449q.037-.142.074-.283.066-.242.138-.482c.019-.061.036-.122.055-.184.068-.22.14-.439.216-.656.1-.3.214-.586.332-.875.034-.086.072-.171.107-.257q.122-.287.25-.57c.043-.093.085-.186.13-.278q.125-.26.257-.516c.044-.084.086-.168.13-.251q.16-.3.33-.593c.026-.044.051-.091.077-.136q.21-.357.434-.7c.042-.064.086-.126.127-.19.11-.165.22-.328.335-.49.057-.08.115-.158.173-.238.106-.145.214-.289.325-.431.062-.08.125-.159.188-.238q.179-.222.363-.437c.06-.069.118-.139.178-.207.188-.214.38-.425.576-.627l0,0c.2-.212.416-.416.629-.616.109-.1.219-.2.331-.3l.1-.094q.239-.209.484-.408l.169-.133c.117-.093.236-.185.354-.274.067-.05.135-.1.2-.148q.155-.112.31-.219c.114-.078.229-.154.344-.228.089-.058.177-.115.266-.17.119-.073.237-.144.357-.213.1-.057.194-.115.292-.169l.122-.066c.171-.093.342-.182.515-.267l.028-.015c.181-.088.362-.17.545-.25l.127-.055c.182-.077.365-.151.549-.22l.055-.02c.172-.063.344-.121.517-.177l.124-.039c.185-.057.37-.11.557-.159l.1-.024q.25-.063.5-.114l.11-.023q.282-.055.564-.1l.124-.016c.173-.023.347-.043.52-.058l.075-.007c.191-.016.382-.026.574-.031l.133,0c.2,0,.39,0,.586,0a9.99,9.99,0,0,1,3.8.881l-5.488-2.5a9.994,9.994,0,0,0-3.8-.881c-.2-.007-.39-.007-.585,0l-.134,0c-.191.006-.383.015-.574.031l-.075.008c-.174.015-.347.035-.521.058l-.123.017c-.189.027-.377.059-.565.1l-.109.023q-.252.052-.5.115l-.1.024c-.186.049-.372.1-.557.159l-.124.04c-.173.055-.345.113-.516.177l-.055.02c-.184.068-.367.143-.55.22l-.127.055c-.183.08-.364.162-.545.25l-.028.014c-.174.085-.345.175-.516.267l-.121.066-.1.055c-.064.036-.126.076-.19.113-.12.07-.238.14-.357.213-.09.055-.177.113-.266.17-.115.075-.229.15-.343.229-.038.026-.076.049-.115.076-.066.046-.131.1-.2.143s-.135.1-.2.147c-.12.089-.238.181-.355.274-.056.045-.113.087-.168.133l-.043.034c-.148.122-.3.246-.441.374-.036.031-.07.063-.1.094-.086.076-.173.152-.258.232-.025.023-.049.049-.073.072-.213.2-.424.4-.628.615l0,0h0c-.2.2-.387.413-.575.626l-.058.063c-.041.047-.079.1-.12.144q-.184.215-.363.437c-.031.04-.066.078-.1.118s-.06.081-.091.12q-.164.213-.324.43c-.039.054-.081.1-.119.159-.019.026-.036.053-.055.079-.114.161-.224.324-.334.489-.035.053-.073.1-.107.157-.007.011-.013.022-.021.033q-.224.346-.434.7l-.011.017c-.023.04-.044.081-.067.121-.113.2-.223.391-.329.591-.013.023-.027.046-.039.07-.032.06-.06.122-.091.182-.088.17-.173.341-.257.515-.02.043-.043.085-.064.129s-.043.1-.066.151q-.129.281-.249.568c-.025.058-.052.115-.076.173-.011.028-.021.057-.032.085-.117.288-.228.579-.331.874,0,.006,0,.011-.006.017-.074.211-.143.424-.21.639-.019.061-.037.122-.055.183-.028.093-.057.186-.083.28-.019.067-.035.135-.054.2-.025.095-.051.189-.075.284-.038.149-.074.3-.109.448-.021.093-.043.185-.063.278-.008.038-.018.076-.026.114-.039.189-.077.379-.11.571s-.069.411-.1.614c-.01.068-.017.136-.026.2-.017.125-.034.252-.048.377,0,.008,0,.016,0,.024q-.038.346-.062.688c0,.061-.007.12-.01.18-.01.168-.019.336-.024.5,0,.081,0,.16-.006.24q0,.222,0,.442c0,.081,0,.162,0,.243q.005.227.017.451c0,.071.005.142.01.212q.019.306.049.606c0,.013,0,.027,0,.04.022.214.049.425.079.634.009.065.02.129.03.194q.034.217.074.432c.013.074.029.148.043.223.027.134.057.267.087.4.01.044.018.088.028.131.006.024.013.046.02.07.058.235.12.466.188.694.01.034.022.068.033.1q.092.3.2.593c.011.031.021.064.032.1s.022.055.033.083c.041.111.085.219.129.328.027.066.054.133.082.2.051.12.105.238.159.356.02.043.039.088.059.132,0,.008.009.016.012.025.031.066.066.131.1.2.043.086.086.173.131.258.035.066.072.131.108.2s.075.139.114.207c.005.009.011.016.015.025.132.226.271.445.416.658.014.022.026.045.041.066s.027.036.04.055q.2.293.423.571c.007.01.014.021.022.031s.037.042.055.065c.125.154.254.3.386.451.02.021.037.045.057.066l.031.031c.145.157.3.309.448.456l.033.033c.023.021.047.041.071.062q.193.179.393.347l.072.064c.013.011.027.02.041.031.162.131.326.257.494.377.01.006.018.013.027.02s.048.031.072.047c.144.1.291.2.44.289.027.017.052.036.079.052l.055.031c.182.109.367.213.557.31l.022.011c.125.064.253.125.382.184l5.489,2.5c-.136-.062-.271-.128-.4-.2-.19-.1-.375-.2-.557-.31l-.135-.083c-.149-.093-.3-.188-.44-.289l-.1-.068q-.252-.181-.493-.378l-.113-.094q-.2-.169-.394-.348c-.034-.032-.069-.063-.1-.1q-.231-.22-.449-.456c-.031-.032-.059-.065-.088-.1q-.2-.219-.386-.451c-.026-.031-.052-.063-.077-.095-.147-.184-.287-.375-.423-.571l-.081-.12c-.145-.214-.285-.433-.416-.659-.044-.075-.087-.152-.129-.229s-.074-.131-.11-.2c-.044-.085-.087-.171-.131-.257-.033-.066-.067-.131-.1-.2s-.047-.1-.071-.157c-.055-.118-.109-.236-.16-.356-.028-.066-.054-.132-.081-.2-.044-.108-.088-.217-.129-.327-.022-.059-.044-.119-.065-.178-.07-.195-.137-.392-.2-.592-.01-.034-.022-.068-.033-.1-.068-.228-.131-.459-.189-.693q-.024-.1-.047-.2c-.031-.132-.06-.266-.087-.4-.015-.074-.03-.148-.044-.223-.027-.142-.051-.286-.073-.431C2347.557,2662.93,2347.545,2662.865,2347.536,2662.8Z" transform="translate(-2330.845 -2626.946)" fill="#8db6c3"/>
        <path id="Trazado_149198" data-name="Trazado 149198" d="M2362.282,2788.027l-5.489-2.5a14.768,14.768,0,0,1-2.683-.92l5.489,2.5q.319.145.647.276a14.884,14.884,0,0,0,2.035.645Z" transform="translate(-2339.956 -2734.585)" fill="url(#linear-gradient-8)"/>
        <path id="Trazado_149199" data-name="Trazado 149199" d="M2432.707,2615.128l.181.105c.13.076.258.154.386.234l.167.105q.242.157.479.323l.047.032q.258.182.508.377l.145.115q.181.143.357.292l.157.134c.127.11.251.221.374.335.034.032.069.062.1.094q.246.231.484.474l5.489,2.5q-.223-.228-.453-.446l-.03-.027c-.033-.032-.069-.063-.1-.1-.123-.113-.248-.225-.373-.334l-.158-.134c-.05-.042-.1-.086-.149-.127-.069-.056-.139-.11-.208-.165l-.145-.115c-.164-.127-.33-.251-.5-.371l-.009-.006-.047-.031q-.236-.167-.479-.323l-.167-.105c-.066-.042-.131-.084-.2-.124s-.126-.073-.188-.11l-.181-.106c-.15-.084-.3-.167-.454-.247l-.108-.058-.026-.014q-.29-.148-.587-.282l-5.489-2.5q.31.141.613.3c.037.019.072.039.109.058Q2432.481,2615,2432.707,2615.128Z" transform="translate(-2397.653 -2607.832)" fill="#8db6c3"/>
        <path id="Trazado_149200" data-name="Trazado 149200" d="M2368.753,2808.577l-4.887-.177,5.488,2.5,4.887.177Z" transform="translate(-2347.227 -2752.315)" fill="#8db6c3"/>
        <path id="Trazado_149201" data-name="Trazado 149201" d="M2384.666,2789.119l-1.616,5.089,5.489,2.5,1.616-5.088Z" transform="translate(-2361.522 -2737.946)" fill="#8db6c3"/>
        <path id="Trazado_149202" data-name="Trazado 149202" d="M2472.265,2617.37l-5.488-2.5,2.725,4.24,5.489,2.5Z" transform="translate(-2423.92 -2608.09)" fill="#8db6c3"/>
        <path id="Trazado_149203" data-name="Trazado 149203" d="M2467.172,2631.519l-3.521,4.425,5.489,2.5,3.521-4.425Z" transform="translate(-2421.59 -2620.495)" fill="#8db6c3"/>
        <path id="Trazado_149204" data-name="Trazado 149204" d="M2403.8,2776.747h0l-5.488-2.5c-.132.095-.264.186-.4.278l-.209.143c-.1.067-.2.132-.3.2l-.2.132c-.106.068-.212.133-.319.2-.062.038-.125.078-.188.115-.125.076-.252.149-.378.222l-.134.079-.062.034q-.333.187-.67.361c-.061.032-.121.064-.183.094-.242.123-.485.243-.73.355l-.048.022c-.232.106-.464.207-.7.3l-.188.077c-.249.1-.5.2-.749.287l-.034.012c-.242.086-.484.166-.728.242l-.192.059c-.254.077-.509.15-.765.216l-.018,0c-.251.064-.5.121-.755.174l-.2.04c-.259.052-.518.1-.778.14l5.489,2.5c.26-.041.519-.089.778-.14l.2-.04c.252-.053.5-.11.755-.174l.018,0c.256-.065.511-.139.765-.215l.193-.059c.243-.076.486-.155.727-.242l.034-.012c.251-.089.5-.187.75-.287l.188-.078c.234-.1.468-.2.7-.3l.047-.021c.245-.113.488-.233.73-.356l.182-.094c.224-.117.448-.237.669-.362l.048-.026.016-.009.132-.077q.191-.11.38-.224l.188-.115c.106-.066.213-.132.318-.2l.2-.133c.1-.064.2-.13.3-.2l.208-.142c.052-.036.1-.071.156-.107l.24-.17Z" transform="translate(-2366.251 -2726.865)" fill="#8db6c3"/>
        <path id="Trazado_149205" data-name="Trazado 149205" d="M2470.835,2659.962q0-.27-.01-.538c0-.082-.005-.165-.008-.247q-.012-.287-.031-.573c0-.058-.006-.116-.01-.174q-.026-.367-.062-.73c-.006-.057-.013-.114-.019-.171-.021-.187-.042-.372-.066-.557-.01-.079-.021-.157-.033-.236q-.036-.256-.078-.508c-.011-.071-.023-.143-.036-.215q-.061-.351-.132-.7v0c-.048-.23-.1-.457-.153-.683-.006-.023-.011-.047-.016-.07-.016-.063-.033-.126-.049-.19-.027-.108-.055-.216-.084-.323-.024-.09-.049-.18-.075-.269-.03-.105-.06-.21-.091-.315q-.04-.134-.082-.267c-.032-.1-.065-.206-.1-.308l-.089-.264-.107-.3c-.016-.042-.03-.085-.045-.127s-.024-.06-.036-.091c-.092-.243-.186-.485-.285-.722l-5.489-2.5c.1.237.194.479.286.722.027.073.054.144.08.217.036.1.072.2.107.3s.06.176.09.264.066.2.1.308c.027.088.055.177.082.266s.061.21.092.315c.025.09.051.18.075.27.028.106.056.214.083.321.022.087.044.174.065.261.054.225.105.45.153.678l0,.008c.048.23.091.463.132.7.012.072.024.145.036.217.028.168.053.336.078.506.011.079.022.158.033.238.024.184.046.369.066.554.007.059.013.116.02.174.024.242.045.485.063.73,0,.058.006.115.01.174q.018.285.03.573c0,.082.006.164.008.247.006.179.009.358.011.538,0,.077,0,.154,0,.231,0,.253,0,.507-.01.762l5.489,2.5c.008-.256.01-.509.01-.762C2470.837,2660.115,2470.836,2660.039,2470.835,2659.962Z" transform="translate(-2421.591 -2633.44)" fill="#8db6c3"/>
        <path id="Trazado_149206" data-name="Trazado 149206" d="M2455.539,2720.34c.053-.143.106-.287.157-.431.015-.042.031-.083.045-.125s.024-.075.037-.112c.105-.306.208-.613.3-.924l-5.489-2.5c-.1.31-.2.617-.3.923l-.083.237c-.052.145-.1.287-.157.431-.034.09-.067.181-.1.271-.059.154-.12.306-.181.458-.032.078-.062.156-.094.233-.059.144-.121.287-.182.429-.033.076-.063.152-.1.226q-.127.288-.26.573l-.033.073c-.1.209-.2.417-.3.624-.029.058-.059.115-.089.173-.075.147-.15.295-.226.441-.051.1-.1.19-.155.286s-.112.209-.169.313-.107.187-.16.281-.117.206-.177.308l-.029.049q-.33.559-.681,1.1l-.026.039q-.354.543-.728,1.066l-.032.043q-.364.506-.745.992h0l5.489,2.5q.381-.486.745-.992l.023-.031.009-.012q.374-.523.728-1.066l.02-.028.006-.011q.352-.54.681-1.1l.018-.03.01-.018c.061-.1.12-.211.18-.316s.1-.181.156-.273.116-.214.175-.322c.047-.087.1-.174.142-.261l.007-.015c.078-.147.153-.3.228-.445.029-.057.058-.113.086-.17.1-.206.2-.415.3-.624v0l.03-.064q.134-.288.263-.579c.032-.074.063-.148.094-.222.062-.144.125-.288.185-.434l.019-.046c.025-.061.048-.123.073-.185.061-.153.122-.306.181-.46C2455.472,2720.521,2455.505,2720.43,2455.539,2720.34Z" transform="translate(-2408.126 -2683.642)" fill="#8db6c3"/>
        <path id="Trazado_149207" data-name="Trazado 149207" d="M2451.073,2756.311l-5.489-2.5,1.82,4.387,5.489,2.5Z" transform="translate(-2408.126 -2711.635)" fill="#8db6c3"/>
        <path id="Trazado_149208" data-name="Trazado 149208" d="M2440.488,2771.038l-4.185,3.993,5.489,2.5,4.185-3.992Z" transform="translate(-2401.209 -2724.471)" fill="#8db6c3"/>
        <path id="Trazado_149209" data-name="Trazado 149209" d="M2469.863,2713.437l-4.614.718,5.489,2.5,4.614-.717Z" transform="translate(-2422.781 -2681.544)" fill="#8db6c3"/>
        <path id="Trazado_149210" data-name="Trazado 149210" d="M2484.392,2690.585l-1.032,5.822,5.488,2.5,1.033-5.822Z" transform="translate(-2436.279 -2664.514)" fill="#8db6c3"/>
        <path id="Trazado_149211" data-name="Trazado 149211" d="M2342.3,2613.262a22.925,22.925,0,0,0-1.688-9.568l3.521-4.425-2.725-4.24-4.417,3.134a14.925,14.925,0,0,0-7.182-4.128l.216-5.613-4.887-.177-1.765,5.556a20.678,20.678,0,0,0-8.545,3.559l-3.256-3.41-4.186,3.99,1.918,4.622a29.686,29.686,0,0,0-5.039,9.326l-4.681.726-1.033,5.822,4.3,1.039a23.173,23.173,0,0,0,1.574,9.807l-3.345,4.2,2.726,4.242,4.108-2.916a14.967,14.967,0,0,0,7.474,4.381l-.2,5.14,4.887.177,1.617-5.089a20.8,20.8,0,0,0,8.92-3.788l3.029,3.175,4.185-3.993-1.82-4.387a29.76,29.76,0,0,0,5.01-9.569l4.613-.717,1.032-5.822Zm-7.037,3.8c-1.481,8.354-8.367,14.92-15.379,14.665s-11.493-7.23-10.011-15.583,8.367-14.917,15.376-14.664S2336.74,2608.711,2335.258,2617.062Z" transform="translate(-2298.546 -2588.245)" fill="#baedfc"/>
      </g>
    </g>
    <g id="Grupo_86804" data-name="Grupo 86804" transform="translate(1321.691 219.451)">
      <path id="Trazado_148869" data-name="Trazado 148869" d="M1042.1,1908.708l-8.385,9.43-40.39,5.075,3.841-9.84Z" transform="translate(-990.622 -1897.936)" fill="#c73a3f"/>
      <path id="Trazado_148870" data-name="Trazado 148870" d="M994.3,1901.526l2.914,11.969-3.841,9.84-2.7-11.4Z" transform="translate(-990.668 -1898.059)" fill="#ff898e"/>
      <path id="Trazado_148871" data-name="Trazado 148871" d="M1038.384,1898.117l3.7,10.772-44.934,4.664-2.914-11.968Z" transform="translate(-990.607 -1898.117)" fill="#fa575d"/>
    </g>
    <g id="Grupo_86806" data-name="Grupo 86806" transform="translate(904.293 219.451)">
      <path id="Trazado_148879" data-name="Trazado 148879" d="M1023.485,1687.12l11.012-3.35,39.063,18.845-7.671,5.831Z" transform="translate(-1021.239 -1683.771)" fill="#086dd9"/>
      <path id="Trazado_148880" data-name="Trazado 148880" d="M1061.807,1718.831l3.427-10.7,7.671-5.831-3.322,10.158Z" transform="translate(-1020.584 -1683.455)" fill="#19385f"/>
      <path id="Trazado_148881" data-name="Trazado 148881" d="M1021.276,1697.208l2.246-10.143,42.4,21.327-3.427,10.7Z" transform="translate(-1021.277 -1683.715)" fill="#2f94ff"/>
    </g>
    <g id="Grupo_86805" data-name="Grupo 86805" transform="translate(1121.42 104)">
      <path id="Trazado_148872" data-name="Trazado 148872" d="M887.248,1643.661l12.188-12.639,3.26-12.325-12.616,12.9Z" transform="translate(-842.053 -1607.446)" fill="url(#linear-gradient-9)"/>
      <path id="Trazado_148873" data-name="Trazado 148873" d="M860.512,1632.911,843.8,1621.155l-.99,12.395,16.039,11.457Z" transform="translate(-842.813 -1607.404)" fill="url(#linear-gradient-10)"/>
      <path id="Trazado_148874" data-name="Trazado 148874" d="M874.777,1656.374l16.918,12.087,3.113-11.437L877.142,1644.6Z" transform="translate(-842.267 -1607.003)" fill="url(#linear-gradient-11)"/>
      <path id="Trazado_148875" data-name="Trazado 148875" d="M891.411,1668.485l12.512-13.575,3.562-11.755-12.961,13.893Z" transform="translate(-841.982 -1607.028)" fill="url(#linear-gradient-12)"/>
      <path id="Trazado_148876" data-name="Trazado 148876" d="M877.364,1644.6l-13.721,14.029-1.858,11.451,13.214-13.7Z" transform="translate(-842.489 -1607.003)" fill="url(#linear-gradient-13)"/>
      <path id="Trazado_148877" data-name="Trazado 148877" d="M873.821,1620.127l12.79-12.491,16.828,11.25-12.616,12.9,17.476,11.98-12.961,13.893-17.667-12.428-13.721,14.029L846.6,1646.713l13.9-13.571-16.709-11.755,13.485-12.6Z" transform="translate(-842.796 -1607.635)" fill="#fa575d"/>
      <path id="Trazado_148878" data-name="Trazado 148878" d="M845.436,1657.858l16.629,12.193,1.858-11.451-17.351-12.543Z" transform="translate(-842.768 -1606.978)" fill="url(#linear-gradient-14)"/>
    </g>
  </g>
</svg>
