<svg xmlns="http://www.w3.org/2000/svg" width="87.059" height="120" viewBox="0 0 87.059 120">
  <g id="psd-file-format-variant" transform="translate(-75.6)">
    <g id="Grupo_85491" data-name="Grupo 85491" transform="translate(75.6 0)">
      <path id="Trazado_105551" data-name="Trazado 105551" d="M364.27,406.076a13.44,13.44,0,0,0-2.923.255v18.674a11.732,11.732,0,0,0,2.245.129c5.843.041,9.655-3.178,9.655-10C373.288,409.21,369.817,406.076,364.27,406.076Z" transform="translate(-299.093 -317.606)" fill="#fdcf57"/>
      <path id="Trazado_105552" data-name="Trazado 105552" d="M162.634,28.755a2.314,2.314,0,0,0-.558-1.523L138.939.8c-.007-.006-.014-.01-.018-.015a2.335,2.335,0,0,0-.469-.393c-.051-.033-.1-.063-.154-.092a2.386,2.386,0,0,0-.464-.194c-.044-.013-.083-.032-.126-.041a2.289,2.289,0,0,0-.54-.067H80.306A4.71,4.71,0,0,0,75.6,4.706V115.295A4.711,4.711,0,0,0,80.306,120h77.647a4.712,4.712,0,0,0,4.706-4.706V29.019A2.084,2.084,0,0,0,162.634,28.755ZM101.77,99.184c-2.2,2.075-5.465,3.006-9.275,3.006a16.255,16.255,0,0,1-2.2-.125v10.208H83.9V84.109a52.958,52.958,0,0,1,8.725-.593c3.98,0,6.818.762,8.725,2.286a8.345,8.345,0,0,1,3.047,6.605A9.113,9.113,0,0,1,101.77,99.184Zm13.722,13.509a18.687,18.687,0,0,1-8.088-1.737l1.314-5.336a16.457,16.457,0,0,0,7.155,1.778c2.965,0,4.532-1.227,4.532-3.091,0-1.778-1.355-2.794-4.783-4.023-4.743-1.652-7.836-4.276-7.836-8.426,0-4.871,4.065-8.6,10.8-8.6a17.482,17.482,0,0,1,7.283,1.441l-1.441,5.209a13.555,13.555,0,0,0-5.971-1.356c-2.794,0-4.15,1.271-4.15,2.753,0,1.823,1.611,2.626,5.294,4.025,5.039,1.864,7.412,4.486,7.412,8.51C127.011,108.628,123.328,112.693,115.492,112.693Zm36.379-3.812c-3.006,2.5-7.578,3.686-13.169,3.686a55.562,55.562,0,0,1-7.328-.425V84.109a57.6,57.6,0,0,1,8.725-.593c5.421,0,8.936.974,11.689,3.049,2.964,2.2,4.828,5.717,4.828,10.756C156.616,102.785,154.623,106.554,151.871,108.881ZM80.306,79.9V4.706h54.508V28.782a2.354,2.354,0,0,0,2.353,2.353h20.786V79.9H80.306Z" transform="translate(-75.6 0)" fill="#fdcf57"/>
      <path id="Trazado_105553" data-name="Trazado 105553" d="M145.7,405.686a11.038,11.038,0,0,0-2.668.255v8.426a9.774,9.774,0,0,0,2.161.17c3.431,0,5.549-1.735,5.549-4.658C150.744,407.253,148.922,405.686,145.7,405.686Z" transform="translate(-128.342 -317.301)" fill="#fdcf57"/>
      <path id="Trazado_105554" data-name="Trazado 105554" d="M151.055,145.988l33.536,6.414a1.387,1.387,0,0,0,1.026-.156l12.773-11.691s.832-.5-.35-.725-33.26-6.4-33.26-6.4a1.38,1.38,0,0,0-1.026.155l-13.087,11.973C150.492,145.721,150.665,145.913,151.055,145.988Zm14.8-10.748,29.07,5.561-8.585,7.85-2.119-.4c.19-1.548.67-3.671-1.909-3.87-3.022-.232-7.232,2.121-7.232,2.121s1.835-3.213-.263-5.524-12.479,3.087-12.479,3.087l-5.066-.968Z" transform="translate(-134.259 -104.339)" fill="#064a93"/>
      <path id="Trazado_105555" data-name="Trazado 105555" d="M293.385,165.505c.534.1,1.057.176,1.544.224a7.464,7.464,0,0,0,1.666.5c1.746.333,3.55.252,4.024-.183s-.556-1.058-2.3-1.391a11.559,11.559,0,0,0-1.916-.206,1.23,1.23,0,0,0-.65-.286l-.458-.088a2.345,2.345,0,0,0-1.573.2,5.928,5.928,0,0,0-3.04.053C290.348,164.63,291.561,165.157,293.385,165.505Z" transform="translate(-243.778 -128.288)" fill="#064a93"/>
      <path id="Trazado_105556" data-name="Trazado 105556" d="M185.612,218.03l12.776-11.689s.832-.5-.353-.726c-.281-.053-2.329-.447-5.268-1.013l-5.846,5.347a3.013,3.013,0,0,1-2.011.695,3.827,3.827,0,0,1-.692-.063L157.158,205.4l-6.5,5.941c-.175.161,0,.352.391.428l33.534,6.414A1.384,1.384,0,0,0,185.612,218.03Z" transform="translate(-134.256 -160.026)" fill="#064a93"/>
      <path id="Trazado_105557" data-name="Trazado 105557" d="M202.492,252.67c-.283-.053-2.329-.447-5.268-1.013L191.378,257a3.011,3.011,0,0,1-2.011.7,3.755,3.755,0,0,1-.692-.066l-27.063-5.177-6.5,5.942c-.173.16,0,.352.391.427l33.533,6.413a1.39,1.39,0,0,0,1.03-.156l12.772-11.689S203.676,252.9,202.492,252.67Z" transform="translate(-137.741 -196.83)" fill="#064a93"/>
    </g>
  </g>
</svg>
