<svg id="animacion-2" xmlns="http://www.w3.org/2000/svg" width="80" height="67.859" viewBox="0 0 80 67.859">
  <path id="Trazado_142744" data-name="Trazado 142744" d="M208,329.629h14.934V342.5H208Zm0,0" transform="translate(-175.5 -278.124)" fill="#baedfc"/>
  <path id="Trazado_142746" data-name="Trazado 142746" d="M82.522,7.4H9.516A2.344,2.344,0,0,0,7.172,9.742V58.407A2.344,2.344,0,0,0,9.516,60.75H82.522a2.344,2.344,0,0,0,2.344-2.344V9.742A2.344,2.344,0,0,0,82.522,7.4Zm0,0" transform="translate(-6.051 -6.242)" fill="#baedfc"/>
  <path id="Trazado_142748" data-name="Trazado 142748" d="M169.253,403.172h23.914a1.854,1.854,0,1,1,0,3.708H169.253a1.854,1.854,0,1,1,0-3.708Zm0,0" transform="translate(-141.242 -340.176)" fill="#baedfc"/>
  <path id="Trazado_142750" data-name="Trazado 142750" d="M105.133,81.937H38.57a.781.781,0,0,1-.781-.781V41.965a.781.781,0,0,1,.781-.781h66.563a.781.781,0,0,1,.781.781V81.156A.781.781,0,0,1,105.133,81.937Zm0,0" transform="translate(-31.885 -34.749)" fill="#f0fcff"/>
  <path id="Trazado_142751" data-name="Trazado 142751" d="M48.621,57.384H37.789V41.965a.781.781,0,0,1,.781-.781H48.621Zm0,0" transform="translate(-31.885 -34.749)" fill="#fdcf57"/>
  <path id="Trazado_142752" data-name="Trazado 142752" d="M411.919,65.426h-9.9a1.562,1.562,0,0,1-1.562-1.563V40.738h10.681a.781.781,0,0,1,.781.781Zm0,0" transform="translate(-337.886 -34.373)" fill="#fdcf57"/>
  <path id="Trazado_142753" data-name="Trazado 142753" d="M47.058,148.976H37.789v-9.292H48.621v7.73A1.562,1.562,0,0,1,47.058,148.976Zm0,0" transform="translate(-31.885 -117.858)" fill="#fdcf57"/>
  <path id="Trazado_142754" data-name="Trazado 142754" d="M117.024,260.121H56.012a1.172,1.172,0,0,1,0-2.344h61.012a1.172,1.172,0,0,1,0,2.344Zm0,0" transform="translate(-46.271 -217.5)" fill="#0882bf"/>
  <path id="Trazado_142755" data-name="Trazado 142755" d="M354.844,249.826a2.861,2.861,0,1,1-2.861-2.861A2.861,2.861,0,0,1,354.844,249.826Zm0,0" transform="translate(-294.571 -208.377)" fill="#064a93"/>
  <path id="Trazado_142756" data-name="Trazado 142756" d="M120.723,249.826a2.861,2.861,0,1,1-2.861-2.861A2.861,2.861,0,0,1,120.723,249.826Zm0,0" transform="translate(-97.031 -208.377)" fill="#064a93"/>
  <path id="Trazado_142757" data-name="Trazado 142757" d="M117.024,223.375H56.012a1.172,1.172,0,1,1,0-2.344h61.012a1.172,1.172,0,1,1,0,2.344Zm0,0" transform="translate(-46.271 -186.495)" fill="#0882bf"/>
  <path id="Trazado_142758" data-name="Trazado 142758" d="M196.8,213.084a2.861,2.861,0,1,1-2.861-2.861A2.861,2.861,0,0,1,196.8,213.084Zm0,0" transform="translate(-161.222 -177.375)" fill="#064a93"/>
  <path id="Trazado_142759" data-name="Trazado 142759" d="M230.047,73.849l-14.3-8.257a1.562,1.562,0,0,0-2.344,1.353V83.459a1.562,1.562,0,0,0,2.344,1.353l14.3-8.257A1.562,1.562,0,0,0,230.047,73.849Zm0,0" transform="translate(-180.058 -55.164)" fill="#064a93"/>
  <path id="Trazado_142761" data-name="Trazado 142761" d="M76.486,0H3.514A3.514,3.514,0,0,0,0,3.514V52.156A3.514,3.514,0,0,0,3.514,55.67H31.365v6.141H28.048a3.024,3.024,0,0,0,0,6.049h23.9a3.024,3.024,0,0,0,0-6.049H48.635V55.67H76.486A3.514,3.514,0,0,0,80,52.156V3.514A3.514,3.514,0,0,0,76.486,0ZM52.634,64.835a.682.682,0,0,1-.682.682h-23.9a.682.682,0,0,1,0-1.364h23.9A.682.682,0,0,1,52.634,64.835ZM77.657,52.156a1.173,1.173,0,0,1-1.171,1.171H39.766a1.171,1.171,0,1,0,0,2.343h6.526v6.141H33.708V55.67H34.3a1.171,1.171,0,0,0,0-2.343H3.514a1.173,1.173,0,0,1-1.171-1.171V3.514A1.173,1.173,0,0,1,3.514,2.343H76.486a1.173,1.173,0,0,1,1.171,1.171Zm0,0"/>
  <path id="Trazado_142762" data-name="Trazado 142762" d="M99.089,33.77H32.557a1.954,1.954,0,0,0-1.952,1.952V74.894a1.954,1.954,0,0,0,1.952,1.952H99.089a1.954,1.954,0,0,0,1.952-1.952V35.721A1.954,1.954,0,0,0,99.089,33.77ZM41.432,36.112V49.153H37.321a1.171,1.171,0,1,0,0,2.343h4.111v6.555a.391.391,0,0,1-.391.391H32.948V36.112ZM32.948,74.5V60.784h8.094a2.736,2.736,0,0,0,2.733-2.733V36.112H98.7V58.376h-8.72a.391.391,0,0,1-.39-.391V40.338a1.172,1.172,0,1,0-2.343,0V57.985a2.736,2.736,0,0,0,2.733,2.733H98.7V74.5Zm0,0" transform="translate(-25.823 -28.493)"/>
  <path id="Trazado_142763" data-name="Trazado 142763" d="M117.3,242.313h-9.478a4.031,4.031,0,0,0-7.714,0H71.254a4.031,4.031,0,0,0-7.714,0H56.312a1.172,1.172,0,0,0,0,2.343h7.227a4.031,4.031,0,0,0,7.715,0H100.1a4.031,4.031,0,0,0,7.714,0H117.3a1.172,1.172,0,0,0,0-2.343Zm-49.9,2.86a1.689,1.689,0,1,1,1.689-1.689A1.69,1.69,0,0,1,67.4,245.173Zm36.565,0a1.689,1.689,0,1,1,1.688-1.689A1.691,1.691,0,0,1,103.961,245.173Zm0,0" transform="translate(-46.525 -202.039)"/>
  <path id="Trazado_142764" data-name="Trazado 142764" d="M117.3,205.587H83.136a4.031,4.031,0,0,0-7.714,0H56.312a1.172,1.172,0,0,0,0,2.343H75.421a4.031,4.031,0,0,0,7.714,0H117.3a1.172,1.172,0,1,0,0-2.343Zm-38.018,2.86a1.69,1.69,0,0,1-1.688-1.687v0h0a1.689,1.689,0,1,1,1.688,1.69Zm0,0" transform="translate(-46.525 -171.051)"/>
  <path id="Trazado_142765" data-name="Trazado 142765" d="M207.5,79.553a2.706,2.706,0,0,0,2.733,0l14.3-8.253a2.733,2.733,0,0,0,0-4.734l-14.3-8.253a2.733,2.733,0,0,0-4.1,2.367V77.186A2.7,2.7,0,0,0,207.5,79.553Zm.977-18.873a.379.379,0,0,1,.195-.338.4.4,0,0,1,.2-.054.382.382,0,0,1,.194.054l14.3,8.253a.391.391,0,0,1,0,.676l-14.3,8.253a.39.39,0,0,1-.585-.338Zm0,0" transform="translate(-173.925 -48.889)"/>
</svg>
