<svg xmlns="http://www.w3.org/2000/svg" width="87.059" height="120" viewBox="0 0 87.059 120">
  <g id="bmp-file-format-symbol" transform="translate(-75.6)">
    <g id="Grupo_85471" data-name="Grupo 85471" transform="translate(94.961 22.629)">
      <path id="Trazado_105544" data-name="Trazado 105544" d="M289.853,171.295a6.265,6.265,0,0,0-2.337.43,1.5,1.5,0,0,0-1.048-.43h-.608a1.491,1.491,0,0,0-1.474,1.336c-1.871.2-3.261.872-3.261,1.683,0,.963,1.953,1.742,4.363,1.742a10.217,10.217,0,0,0,1.95-.188,6.183,6.183,0,0,0,2.414.467c2.307,0,4.175-1.131,4.175-2.519S292.162,171.295,289.853,171.295Z" transform="translate(-255.71 -156.605)" fill="#064a93"/>
      <path id="Trazado_105545" data-name="Trazado 105545" d="M191.5,150.834a3.489,3.489,0,1,0,3.489,3.488A3.49,3.49,0,0,0,191.5,150.834Z" transform="translate(-182.874 -140.602)" fill="#064a93"/>
      <path id="Trazado_105546" data-name="Trazado 105546" d="M164.468,103.869v45.5h45.49v-45.5ZM206.2,135.635a6.508,6.508,0,0,1-1.744,4.453c-1.675-4.28-3.729-8.929-6.636-8.185-3.686.943-5.659,8.946-5.94,10.164h-.073c-.279-1.326-2.41-10.742-7.633-15.974s-10.319,13.229-11,15.833a6.389,6.389,0,0,1-4.943-6.291V114.947a6.337,6.337,0,0,1,6.241-6.429h25.491a6.338,6.338,0,0,1,6.242,6.429v20.688Z" transform="translate(-164.468 -103.869)" fill="#064a93"/>
    </g>
    <g id="Grupo_85470" data-name="Grupo 85470" transform="translate(75.6)">
      <path id="Trazado_105540" data-name="Trazado 105540" d="M150.557,461.516h-1.9v6.929a17.651,17.651,0,0,0,2.151.072c2.517,0,4.737-.948,4.737-3.536C155.549,462.5,153.327,461.516,150.557,461.516Z" transform="translate(-132.744 -360.968)" fill="#fdcf57"/>
      <path id="Trazado_105541" data-name="Trazado 105541" d="M393.58,417a9.3,9.3,0,0,0-2.3.222v7.254a8.492,8.492,0,0,0,1.857.145c2.954,0,4.777-1.495,4.777-4.01C397.919,418.352,396.352,417,393.58,417Z" transform="translate(-322.507 -326.153)" fill="#fdcf57"/>
      <path id="Trazado_105543" data-name="Trazado 105543" d="M154.962,419.183c0-1.859-1.421-2.845-3.938-2.845a15.443,15.443,0,0,0-2.37.145v5.725h1.823C153.4,422.208,154.962,421,154.962,419.183Z" transform="translate(-132.739 -325.632)" fill="#fdcf57"/>
      <path id="Trazado_105542" data-name="Trazado 105542" d="M162.636,28.756a2.325,2.325,0,0,0-.559-1.524L138.939.8c0-.007-.012-.01-.018-.017A2.353,2.353,0,0,0,138.454.4c-.051-.033-.1-.062-.154-.092a2.541,2.541,0,0,0-.464-.194c-.044-.013-.083-.031-.126-.042a2.371,2.371,0,0,0-.54-.067H80.306A4.712,4.712,0,0,0,75.6,4.706V115.295A4.711,4.711,0,0,0,80.306,120h77.647a4.71,4.71,0,0,0,4.706-4.706V29.02A2.631,2.631,0,0,0,162.636,28.756Zm-60.948,80.688c-1.787,1.422-4.776,2.224-9.662,2.224a42.7,42.7,0,0,1-6.014-.365V87.169a44.261,44.261,0,0,1,7.181-.51c3.39,0,5.468.326,7.255,1.384a5.349,5.349,0,0,1,2.953,4.813c0,2.188-1.276,4.23-4.046,5.251v.074a6.147,6.147,0,0,1,4.885,6.052A6.544,6.544,0,0,1,101.688,109.444Zm27.486,1.969-.364-9.406c-.11-2.953-.219-6.526-.219-10.1h-.108c-.766,3.136-1.789,6.635-2.736,9.515l-2.99,9.588H118.42L115.8,101.5c-.8-2.879-1.641-6.379-2.225-9.588H113.5c-.146,3.317-.256,7.109-.438,10.171l-.437,9.335h-5.14l1.567-24.574h7.4l2.406,8.2c.766,2.844,1.532,5.907,2.079,8.787h.109c.693-2.845,1.532-6.089,2.334-8.822L126,86.843h7.255l1.348,24.573h-5.431v0Zm25.082-11.265c-1.9,1.786-4.7,2.588-7.985,2.588a13.864,13.864,0,0,1-1.894-.11v8.787H138.87V87.169a45.5,45.5,0,0,1,7.51-.51c3.427,0,5.87.656,7.51,1.969a7.181,7.181,0,0,1,2.624,5.686A7.852,7.852,0,0,1,154.256,100.149ZM80.306,79.9V4.706h54.511V28.783a2.353,2.353,0,0,0,2.353,2.353h20.784l0,48.766Z" transform="translate(-75.6)" fill="#fdcf57"/>
    </g>
  </g>
</svg>
