<svg xmlns="http://www.w3.org/2000/svg" width="87.059" height="120" viewBox="0 0 87.059 120">
  <g id="Grupo_85444" data-name="Grupo 85444" transform="translate(-285 -1692)">
    <g id="png-file-extension-interface-symbol" transform="translate(285 1692)">
      <g id="Grupo_85443" data-name="Grupo 85443" transform="translate(0 0)">
        <path id="Trazado_105525" data-name="Trazado 105525" d="M142.674,414.1a9.276,9.276,0,0,0-2.264.217v7.159a8.329,8.329,0,0,0,1.835.144c2.914,0,4.714-1.476,4.714-3.957C146.96,415.433,145.412,414.1,142.674,414.1Z" transform="translate(-126.162 -323.214)" fill="#fdcf57"/>
        <path id="Trazado_105526" data-name="Trazado 105526" d="M353.668,141.89l.008,0v0Z" transform="translate(-293.086 -110.977)" fill="#86c3e0"/>
        <path id="Trazado_105527" data-name="Trazado 105527" d="M162.636,28.756a2.338,2.338,0,0,0-.559-1.524L138.938.8c0-.007-.012-.01-.018-.017A2.353,2.353,0,0,0,138.454.4c-.051-.033-.1-.062-.154-.092a2.541,2.541,0,0,0-.464-.194c-.044-.013-.083-.031-.129-.042A2.293,2.293,0,0,0,137.169,0H80.306A4.712,4.712,0,0,0,75.6,4.706V115.294A4.711,4.711,0,0,0,80.306,120h77.647a4.712,4.712,0,0,0,4.706-4.706V29.02A2.627,2.627,0,0,0,162.636,28.756Zm-62.089,71.65c-2.078,1.958-5.154,2.838-8.751,2.838a15.344,15.344,0,0,1-2.078-.121v9.629H83.685V86.183a49.873,49.873,0,0,1,8.231-.559c3.754,0,6.434.718,8.23,2.158a7.872,7.872,0,0,1,2.877,6.233A8.592,8.592,0,0,1,100.547,100.406ZM129.2,112.752h-6.392l-5.754-10.388a99.943,99.943,0,0,1-4.679-9.508l-.117.039c.161,3.557.238,7.352.238,11.746v8.111H106.9V85.824h7.112l5.6,9.868a78.017,78.017,0,0,1,4.392,9.23h.121a99.574,99.574,0,0,1-.519-11.227v-7.87h5.6v26.928Zm27.771-1.238a30.144,30.144,0,0,1-8.991,1.519c-4.913,0-8.472-1.239-10.948-3.637a13.031,13.031,0,0,1-3.8-9.788c.039-8.949,6.553-14.064,15.381-14.064a18.548,18.548,0,0,1,7.474,1.318l-1.278,4.875a14.945,14.945,0,0,0-6.275-1.158c-5.072,0-8.909,2.877-8.909,8.709,0,5.555,3.476,8.83,8.472,8.83a8.119,8.119,0,0,0,3-.4v-5.634h-4.156V97.33h10.029v14.184h0ZM80.306,79.9V4.706h54.51V21.632h1.471v9.281h9.184v.224h12.481l0,48.766Z" transform="translate(-75.6 0)" fill="#fdcf57"/>
        <path id="Trazado_105528" data-name="Trazado 105528" d="M149.838,132.721h8.211v-8.357h-8.271v-8.358h8.271v-8.358h-8.271V99.291H141.42v8.358h8.271v8.358H141.42v8.358h8.271v8.357h-8.209v8.359h8.271v8.357h8.354V141.08h-8.27Z" transform="translate(-126.694 -75.796)" fill="#064a93"/>
        <path id="Trazado_105529" data-name="Trazado 105529" d="M234.9,132.721h8.21v-8.357h-8.271v-8.358h8.271v-8.358h-8.271V99.291h-8.36v8.358h8.271v8.358h-8.271v8.358h8.271v8.357h-8.209v8.359h8.271v8.357h8.357V141.08H234.9Z" transform="translate(-192.725 -75.796)" fill="#064a93"/>
        <path id="Trazado_105530" data-name="Trazado 105530" d="M311.554,107.649h8.262a2.114,2.114,0,0,1-1.229-1.918v-6.44h-7.033v8.358Z" transform="translate(-259.546 -77.479)" fill="#064a93"/>
        <path id="Trazado_105531" data-name="Trazado 105531" d="M319.826,141.906v8.355h-8.271v8.358h8.271v8.357h-8.211v8.358h8.273v8.358h8.356v-8.358h-8.27v-8.358h8.209v-8.357h-8.271v-8.358h8.271V142.1h-7.476A2.091,2.091,0,0,1,319.826,141.906Z" transform="translate(-258.766 -109.051)" fill="#064a93"/>
      </g>
    </g>
  </g>
</svg>
