<svg xmlns="http://www.w3.org/2000/svg" width="87.06" height="120.001" viewBox="0 0 87.06 120.001">
  <g id="gif-file-format" transform="translate(-75.255)">
    <g id="Grupo_85460" data-name="Grupo 85460" transform="translate(75.255)">
      <g id="Grupo_85459" data-name="Grupo 85459" transform="translate(23.328 16.77)">
        <g id="Grupo_85458" data-name="Grupo 85458">
          <g id="Grupo_85457" data-name="Grupo 85457">
            <path id="Trazado_105539" data-name="Trazado 105539" d="M222.248,123.812,210,109.344h6.8L205.522,96.008h7.031l-9.279-10.959H207.6l-7.132-8.428-6.484,8.428h4.373l-8.43,10.959h6.9l-10.259,13.335h6.41l-11.132,14.469h18.661v17.507h3.08V123.812Z" transform="translate(-181.844 -76.621)" fill="#ff4b52"/>
          </g>
        </g>
      </g>
      <path id="Trazado_105538" data-name="Trazado 105538" d="M162.291,28.755a2.326,2.326,0,0,0-.559-1.523L138.594.8c0-.006-.014-.01-.018-.015a2.306,2.306,0,0,0-.467-.393c-.05-.033-.1-.063-.156-.092a2.335,2.335,0,0,0-.464-.194c-.041-.013-.083-.032-.126-.041A2.273,2.273,0,0,0,136.825,0H79.961a4.712,4.712,0,0,0-4.706,4.706V115.3A4.712,4.712,0,0,0,79.961,120h77.647a4.712,4.712,0,0,0,4.706-4.706V29.019A2.494,2.494,0,0,0,162.291,28.755ZM112.316,111.9a31.929,31.929,0,0,1-9.53,1.608c-5.209,0-8.978-1.312-11.6-3.853a13.8,13.8,0,0,1-4.021-10.375c.041-9.485,6.943-14.906,16.3-14.906a19.619,19.619,0,0,1,7.918,1.4l-1.355,5.165a15.82,15.82,0,0,0-6.65-1.227c-5.374,0-9.441,3.051-9.441,9.232,0,5.887,3.686,9.359,8.981,9.359a8.648,8.648,0,0,0,3.175-.422v-5.97h-4.4V96.872h10.63V111.9Zm11.521,1.313h-6.48V84.674h6.48Zm23.04-23.249h-10.97V96.49h10.248v5.251H135.908v11.475h-6.48V84.674h17.45v5.292ZM79.961,79.9V4.706h54.511V28.782a2.353,2.353,0,0,0,2.353,2.353h20.784l0,48.766H79.961Z" transform="translate(-75.255)" fill="#004046"/>
    </g>
  </g>
</svg>
