<svg xmlns="http://www.w3.org/2000/svg" width="87.059" height="120" viewBox="0 0 87.059 120">
  <g id="pdf-file-format-symbol" transform="translate(-75.6)">
    <g id="Grupo_85510" data-name="Grupo 85510" transform="translate(75.6 0)">
      <path id="Trazado_105568" data-name="Trazado 105568" d="M256.851,414.7a13.469,13.469,0,0,0-2.922.254v18.675a11.84,11.84,0,0,0,2.245.128c5.843.041,9.655-3.176,9.655-9.994C265.87,417.831,262.4,414.7,256.851,414.7Z" transform="translate(-215.077 -324.35)" fill="#004046"/>
      <path id="Trazado_105569" data-name="Trazado 105569" d="M143.257,414.313a11.07,11.07,0,0,0-2.668.253v8.428a9.9,9.9,0,0,0,2.158.17c3.433,0,5.549-1.737,5.549-4.659C148.3,415.88,146.474,414.313,143.257,414.313Z" transform="translate(-126.43 -324.049)" fill="#004046"/>
      <path id="Trazado_105570" data-name="Trazado 105570" d="M162.636,28.756a2.325,2.325,0,0,0-.559-1.524L138.939.8c0-.007-.014-.01-.018-.017A2.353,2.353,0,0,0,138.454.4C138.4.363,138.35.333,138.3.3a2.411,2.411,0,0,0-.464-.194c-.041-.013-.083-.031-.126-.042A2.293,2.293,0,0,0,137.169,0H80.306A4.712,4.712,0,0,0,75.6,4.706V115.295A4.711,4.711,0,0,0,80.306,120h77.647a4.712,4.712,0,0,0,4.706-4.706V29.02A2.622,2.622,0,0,0,162.636,28.756Zm-61.4,72.305c-2.2,2.075-5.462,3.008-9.274,3.008a16.553,16.553,0,0,1-2.2-.126v10.2H83.365V85.986a52.959,52.959,0,0,1,8.725-.593c3.98,0,6.817.763,8.722,2.286a8.341,8.341,0,0,1,3.047,6.606A9.114,9.114,0,0,1,101.234,101.062Zm27.231,9.7c-3,2.5-7.577,3.683-13.165,3.683a56.062,56.062,0,0,1-7.328-.423V85.986a57.908,57.908,0,0,1,8.725-.593c5.418,0,8.933.974,11.687,3.049,2.965,2.2,4.829,5.717,4.829,10.756C133.21,104.662,131.22,108.431,128.465,110.761ZM154.9,90.9h-10.97V97.42h10.248v5.253H143.927v11.475H137.45V85.607H154.9Zm-74.591-11V4.706h54.511V28.783a2.353,2.353,0,0,0,2.353,2.353h20.784l0,48.766Z" transform="translate(-75.6 0)" fill="#004046"/>
      <path id="Trazado_105571" data-name="Trazado 105571" d="M182.786,108.481c-.138-.013-3.454-.315-8.543-.315-1.595,0-3.2.031-4.786.091a253.748,253.748,0,0,1-22.69-19.321c.08-.466.136-.834.161-1.117.581-6.136-.065-10.279-1.914-12.313a4.67,4.67,0,0,0-4.844-1.265,5.788,5.788,0,0,0-3.966,3.693c-.754,2.513.458,5.564,3.64,9.1.051.054,1.131,1.185,3.093,3.1-1.275,6.081-4.614,19.2-6.234,25.506a33.1,33.1,0,0,0-9.429,7.291l-.161.184-.1.221c-.253.531-1.461,3.287-.554,5.5a3.747,3.747,0,0,0,2.244,2.128l.283.076a3.674,3.674,0,0,0,.7.055c1.963,0,6.808-1.032,9.407-10.609l.63-2.427c9.072-4.409,20.411-5.832,28.631-6.228,4.228,3.135,8.435,6.015,12.512,8.566l.133.077a9.814,9.814,0,0,0,4.079.986h0c2.992,0,5.177-1.836,5.99-5.036l.041-.219a6.007,6.007,0,0,0-1.328-4.765C187.472,108.73,183.172,108.494,182.786,108.481Zm-53.027,19.087a.217.217,0,0,1-.036-.065,4.3,4.3,0,0,1,.384-2.445,27.7,27.7,0,0,1,5.306-4.541C133.416,126.978,130.513,127.537,129.759,127.568Zm12.674-42.93h0c-3.065-3.412-3.019-5.1-2.854-5.673.271-.952,1.492-1.312,1.5-1.315.615-.167.989-.134,1.321.231.752.826,1.4,3.319,1.142,7.891C142.821,85.043,142.433,84.638,142.433,84.638Zm-1.584,29.057.053-.2-.007,0c1.535-6.012,3.748-14.814,5.021-20.468l.046.044,0-.027c4.118,3.878,10.431,9.549,17.991,15.448l-.085,0,.125.094C156.876,109.191,148.37,110.6,140.849,113.695Zm46.77,1.972c-.542,1.993-1.585,2.265-2.541,2.265h0a6.359,6.359,0,0,1-2.422-.573c-2.776-1.74-5.616-3.636-8.481-5.664h.069c4.913,0,8.185.3,8.313.307.82.03,3.417.414,4.536,1.729A2.429,2.429,0,0,1,187.619,115.667Z" transform="translate(-115.116 -57.907)" fill="#ff4b52"/>
    </g>
  </g>
</svg>
